<svg width="534" height="484" viewBox="0 0 534 484" fill="none" xmlns="http://www.w3.org/2000/svg">
<path d="M261.662 327.517C261.662 324.585 264.046 322.2 266.978 322.2C269.911 322.2 272.295 324.585 272.295 327.517C272.295 330.45 269.911 332.835 266.978 332.835C264.046 332.835 261.662 330.45 261.662 327.517ZM266.978 348.54C269.739 348.54 271.973 346.305 271.973 343.545C271.973 340.784 269.739 338.55 266.978 338.55C264.218 338.55 261.984 340.784 261.984 343.545C261.984 346.305 264.218 348.54 266.978 348.54ZM266.978 364.245C269.556 364.245 271.64 362.161 271.64 359.583C271.64 357.005 269.556 354.921 266.978 354.921C264.401 354.921 262.317 357.005 262.317 359.583C262.317 362.161 264.401 364.245 266.978 364.245ZM266.978 379.95C269.374 379.95 271.318 378.005 271.318 375.61C271.318 373.214 269.374 371.27 266.978 371.27C264.583 371.27 262.639 373.214 262.639 375.61C262.639 378.005 264.583 379.95 266.978 379.95ZM266.978 395.655C269.191 395.655 270.985 393.861 270.985 391.648C270.985 389.435 269.191 387.641 266.978 387.641C264.766 387.641 262.972 389.435 262.972 391.648C262.972 393.861 264.766 395.655 266.978 395.655ZM266.978 411.36C269.008 411.36 270.663 409.716 270.663 407.675C270.663 405.634 269.019 403.991 266.978 403.991C264.938 403.991 263.294 405.634 263.294 407.675C263.294 409.716 264.938 411.36 266.978 411.36ZM266.978 427.065C268.826 427.065 270.33 425.561 270.33 423.713C270.33 421.866 268.826 420.362 266.978 420.362C265.131 420.362 263.627 421.866 263.627 423.713C263.627 425.561 265.131 427.065 266.978 427.065ZM266.978 442.77C268.654 442.77 270.007 441.416 270.007 439.741C270.007 438.065 268.654 436.711 266.978 436.711C265.303 436.711 263.95 438.065 263.95 439.741C263.95 441.416 265.303 442.77 266.978 442.77ZM266.978 458.475C268.471 458.475 269.674 457.261 269.674 455.779C269.674 454.296 268.461 453.082 266.978 453.082C265.496 453.082 264.283 454.296 264.283 455.779C264.283 457.261 265.496 458.475 266.978 458.475ZM266.978 474.18C268.289 474.18 269.352 473.116 269.352 471.806C269.352 470.495 268.289 469.432 266.978 469.432C265.668 469.432 264.605 470.495 264.605 471.806C264.605 473.116 265.668 474.18 266.978 474.18ZM266.978 489.885C268.106 489.885 269.019 488.972 269.019 487.844C269.019 486.716 268.106 485.803 266.978 485.803C265.851 485.803 264.938 486.716 264.938 487.844C264.938 488.972 265.851 489.885 266.978 489.885ZM266.978 505.59C267.924 505.59 268.697 504.817 268.697 503.871C268.697 502.926 267.924 502.152 266.978 502.152C266.033 502.152 265.26 502.926 265.26 503.871C265.26 504.817 266.033 505.59 266.978 505.59ZM266.978 521.295C267.741 521.295 268.364 520.672 268.364 519.909C268.364 519.147 267.741 518.523 266.978 518.523C266.216 518.523 265.593 519.147 265.593 519.909C265.593 520.672 266.216 521.295 266.978 521.295ZM266.978 537C267.569 537 268.042 536.527 268.042 535.937C268.042 535.346 267.569 534.873 266.978 534.873C266.388 534.873 265.915 535.346 265.915 535.937C265.915 536.527 266.388 537 266.978 537ZM253.606 331.428C256.474 332.04 259.299 330.203 259.911 327.335C260.523 324.467 258.687 321.641 255.819 321.029C252.951 320.417 250.126 322.254 249.514 325.122C248.902 327.99 250.738 330.815 253.606 331.428ZM250.341 346.789C253.037 347.358 255.69 345.639 256.259 342.943C256.828 340.247 255.11 337.594 252.414 337.024C249.718 336.455 247.065 338.174 246.496 340.87C245.927 343.566 247.645 346.219 250.341 346.789ZM247.076 362.15C249.589 362.687 252.07 361.076 252.607 358.562C253.144 356.049 251.533 353.567 249.02 353.03C246.507 352.493 244.026 354.104 243.488 356.618C242.951 359.132 244.563 361.613 247.076 362.15ZM243.811 377.511C246.152 378.005 248.451 376.512 248.956 374.17C249.46 371.829 247.957 369.53 245.615 369.025C243.274 368.52 240.975 370.024 240.47 372.366C239.966 374.708 241.469 377.006 243.811 377.511ZM240.546 392.873C242.715 393.335 244.842 391.949 245.304 389.79C245.766 387.63 244.38 385.493 242.221 385.031C240.062 384.569 237.925 385.955 237.463 388.114C237.001 390.273 238.387 392.411 240.546 392.873ZM237.28 408.234C239.267 408.653 241.222 407.385 241.641 405.398C242.06 403.411 240.793 401.456 238.806 401.037C236.818 400.618 234.864 401.885 234.445 403.873C234.026 405.86 235.293 407.815 237.28 408.234ZM234.015 423.595C235.83 423.982 237.603 422.822 237.989 421.017C238.376 419.212 237.216 417.429 235.411 417.042C233.607 416.656 231.824 417.816 231.437 419.621C231.051 421.425 232.211 423.208 234.015 423.595ZM230.75 438.956C232.383 439.3 233.994 438.258 234.337 436.625C234.681 434.993 233.639 433.381 232.007 433.038C230.374 432.694 228.763 433.736 228.419 435.369C228.076 437.001 229.117 438.613 230.75 438.956ZM227.485 454.318C228.946 454.629 230.374 453.695 230.686 452.234C230.997 450.773 230.063 449.344 228.602 449.033C227.141 448.721 225.713 449.656 225.401 451.116C225.09 452.577 226.024 454.006 227.485 454.318ZM224.22 469.679C225.498 469.948 226.765 469.131 227.034 467.853C227.302 466.574 226.486 465.307 225.208 465.038C223.93 464.77 222.662 465.586 222.394 466.865C222.125 468.143 222.941 469.41 224.22 469.679ZM220.954 485.04C222.061 485.277 223.146 484.568 223.382 483.461C223.618 482.355 222.909 481.27 221.803 481.033C220.697 480.797 219.612 481.506 219.376 482.612C219.139 483.719 219.848 484.804 220.954 485.04ZM217.689 500.401C218.613 500.595 219.526 500.004 219.73 499.08C219.934 498.156 219.333 497.243 218.409 497.039C217.485 496.835 216.572 497.437 216.368 498.361C216.164 499.284 216.766 500.197 217.689 500.401ZM214.424 515.763C215.176 515.924 215.917 515.44 216.078 514.689C216.239 513.937 215.756 513.195 215.004 513.034C214.252 512.873 213.511 513.357 213.35 514.108C213.189 514.86 213.672 515.602 214.424 515.763ZM211.159 531.124C211.728 531.242 212.297 530.877 212.416 530.308C212.534 529.738 212.168 529.169 211.599 529.051C211.03 528.933 210.461 529.298 210.343 529.867C210.224 530.437 210.59 531.006 211.159 531.124ZM240.814 327.26C243.499 328.452 246.636 327.249 247.828 324.563C249.02 321.878 247.817 318.741 245.132 317.549C242.447 316.356 239.31 317.559 238.118 320.245C236.926 322.93 238.129 326.067 240.814 327.26ZM234.423 341.611C236.937 342.728 239.89 341.6 241.007 339.087C242.124 336.573 240.997 333.619 238.483 332.502C235.97 331.385 233.016 332.512 231.899 335.026C230.782 337.54 231.91 340.494 234.423 341.611ZM228.033 355.963C230.385 357.015 233.145 355.963 234.187 353.599C235.229 351.236 234.187 348.486 231.824 347.444C229.461 346.402 226.711 347.444 225.67 349.807C224.628 352.171 225.67 354.921 228.033 355.963ZM221.642 370.314C223.833 371.292 226.389 370.314 227.367 368.112C228.344 365.91 227.367 363.364 225.165 362.386C222.963 361.409 220.417 362.386 219.44 364.589C218.463 366.791 219.44 369.337 221.642 370.314ZM215.251 384.666C217.27 385.568 219.644 384.666 220.546 382.635C221.449 380.605 220.546 378.242 218.516 377.339C216.486 376.437 214.123 377.339 213.221 379.37C212.319 381.4 213.221 383.763 215.251 384.666ZM208.86 399.017C210.718 399.844 212.888 399.017 213.715 397.148C214.542 395.279 213.715 393.12 211.846 392.293C209.977 391.465 207.818 392.293 206.991 394.162C206.164 396.031 206.991 398.19 208.86 399.017ZM202.47 413.369C204.167 414.121 206.143 413.369 206.895 411.671C207.647 409.974 206.895 407.998 205.198 407.246C203.501 406.494 201.524 407.246 200.773 408.943C200.021 410.64 200.773 412.617 202.47 413.369ZM196.079 427.72C197.604 428.397 199.398 427.72 200.074 426.184C200.751 424.648 200.074 422.865 198.538 422.188C197.003 421.511 195.22 422.188 194.543 423.724C193.866 425.26 194.543 427.043 196.079 427.72ZM189.688 442.072C191.052 442.673 192.642 442.072 193.254 440.707C193.866 439.343 193.254 437.753 191.89 437.141C190.526 436.529 188.936 437.141 188.324 438.505C187.712 439.869 188.324 441.459 189.688 442.072ZM183.297 456.423C184.49 456.96 185.897 456.423 186.434 455.22C186.971 454.017 186.434 452.62 185.231 452.083C184.028 451.546 182.631 452.083 182.094 453.286C181.557 454.49 182.094 455.886 183.297 456.423ZM176.907 470.775C177.938 471.237 179.151 470.775 179.603 469.743C180.054 468.712 179.603 467.498 178.571 467.047C177.54 466.596 176.327 467.047 175.875 468.078C175.424 469.11 175.875 470.323 176.907 470.775ZM170.516 485.126C171.386 485.513 172.396 485.126 172.782 484.256C173.169 483.386 172.782 482.376 171.912 481.99C171.042 481.603 170.033 481.989 169.646 482.86C169.259 483.73 169.646 484.739 170.516 485.126ZM164.125 499.478C164.823 499.789 165.65 499.478 165.962 498.769C166.273 498.06 165.962 497.243 165.253 496.932C164.544 496.62 163.728 496.932 163.416 497.641C163.105 498.35 163.416 499.166 164.125 499.478ZM157.734 513.829C158.271 514.065 158.894 513.829 159.141 513.292C159.388 512.755 159.141 512.132 158.604 511.885C158.067 511.638 157.444 511.885 157.197 512.422C156.95 512.959 157.197 513.582 157.734 513.829ZM229.117 320.589C231.491 322.318 234.821 321.792 236.539 319.407C238.258 317.022 237.742 313.703 235.358 311.984C232.973 310.266 229.654 310.781 227.936 313.166C226.217 315.551 226.733 318.87 229.117 320.589ZM219.891 333.297C222.125 334.919 225.24 334.425 226.862 332.19C228.484 329.956 227.99 326.841 225.756 325.219C223.521 323.597 220.407 324.091 218.785 326.325C217.163 328.559 217.657 331.675 219.891 333.297ZM210.665 346.005C212.748 347.519 215.659 347.057 217.174 344.973C218.688 342.889 218.226 339.978 216.143 338.464C214.059 336.949 211.148 337.411 209.634 339.495C208.119 341.579 208.581 344.49 210.665 346.005ZM201.438 358.713C203.372 360.12 206.089 359.69 207.496 357.757C208.903 355.823 208.474 353.105 206.54 351.698C204.607 350.291 201.89 350.72 200.483 352.654C199.076 354.588 199.505 357.305 201.438 358.713ZM192.212 371.42C194.006 372.72 196.508 372.323 197.808 370.529C199.108 368.735 198.71 366.232 196.917 364.932C195.123 363.632 192.62 364.03 191.321 365.824C190.021 367.618 190.418 370.121 192.212 371.42ZM182.986 384.128C184.629 385.321 186.928 384.956 188.131 383.312C189.334 381.669 188.958 379.37 187.314 378.167C185.671 376.963 183.373 377.339 182.17 378.983C180.967 380.627 181.343 382.925 182.986 384.128ZM173.76 396.836C175.253 397.921 177.358 397.588 178.443 396.095C179.527 394.602 179.194 392.497 177.701 391.412C176.208 390.327 174.103 390.66 173.018 392.153C171.934 393.646 172.267 395.751 173.76 396.836ZM164.533 409.544C165.887 410.522 167.777 410.232 168.765 408.878C169.753 407.525 169.453 405.634 168.099 404.646C166.746 403.658 164.855 403.959 163.867 405.312C162.879 406.666 163.18 408.556 164.533 409.544ZM155.307 422.252C156.51 423.133 158.196 422.865 159.077 421.651C159.958 420.437 159.689 418.761 158.475 417.88C157.262 416.999 155.586 417.268 154.705 418.482C153.825 419.696 154.093 421.371 155.307 422.252ZM146.081 434.96C147.144 435.734 148.626 435.497 149.389 434.434C150.151 433.37 149.926 431.888 148.863 431.125C147.799 430.363 146.317 430.588 145.554 431.652C144.792 432.715 145.017 434.198 146.081 434.96ZM136.854 447.668C137.767 448.334 139.045 448.13 139.711 447.217C140.377 446.304 140.173 445.026 139.26 444.36C138.347 443.694 137.069 443.898 136.403 444.811C135.737 445.724 135.941 447.002 136.854 447.668ZM127.628 460.376C128.391 460.935 129.465 460.763 130.023 460C130.582 459.238 130.41 458.163 129.647 457.605C128.885 457.046 127.811 457.218 127.252 457.981C126.694 458.743 126.865 459.818 127.628 460.376ZM118.402 473.084C119.025 473.535 119.895 473.396 120.346 472.773C120.797 472.15 120.657 471.28 120.034 470.828C119.411 470.377 118.541 470.517 118.09 471.14C117.639 471.763 117.779 472.633 118.402 473.084ZM109.175 485.792C109.648 486.136 110.314 486.028 110.658 485.556C111.001 485.083 110.894 484.417 110.421 484.073C109.949 483.73 109.283 483.837 108.939 484.31C108.595 484.782 108.703 485.448 109.175 485.792ZM219.171 311.619C221.137 313.8 224.499 313.982 226.679 312.016C228.86 310.051 229.042 306.688 227.077 304.508C225.111 302.327 221.749 302.144 219.569 304.11C217.388 306.076 217.206 309.438 219.171 311.619ZM207.496 322.125C209.344 324.177 212.491 324.338 214.542 322.49C216.594 320.642 216.755 317.495 214.907 315.443C213.06 313.391 209.913 313.23 207.861 315.078C205.81 316.926 205.649 320.073 207.496 322.125ZM195.821 332.631C197.54 334.543 200.493 334.704 202.405 332.974C204.317 331.245 204.478 328.302 202.749 326.389C201.02 324.477 198.077 324.316 196.165 326.046C194.253 327.775 194.092 330.719 195.821 332.631ZM184.146 343.136C185.746 344.92 188.485 345.059 190.268 343.459C192.051 341.858 192.191 339.119 190.59 337.336C188.99 335.552 186.251 335.413 184.468 337.013C182.685 338.614 182.546 341.353 184.146 343.136ZM172.471 353.642C173.953 355.286 176.488 355.425 178.131 353.943C179.774 352.461 179.914 349.925 178.432 348.282C176.95 346.638 174.415 346.499 172.771 347.981C171.128 349.464 170.988 351.999 172.471 353.642ZM160.795 364.148C162.16 365.663 164.48 365.781 165.994 364.417C167.508 363.052 167.627 360.732 166.263 359.217C164.898 357.703 162.578 357.585 161.064 358.949C159.55 360.313 159.431 362.633 160.795 364.148ZM149.12 374.654C150.355 376.029 152.482 376.136 153.857 374.901C155.232 373.666 155.339 371.539 154.104 370.164C152.869 368.789 150.742 368.681 149.367 369.917C147.993 371.152 147.885 373.279 149.12 374.654ZM137.445 385.16C138.562 386.406 140.474 386.502 141.72 385.385C142.966 384.268 143.063 382.356 141.945 381.11C140.828 379.864 138.917 379.767 137.671 380.884C136.425 382.001 136.328 383.914 137.445 385.16ZM125.77 395.666C126.769 396.772 128.477 396.858 129.583 395.87C130.689 394.881 130.775 393.163 129.787 392.056C128.799 390.95 127.08 390.864 125.974 391.852C124.868 392.84 124.782 394.559 125.77 395.666ZM114.095 406.171C114.975 407.149 116.468 407.224 117.446 406.343C118.423 405.462 118.498 403.969 117.618 402.992C116.737 402.014 115.244 401.939 114.267 402.82C113.289 403.701 113.214 405.194 114.095 406.171ZM102.42 416.677C103.171 417.515 104.471 417.58 105.309 416.828C106.147 416.076 106.211 414.776 105.459 413.938C104.707 413.1 103.408 413.036 102.57 413.788C101.732 414.539 101.668 415.839 102.42 416.677ZM90.7444 427.183C91.3781 427.892 92.4629 427.946 93.1718 427.312C93.8807 426.678 93.9344 425.593 93.3007 424.884C92.667 424.175 91.5821 424.122 90.8732 424.755C90.1644 425.389 90.1106 426.474 90.7444 427.183ZM79.0692 437.689C79.5847 438.258 80.4655 438.301 81.0347 437.796C81.604 437.291 81.6469 436.4 81.1421 435.83C80.6373 435.261 79.7458 435.218 79.1766 435.723C78.6073 436.228 78.5644 437.119 79.0692 437.689ZM67.394 448.195C67.7914 448.635 68.4573 448.667 68.8977 448.27C69.3381 447.872 69.3703 447.206 68.9729 446.766C68.5755 446.326 67.9095 446.293 67.4692 446.691C67.0288 447.088 66.9966 447.754 67.394 448.195ZM211.202 300.694C212.673 303.24 215.917 304.11 218.463 302.639C221.008 301.167 221.878 297.923 220.407 295.377C218.935 292.831 215.691 291.961 213.146 293.433C210.6 294.904 209.73 298.148 211.202 300.694ZM197.604 308.547C198.979 310.931 202.029 311.748 204.424 310.373C206.82 308.998 207.625 305.947 206.25 303.552C204.876 301.156 201.825 300.35 199.43 301.725C197.035 303.1 196.229 306.151 197.604 308.547ZM184.006 316.399C185.295 318.634 188.141 319.396 190.376 318.107C192.61 316.818 193.372 313.971 192.083 311.737C190.794 309.503 187.948 308.74 185.714 310.029C183.48 311.318 182.717 314.165 184.006 316.399ZM170.408 324.252C171.601 326.325 174.254 327.034 176.327 325.842C178.4 324.649 179.108 321.996 177.916 319.923C176.724 317.849 174.071 317.14 171.998 318.333C169.925 319.525 169.216 322.179 170.408 324.252ZM156.811 332.104C157.917 334.016 160.366 334.682 162.288 333.576C164.211 332.469 164.866 330.02 163.76 328.097C162.654 326.175 160.205 325.519 158.282 326.626C156.36 327.732 155.704 330.181 156.811 332.104ZM143.213 339.957C144.233 341.718 146.478 342.32 148.24 341.3C150.001 340.279 150.603 338.034 149.582 336.272C148.562 334.51 146.317 333.909 144.555 334.929C142.794 335.95 142.193 338.195 143.213 339.957ZM129.615 347.809C130.539 349.41 132.59 349.958 134.191 349.034C135.791 348.11 136.339 346.058 135.415 344.458C134.491 342.857 132.44 342.309 130.84 343.233C129.239 344.157 128.691 346.209 129.615 347.809ZM116.017 355.662C116.855 357.112 118.703 357.606 120.153 356.768C121.603 355.93 122.097 354.083 121.259 352.632C120.421 351.182 118.574 350.688 117.124 351.526C115.674 352.364 115.18 354.212 116.017 355.662ZM102.42 363.514C103.161 364.803 104.815 365.244 106.104 364.503C107.393 363.761 107.833 362.107 107.092 360.818C106.351 359.529 104.697 359.089 103.408 359.83C102.119 360.571 101.678 362.225 102.42 363.514ZM88.8218 371.367C89.4769 372.505 90.9269 372.892 92.0655 372.237C93.204 371.582 93.5906 370.132 92.9355 368.993C92.2803 367.854 90.8303 367.467 89.6918 368.123C88.5532 368.778 88.1666 370.228 88.8218 371.367ZM75.224 379.219C75.7932 380.197 77.0392 380.53 78.0166 379.971C78.994 379.413 79.3269 378.156 78.7684 377.178C78.2099 376.201 76.9532 375.868 75.9758 376.426C74.9984 376.985 74.6655 378.242 75.224 379.219ZM61.6262 387.072C62.0988 387.888 63.1514 388.178 63.9677 387.706C64.784 387.233 65.074 386.18 64.6014 385.364C64.1288 384.547 63.0762 384.257 62.2599 384.73C61.4436 385.203 61.1536 386.255 61.6262 387.072ZM48.0284 394.924C48.4151 395.59 49.2636 395.816 49.9295 395.429C50.5955 395.043 50.821 394.194 50.4343 393.528C50.0477 392.862 49.1992 392.636 48.5332 393.023C47.8673 393.41 47.6418 394.258 48.0284 394.924ZM34.4306 402.777C34.7206 403.282 35.3758 403.464 35.8806 403.164C36.3854 402.863 36.568 402.218 36.2673 401.713C35.9666 401.208 35.3221 401.026 34.8173 401.327C34.3125 401.627 34.1299 402.272 34.4306 402.777ZM205.756 288.405C206.658 291.198 209.666 292.724 212.458 291.821C215.251 290.919 216.776 287.911 215.874 285.118C214.972 282.325 211.964 280.8 209.172 281.702C206.379 282.604 204.854 285.612 205.756 288.405ZM190.827 293.261C191.675 295.882 194.489 297.321 197.11 296.462C199.731 295.602 201.17 292.799 200.311 290.178C199.451 287.557 196.648 286.117 194.027 286.976C191.407 287.836 189.967 290.64 190.827 293.261ZM175.897 298.116C176.692 300.565 179.323 301.908 181.772 301.113C184.221 300.318 185.564 297.686 184.769 295.237C183.974 292.788 181.343 291.445 178.894 292.24C176.445 293.035 175.102 295.667 175.897 298.116ZM160.967 302.972C161.708 305.249 164.157 306.495 166.434 305.754C168.711 305.013 169.957 302.563 169.216 300.286C168.475 298.009 166.026 296.763 163.749 297.504C161.472 298.245 160.226 300.694 160.967 302.972ZM146.038 307.827C146.725 309.932 148.981 311.082 151.086 310.405C153.191 309.728 154.34 307.462 153.664 305.356C152.987 303.251 150.721 302.101 148.615 302.778C146.51 303.455 145.361 305.722 146.038 307.827ZM131.108 312.682C131.731 314.616 133.815 315.669 135.748 315.046C137.681 314.423 138.734 312.339 138.111 310.405C137.488 308.472 135.404 307.419 133.471 308.042C131.538 308.665 130.485 310.749 131.108 312.682ZM116.178 317.538C116.748 319.3 118.638 320.266 120.4 319.686C122.161 319.106 123.128 317.226 122.548 315.465C121.968 313.703 120.088 312.736 118.327 313.316C116.565 313.896 115.598 315.776 116.178 317.538ZM101.249 322.393C101.764 323.983 103.472 324.853 105.062 324.338C106.651 323.822 107.521 322.114 107.006 320.524C106.49 318.934 104.783 318.064 103.193 318.58C101.603 319.095 100.733 320.804 101.249 322.393ZM86.3192 327.249C86.781 328.667 88.3062 329.44 89.724 328.978C91.1418 328.516 91.9151 326.991 91.4532 325.573C90.9914 324.155 89.4662 323.382 88.0484 323.844C86.6307 324.305 85.8573 325.831 86.3192 327.249ZM71.3895 332.104C71.7977 333.35 73.1295 334.027 74.3755 333.63C75.6214 333.232 76.298 331.889 75.9006 330.643C75.5032 329.397 74.1606 328.72 72.9147 329.118C71.6688 329.515 70.9921 330.858 71.3895 332.104ZM56.4599 336.96C56.8036 338.034 57.9636 338.625 59.0377 338.27C60.1118 337.916 60.7025 336.766 60.348 335.692C59.9936 334.618 58.8443 334.027 57.7703 334.382C56.6962 334.736 56.1055 335.885 56.4599 336.96ZM41.5303 341.815C41.8203 342.717 42.7977 343.212 43.6892 342.922C44.5806 342.632 45.0854 341.654 44.7954 340.762C44.5054 339.871 43.528 339.366 42.6366 339.656C41.7451 339.946 41.2403 340.924 41.5303 341.815ZM26.6006 346.671C26.8369 347.401 27.621 347.799 28.3514 347.562C29.0817 347.326 29.4791 346.542 29.2429 345.811C29.0066 345.081 28.2225 344.683 27.4921 344.92C26.7617 345.156 26.3643 345.94 26.6006 346.671ZM11.671 351.526C11.8536 352.085 12.4551 352.385 13.0136 352.214C13.5721 352.042 13.8728 351.429 13.701 350.871C13.5291 350.312 12.9169 350.011 12.3584 350.183C11.7999 350.355 11.4991 350.967 11.671 351.526ZM203.028 275.278C203.34 278.2 205.95 280.316 208.871 280.016C211.793 279.715 213.908 277.094 213.608 274.172C213.307 271.25 210.686 269.134 207.765 269.435C204.843 269.735 202.727 272.356 203.028 275.278ZM187.411 276.922C187.701 279.661 190.15 281.648 192.9 281.358C195.649 281.068 197.626 278.619 197.336 275.869C197.046 273.119 194.597 271.143 191.847 271.433C189.097 271.723 187.121 274.172 187.411 276.922ZM171.794 278.565C172.063 281.122 174.361 282.98 176.917 282.712C179.474 282.443 181.332 280.144 181.063 277.588C180.795 275.031 178.496 273.173 175.94 273.441C173.384 273.71 171.525 276.009 171.794 278.565ZM156.177 280.209C156.424 282.594 158.561 284.312 160.946 284.065C163.33 283.818 165.049 281.681 164.802 279.296C164.555 276.911 162.417 275.192 160.033 275.439C157.648 275.686 155.93 277.824 156.177 280.209ZM140.56 281.852C140.796 284.055 142.762 285.655 144.964 285.419C147.165 285.183 148.766 283.217 148.53 281.015C148.293 278.812 146.328 277.212 144.126 277.448C141.924 277.685 140.324 279.65 140.56 281.852ZM124.943 283.496C125.158 285.516 126.962 286.987 128.992 286.772C131.022 286.558 132.483 284.753 132.268 282.723C132.053 280.692 130.249 279.231 128.219 279.446C126.189 279.661 124.728 281.466 124.943 283.496ZM109.326 285.14C109.519 286.977 111.173 288.319 113.01 288.126C114.847 287.933 116.189 286.278 115.996 284.441C115.803 282.604 114.148 281.262 112.312 281.455C110.475 281.648 109.133 283.303 109.326 285.14ZM93.7088 286.783C93.8807 288.448 95.3736 289.651 97.0384 289.479C98.7032 289.308 99.9062 287.814 99.7344 286.149C99.5625 284.484 98.0695 283.281 96.4047 283.453C94.7399 283.625 93.5369 285.118 93.7088 286.783ZM78.0918 288.427C78.2529 289.909 79.574 290.983 81.0562 290.833C82.5384 290.683 83.6125 289.351 83.4621 287.868C83.3118 286.386 81.9799 285.311 80.4977 285.462C79.0155 285.612 77.9414 286.944 78.0918 288.427ZM62.4747 290.07C62.6143 291.37 63.7743 292.315 65.0847 292.186C66.3951 292.058 67.3295 290.887 67.2006 289.576C67.0718 288.266 65.901 287.331 64.5906 287.46C63.2803 287.589 62.3458 288.76 62.4747 290.07ZM46.8577 291.714C46.9758 292.842 47.9855 293.647 49.1025 293.529C50.2195 293.411 51.0358 292.401 50.9177 291.284C50.7995 290.167 49.7899 289.35 48.6729 289.469C47.5558 289.587 46.7395 290.597 46.8577 291.714ZM31.2406 293.357C31.3373 294.303 32.1858 294.99 33.131 294.883C34.0762 294.775 34.7636 293.937 34.6562 292.992C34.5488 292.047 33.711 291.359 32.7658 291.467C31.8206 291.574 31.1332 292.412 31.2406 293.357ZM15.6236 295.001C15.6988 295.764 16.3862 296.322 17.1488 296.236C17.9114 296.15 18.4699 295.474 18.384 294.711C18.298 293.948 17.6214 293.39 16.8588 293.475C16.0962 293.561 15.5377 294.238 15.6236 295.001ZM0.00653985 296.644C0.0709843 297.224 0.58654 297.654 1.17728 297.59C1.76802 297.525 2.18691 297.01 2.12247 296.419C2.05802 295.828 1.54247 295.409 0.951725 295.474C0.360984 295.538 -0.0579046 296.054 0.00653985 296.644ZM203.028 261.851C202.717 264.772 204.843 267.383 207.765 267.694C210.686 268.006 213.296 265.879 213.608 262.957C213.919 260.035 211.793 257.425 208.871 257.113C205.95 256.802 203.34 258.929 203.028 261.851ZM187.411 260.207C187.121 262.946 189.108 265.406 191.847 265.696C194.586 265.986 197.046 263.999 197.336 261.26C197.626 258.521 195.638 256.061 192.9 255.771C190.161 255.481 187.701 257.468 187.411 260.207ZM171.794 258.564C171.525 261.12 173.384 263.419 175.94 263.688C178.496 263.956 180.795 262.098 181.063 259.541C181.332 256.984 179.474 254.686 176.917 254.417C174.361 254.148 172.063 256.007 171.794 258.564ZM156.177 256.92C155.93 259.305 157.659 261.432 160.033 261.689C162.407 261.947 164.544 260.207 164.802 257.833C165.06 255.459 163.32 253.321 160.946 253.064C158.572 252.806 156.435 254.546 156.177 256.92ZM140.56 255.276C140.324 257.479 141.924 259.455 144.126 259.681C146.328 259.906 148.304 258.316 148.53 256.114C148.755 253.912 147.165 251.936 144.964 251.71C142.762 251.484 140.785 253.074 140.56 255.276ZM124.943 253.633C124.728 255.652 126.2 257.468 128.219 257.683C130.238 257.898 132.053 256.426 132.268 254.406C132.483 252.387 131.011 250.571 128.992 250.357C126.973 250.142 125.158 251.613 124.943 253.633ZM109.326 251.989C109.133 253.826 110.464 255.481 112.312 255.674C114.159 255.867 115.803 254.535 115.996 252.688C116.189 250.84 114.857 249.196 113.01 249.003C111.163 248.81 109.519 250.142 109.326 251.989ZM93.7088 250.346C93.5369 252.011 94.7399 253.493 96.4047 253.676C98.0695 253.858 99.5518 252.645 99.7344 250.98C99.917 249.315 98.7032 247.832 97.0384 247.649C95.3736 247.467 93.8914 248.681 93.7088 250.346ZM78.0918 248.702C77.9306 250.185 79.0155 251.517 80.4977 251.667C81.9799 251.817 83.3118 250.743 83.4621 249.261C83.6125 247.778 82.5384 246.446 81.0562 246.296C79.574 246.146 78.2421 247.22 78.0918 248.702ZM62.4747 247.059C62.3351 248.358 63.2803 249.529 64.5906 249.669C65.901 249.809 67.061 248.863 67.2006 247.553C67.3403 246.242 66.3951 245.082 65.0847 244.942C63.7743 244.803 62.6143 245.748 62.4747 247.059ZM46.8577 245.415C46.7395 246.543 47.5558 247.542 48.6729 247.66C49.7899 247.778 50.7995 246.962 50.9177 245.845C51.0358 244.728 50.2195 243.718 49.1025 243.6C47.9855 243.482 46.9758 244.298 46.8577 245.415ZM31.2406 243.772C31.144 244.717 31.8206 245.566 32.7658 245.662C33.711 245.759 34.5595 245.082 34.6562 244.137C34.7529 243.191 34.0762 242.343 33.131 242.246C32.1858 242.15 31.3373 242.826 31.2406 243.772ZM15.6236 242.128C15.5484 242.891 16.0962 243.578 16.8588 243.653C17.6214 243.729 18.3088 243.181 18.384 242.418C18.4591 241.655 17.9114 240.968 17.1488 240.893C16.3862 240.817 15.6988 241.365 15.6236 242.128ZM0.00653985 240.484C-0.0579046 241.065 0.371725 241.591 0.951725 241.655C1.53173 241.72 2.05802 241.29 2.12247 240.71C2.18691 240.13 1.75728 239.604 1.17728 239.539C0.597281 239.475 0.0709843 239.904 0.00653985 240.484ZM205.831 248.67C204.929 251.463 206.454 254.46 209.247 255.373C212.04 256.286 215.036 254.75 215.949 251.957C216.862 249.164 215.326 246.167 212.534 245.254C209.741 244.341 206.744 245.877 205.831 248.67ZM190.902 243.815C190.053 246.436 191.482 249.25 194.103 250.099C196.723 250.947 199.537 249.519 200.386 246.898C201.234 244.276 199.806 241.462 197.185 240.613C194.564 239.765 191.75 241.193 190.902 243.815ZM175.972 238.959C175.177 241.408 176.52 244.04 178.969 244.835C181.418 245.63 184.049 244.287 184.844 241.838C185.639 239.389 184.296 236.757 181.847 235.962C179.398 235.167 176.767 236.51 175.972 238.959ZM161.043 234.104C160.301 236.381 161.547 238.83 163.824 239.571C166.101 240.313 168.55 239.066 169.291 236.789C170.033 234.512 168.787 232.063 166.51 231.321C164.233 230.58 161.784 231.826 161.043 234.104ZM146.113 229.248C145.425 231.354 146.585 233.61 148.691 234.297C150.796 234.985 153.051 233.824 153.739 231.719C154.426 229.613 153.266 227.358 151.161 226.67C149.056 225.983 146.8 227.143 146.113 229.248ZM131.183 224.393C130.56 226.326 131.613 228.4 133.546 229.033C135.48 229.667 137.553 228.604 138.186 226.67C138.82 224.736 137.757 222.663 135.823 222.029C133.89 221.396 131.817 222.459 131.183 224.393ZM116.254 219.537C115.684 221.299 116.64 223.19 118.402 223.759C120.163 224.328 122.054 223.372 122.623 221.611C123.192 219.849 122.236 217.958 120.475 217.389C118.713 216.82 116.823 217.776 116.254 219.537ZM101.324 214.682C100.808 216.272 101.678 217.98 103.268 218.495C104.858 219.011 106.565 218.141 107.081 216.551C107.597 214.961 106.727 213.253 105.137 212.738C103.547 212.222 101.84 213.092 101.324 214.682ZM86.3944 209.826C85.9325 211.244 86.7058 212.77 88.1236 213.232C89.5414 213.694 91.0666 212.92 91.5284 211.502C91.9903 210.084 91.2169 208.559 89.7992 208.097C88.3814 207.635 86.8562 208.408 86.3944 209.826ZM71.4647 204.971C71.0566 206.217 71.744 207.56 72.9899 207.957C74.2358 208.355 75.5784 207.678 75.9758 206.432C76.3732 205.186 75.6966 203.843 74.4506 203.446C73.2047 203.048 71.8621 203.725 71.4647 204.971ZM56.5351 200.115C56.1914 201.19 56.7714 202.339 57.8455 202.694C58.9195 203.048 60.0688 202.457 60.4232 201.383C60.7777 200.309 60.1869 199.159 59.1129 198.805C58.0388 198.45 56.8895 199.041 56.5351 200.115ZM41.6054 195.26C41.3154 196.162 41.8095 197.129 42.7117 197.419C43.614 197.709 44.5806 197.215 44.8706 196.313C45.1606 195.41 44.6666 194.444 43.7643 194.154C42.8621 193.864 41.8954 194.358 41.6054 195.26ZM26.6758 190.405C26.4395 191.135 26.8369 191.919 27.5673 192.156C28.2977 192.392 29.0817 191.994 29.318 191.264C29.5543 190.534 29.1569 189.749 28.4266 189.513C27.6962 189.277 26.9121 189.674 26.6758 190.405ZM11.7462 185.549C11.5636 186.108 11.8751 186.709 12.4336 186.892C12.9921 187.075 13.5936 186.763 13.7762 186.204C13.9588 185.646 13.6473 185.044 13.0888 184.862C12.5302 184.679 11.9288 184.991 11.7462 185.549ZM211.363 236.359C209.891 238.905 210.761 242.15 213.307 243.621C215.853 245.093 219.096 244.223 220.568 241.677C222.039 239.131 221.169 235.887 218.624 234.415C216.078 232.943 212.834 233.814 211.363 236.359ZM197.765 228.507C196.39 230.892 197.207 233.943 199.591 235.328C201.976 236.714 205.026 235.887 206.411 233.502C207.797 231.117 206.97 228.067 204.586 226.681C202.201 225.295 199.151 226.122 197.765 228.507ZM184.167 220.654C182.878 222.889 183.641 225.736 185.875 227.025C188.109 228.314 190.956 227.551 192.244 225.317C193.533 223.082 192.771 220.236 190.537 218.946C188.303 217.657 185.456 218.42 184.167 220.654ZM170.57 212.802C169.377 214.875 170.086 217.529 172.159 218.721C174.232 219.913 176.885 219.204 178.077 217.131C179.27 215.058 178.561 212.404 176.488 211.212C174.415 210.02 171.762 210.729 170.57 212.802ZM156.972 204.949C155.865 206.862 156.521 209.322 158.443 210.428C160.366 211.534 162.815 210.879 163.921 208.956C165.027 207.033 164.372 204.584 162.45 203.478C160.527 202.371 158.078 203.027 156.972 204.949ZM143.374 197.097C142.354 198.859 142.966 201.104 144.717 202.124C146.467 203.145 148.723 202.532 149.743 200.781C150.764 199.031 150.151 196.775 148.401 195.754C146.65 194.734 144.394 195.346 143.374 197.097ZM129.776 189.244C128.853 190.845 129.4 192.897 131.001 193.821C132.601 194.744 134.653 194.197 135.576 192.596C136.5 190.995 135.952 188.944 134.352 188.02C132.751 187.096 130.7 187.644 129.776 189.244ZM116.178 181.392C115.341 182.842 115.835 184.69 117.285 185.528C118.735 186.366 120.582 185.871 121.42 184.421C122.258 182.971 121.764 181.123 120.314 180.285C118.864 179.448 117.016 179.942 116.178 181.392ZM102.581 173.539C101.84 174.828 102.28 176.483 103.569 177.224C104.858 177.965 106.512 177.525 107.253 176.236C107.994 174.947 107.554 173.292 106.265 172.551C104.976 171.81 103.322 172.25 102.581 173.539ZM88.9829 165.687C88.3277 166.826 88.7143 168.276 89.8529 168.931C90.9914 169.586 92.4414 169.2 93.0966 168.061C93.7518 166.922 93.3651 165.472 92.2266 164.817C91.0881 164.161 89.6381 164.548 88.9829 165.687ZM75.3851 157.834C74.8158 158.812 75.1595 160.058 76.1369 160.627C77.1143 161.197 78.3603 160.853 78.9295 159.875C79.4988 158.898 79.1551 157.652 78.1777 157.082C77.2003 156.513 75.9543 156.857 75.3851 157.834ZM61.7873 149.982C61.3147 150.798 61.594 151.851 62.421 152.324C63.248 152.796 64.2899 152.517 64.7625 151.69C65.2351 150.863 64.9558 149.821 64.1288 149.348C63.3018 148.875 62.2599 149.155 61.7873 149.982ZM48.1895 142.129C47.8029 142.795 48.0284 143.644 48.6943 144.031C49.3603 144.417 50.2088 144.192 50.5955 143.526C50.9821 142.86 50.7566 142.011 50.0906 141.624C49.4247 141.238 48.5762 141.463 48.1895 142.129ZM34.5917 134.277C34.3017 134.782 34.4736 135.437 34.9784 135.727C35.4832 136.017 36.1384 135.845 36.4284 135.34C36.7184 134.835 36.5466 134.18 36.0417 133.89C35.5369 133.6 34.8817 133.772 34.5917 134.277ZM219.29 225.478C217.324 227.658 217.496 231.021 219.687 232.986C221.878 234.952 225.229 234.78 227.195 232.589C229.16 230.398 228.988 227.046 226.797 225.08C224.606 223.114 221.255 223.286 219.29 225.478ZM207.614 214.972C205.767 217.024 205.939 220.171 207.98 222.019C210.02 223.866 213.178 223.694 215.026 221.653C216.873 219.612 216.701 216.454 214.66 214.607C212.62 212.759 209.462 212.931 207.614 214.972ZM195.939 204.466C194.221 206.378 194.371 209.332 196.283 211.051C198.195 212.77 201.148 212.619 202.867 210.707C204.586 208.795 204.435 205.841 202.523 204.122C200.611 202.404 197.658 202.554 195.939 204.466ZM184.264 193.96C182.664 195.743 182.803 198.483 184.586 200.083C186.369 201.684 189.108 201.544 190.708 199.761C192.309 197.978 192.169 195.239 190.386 193.638C188.603 192.037 185.864 192.177 184.264 193.96ZM172.589 183.454C171.107 185.098 171.235 187.633 172.89 189.116C174.544 190.598 177.068 190.469 178.55 188.815C180.032 187.16 179.903 184.636 178.249 183.154C176.595 181.671 174.071 181.8 172.589 183.454ZM160.914 172.949C159.55 174.463 159.678 176.784 161.182 178.148C162.686 179.512 165.017 179.383 166.381 177.879C167.745 176.375 167.616 174.044 166.112 172.68C164.608 171.316 162.278 171.445 160.914 172.949ZM149.238 162.443C148.003 163.818 148.111 165.945 149.485 167.18C150.86 168.415 152.987 168.308 154.222 166.933C155.457 165.558 155.35 163.431 153.975 162.196C152.6 160.96 150.474 161.068 149.238 162.443ZM137.563 151.937C136.446 153.183 136.543 155.095 137.789 156.212C139.035 157.33 140.947 157.233 142.064 155.987C143.181 154.741 143.084 152.829 141.838 151.711C140.592 150.594 138.68 150.691 137.563 151.937ZM125.888 141.431C124.889 142.538 124.975 144.246 126.092 145.245C127.209 146.244 128.906 146.158 129.905 145.04C130.904 143.923 130.818 142.226 129.701 141.227C128.584 140.228 126.887 140.314 125.888 141.431ZM114.213 130.925C113.332 131.903 113.418 133.396 114.385 134.277C115.351 135.158 116.855 135.072 117.736 134.105C118.617 133.138 118.531 131.634 117.564 130.753C116.597 129.873 115.094 129.959 114.213 130.925ZM102.538 120.419C101.786 121.257 101.85 122.557 102.688 123.309C103.526 124.061 104.825 123.997 105.577 123.159C106.329 122.321 106.265 121.021 105.427 120.269C104.589 119.517 103.29 119.582 102.538 120.419ZM90.8625 109.914C90.2288 110.623 90.2825 111.708 90.9914 112.341C91.7003 112.975 92.7851 112.921 93.4188 112.212C94.0525 111.503 93.9988 110.419 93.2899 109.785C92.581 109.151 91.4962 109.205 90.8625 109.914ZM79.1873 99.4079C78.6718 99.9772 78.7147 100.858 79.2947 101.374C79.8747 101.889 80.7447 101.846 81.2603 101.266C81.7758 100.686 81.7329 99.816 81.1529 99.3004C80.5729 98.7848 79.7029 98.8278 79.1873 99.4079ZM67.5121 88.902C67.1147 89.3425 67.1577 90.0085 67.5873 90.4059C68.0169 90.8034 68.6936 90.7604 69.091 90.3307C69.4884 89.901 69.4455 89.2243 69.0158 88.8268C68.5862 88.4294 67.9095 88.4723 67.5121 88.902ZM229.214 216.519C226.84 218.248 226.314 221.568 228.033 223.942C229.751 226.316 233.081 226.842 235.454 225.123C237.828 223.404 238.354 220.074 236.636 217.7C234.917 215.326 231.588 214.8 229.214 216.519ZM219.988 203.811C217.754 205.433 217.26 208.548 218.881 210.782C220.503 213.017 223.618 213.511 225.852 211.889C228.086 210.267 228.58 207.152 226.958 204.917C225.337 202.683 222.222 202.189 219.988 203.811ZM210.761 191.103C208.678 192.617 208.216 195.529 209.73 197.613C211.245 199.697 214.156 200.158 216.239 198.644C218.323 197.129 218.785 194.218 217.27 192.134C215.756 190.05 212.845 189.588 210.761 191.103ZM201.535 178.395C199.602 179.802 199.172 182.509 200.579 184.453C201.986 186.398 204.693 186.817 206.637 185.409C208.581 184.002 209 181.295 207.593 179.351C206.186 177.407 203.479 176.988 201.535 178.395ZM192.309 165.687C190.515 166.987 190.118 169.49 191.417 171.284C192.717 173.078 195.22 173.475 197.013 172.175C198.807 170.875 199.204 168.372 197.905 166.579C196.605 164.785 194.103 164.387 192.309 165.687ZM183.083 152.979C181.439 154.171 181.074 156.481 182.266 158.124C183.458 159.768 185.768 160.133 187.411 158.941C189.054 157.748 189.42 155.439 188.227 153.795C187.035 152.152 184.726 151.787 183.083 152.979ZM173.856 140.271C172.363 141.356 172.03 143.461 173.115 144.955C174.2 146.448 176.305 146.781 177.798 145.696C179.291 144.611 179.624 142.505 178.539 141.012C177.454 139.519 175.349 139.186 173.856 140.271ZM164.63 127.563C163.277 128.541 162.976 130.442 163.964 131.795C164.952 133.149 166.843 133.45 168.196 132.461C169.549 131.473 169.85 129.583 168.862 128.229C167.874 126.876 165.983 126.575 164.63 127.563ZM155.404 114.855C154.201 115.736 153.932 117.422 154.802 118.626C155.672 119.829 157.369 120.097 158.572 119.227C159.775 118.357 160.044 116.66 159.174 115.457C158.304 114.254 156.607 113.985 155.404 114.855ZM146.177 102.147C145.114 102.921 144.878 104.403 145.651 105.456C146.424 106.508 147.907 106.755 148.959 105.982C150.012 105.209 150.259 103.726 149.485 102.673C148.712 101.621 147.23 101.374 146.177 102.147ZM136.951 89.4391C136.038 90.1052 135.834 91.3835 136.5 92.2966C137.166 93.2096 138.444 93.4137 139.357 92.7477C140.27 92.0817 140.474 90.8034 139.808 89.8903C139.142 88.9772 137.864 88.7731 136.951 89.4391ZM127.725 76.7312C126.962 77.2897 126.79 78.364 127.349 79.1267C127.907 79.8894 128.981 80.0612 129.744 79.5026C130.507 78.9441 130.678 77.8698 130.12 77.1071C129.561 76.3445 128.487 76.1726 127.725 76.7312ZM118.498 64.0232C117.875 64.4744 117.736 65.3445 118.187 65.9675C118.638 66.5906 119.508 66.7302 120.131 66.2791C120.754 65.8279 120.894 64.9578 120.443 64.3347C119.991 63.7117 119.121 63.572 118.498 64.0232ZM109.272 51.3152C108.8 51.659 108.692 52.325 109.036 52.7977C109.38 53.2703 110.045 53.3777 110.518 53.034C110.991 52.6902 111.098 52.0242 110.754 51.5516C110.411 51.0789 109.745 50.9715 109.272 51.3152ZM240.911 209.773C238.226 210.965 237.023 214.113 238.215 216.787C239.407 219.462 242.554 220.676 245.228 219.484C247.903 218.291 249.117 215.144 247.924 212.469C246.732 209.794 243.585 208.58 240.911 209.773ZM234.52 195.421C232.007 196.538 230.868 199.492 231.996 202.006C233.124 204.52 236.067 205.658 238.58 204.531C241.093 203.403 242.232 200.459 241.104 197.946C239.976 195.432 237.033 194.293 234.52 195.421ZM228.129 181.07C225.777 182.122 224.724 184.872 225.766 187.225C226.808 189.577 229.568 190.63 231.921 189.588C234.273 188.546 235.326 185.785 234.284 183.433C233.242 181.08 230.481 180.028 228.129 181.07ZM221.738 166.718C219.547 167.696 218.57 170.252 219.537 172.444C220.503 174.635 223.07 175.613 225.261 174.646C227.453 173.679 228.43 171.112 227.463 168.92C226.497 166.729 223.93 165.751 221.738 166.718ZM215.348 152.367C213.328 153.269 212.416 155.632 213.318 157.663C214.22 159.693 216.583 160.595 218.613 159.693C220.643 158.79 221.545 156.427 220.643 154.397C219.741 152.367 217.378 151.464 215.348 152.367ZM208.957 138.015C207.099 138.842 206.261 141.023 207.088 142.871C207.915 144.718 210.096 145.567 211.943 144.74C213.79 143.913 214.639 141.732 213.812 139.884C212.985 138.037 210.804 137.188 208.957 138.015ZM202.566 123.664C200.869 124.416 200.117 126.403 200.869 128.089C201.621 129.776 203.608 130.539 205.294 129.787C206.981 129.035 207.743 127.047 206.991 125.361C206.24 123.674 204.253 122.912 202.566 123.664ZM196.176 109.312C194.65 109.989 193.963 111.783 194.64 113.308C195.316 114.834 197.11 115.521 198.635 114.844C200.16 114.168 200.848 112.374 200.171 110.848C199.494 109.323 197.701 108.635 196.176 109.312ZM189.785 94.9606C188.421 95.5621 187.808 97.1627 188.421 98.527C189.033 99.8912 190.623 100.504 191.987 99.8912C193.351 99.2789 193.963 97.6891 193.351 96.3249C192.738 94.9606 191.149 94.3483 189.785 94.9606ZM183.394 80.6091C182.202 81.1462 181.654 82.5427 182.191 83.7458C182.728 84.9489 184.124 85.486 185.327 84.9489C186.53 84.4118 187.067 83.0153 186.53 81.8122C185.993 80.6091 184.597 80.072 183.394 80.6091ZM177.003 66.2576C175.972 66.7195 175.51 67.9226 175.972 68.9538C176.434 69.9851 177.637 70.447 178.668 69.9851C179.699 69.5232 180.161 68.3201 179.699 67.2888C179.237 66.2576 178.034 65.7957 177.003 66.2576ZM170.613 51.9061C169.743 52.2928 169.356 53.3025 169.743 54.1726C170.129 55.0428 171.139 55.4295 172.009 55.0428C172.879 54.656 173.266 53.6463 172.879 52.7762C172.492 51.9061 171.483 51.5193 170.613 51.9061ZM164.222 37.5545C163.524 37.8661 163.201 38.6932 163.513 39.3915C163.824 40.0897 164.651 40.412 165.35 40.1005C166.048 39.7889 166.37 38.9618 166.058 38.2635C165.747 37.5653 164.92 37.243 164.222 37.5545ZM157.831 23.203C157.294 23.4394 157.058 24.0732 157.294 24.6103C157.53 25.1474 158.164 25.3837 158.701 25.1474C159.238 24.911 159.474 24.2773 159.238 23.7402C159.002 23.203 158.368 22.9667 157.831 23.203ZM253.649 205.562C250.781 206.174 248.945 208.999 249.557 211.867C250.169 214.736 252.994 216.572 255.862 215.96C258.73 215.348 260.566 212.523 259.954 209.655C259.342 206.786 256.517 204.949 253.649 205.562ZM250.384 190.2C247.688 190.77 245.97 193.423 246.539 196.119C247.108 198.816 249.761 200.534 252.457 199.965C255.153 199.396 256.871 196.742 256.302 194.046C255.733 191.35 253.08 189.631 250.384 190.2ZM247.119 174.839C244.606 175.376 242.994 177.847 243.531 180.371C244.068 182.896 246.539 184.496 249.063 183.959C251.587 183.422 253.187 180.951 252.65 178.427C252.113 175.903 249.643 174.302 247.119 174.839ZM243.854 159.478C241.512 159.972 240.019 162.282 240.513 164.623C241.007 166.965 243.317 168.458 245.658 167.964C248 167.47 249.493 165.161 248.998 162.819C248.504 160.477 246.195 158.984 243.854 159.478ZM240.588 144.117C238.419 144.579 237.044 146.706 237.506 148.875C237.968 151.045 240.094 152.42 242.264 151.958C244.434 151.497 245.808 149.37 245.347 147.2C244.885 145.03 242.758 143.655 240.588 144.117ZM237.323 128.755C235.336 129.174 234.069 131.129 234.488 133.117C234.907 135.104 236.861 136.372 238.848 135.953C240.836 135.534 242.103 133.579 241.684 131.591C241.265 129.604 239.31 128.336 237.323 128.755ZM234.058 113.394C232.243 113.781 231.094 115.564 231.48 117.369C231.867 119.173 233.65 120.334 235.454 119.947C237.259 119.56 238.419 117.777 238.032 115.972C237.646 114.168 235.863 113.007 234.058 113.394ZM230.793 98.0329C229.16 98.3766 228.118 99.9879 228.462 101.621C228.806 103.254 230.417 104.296 232.05 103.952C233.682 103.608 234.724 101.997 234.38 100.364C234.037 98.7311 232.426 97.6891 230.793 98.0329ZM227.528 82.6716C226.067 82.9831 225.143 84.4118 225.444 85.8727C225.745 87.3337 227.184 88.2575 228.645 87.9567C230.106 87.6559 231.029 86.2165 230.729 84.7555C230.428 83.2946 228.988 82.3708 227.528 82.6716ZM224.263 67.3103C222.984 67.5789 222.168 68.8464 222.437 70.1247C222.705 71.4031 223.973 72.2195 225.251 71.9509C226.529 71.6824 227.345 70.4148 227.077 69.1365C226.808 67.8582 225.541 67.0418 224.263 67.3103ZM220.997 51.949C219.891 52.1854 219.193 53.2703 219.418 54.3767C219.644 55.4832 220.74 56.1814 221.846 55.9558C222.952 55.7303 223.65 54.6346 223.425 53.5281C223.199 52.4217 222.104 51.7235 220.997 51.949ZM217.732 36.5878C216.808 36.7811 216.207 37.6942 216.411 38.6288C216.615 39.5633 217.517 40.1542 218.452 39.9501C219.386 39.746 219.977 38.8436 219.773 37.909C219.569 36.9745 218.667 36.3837 217.732 36.5878ZM214.467 21.2265C213.715 21.3876 213.232 22.1288 213.393 22.8808C213.554 23.6327 214.295 24.1161 215.047 23.955C215.799 23.7939 216.282 23.0527 216.121 22.3007C215.96 21.5488 215.219 21.0654 214.467 21.2265ZM211.202 5.86522C210.633 5.98338 210.257 6.55272 210.386 7.12205C210.514 7.69138 211.073 8.06735 211.642 7.93845C212.211 7.80954 212.587 7.25095 212.458 6.68162C212.33 6.11228 211.771 5.73631 211.202 5.86522ZM267.021 204.165C264.089 204.165 261.705 206.55 261.705 209.483C261.705 212.415 264.089 214.8 267.021 214.8C269.954 214.8 272.338 212.415 272.338 209.483C272.338 206.55 269.954 204.165 267.021 204.165ZM267.021 188.46C264.261 188.46 262.027 190.695 262.027 193.455C262.027 196.216 264.261 198.45 267.021 198.45C269.782 198.45 272.016 196.216 272.016 193.455C272.016 190.695 269.782 188.46 267.021 188.46ZM267.021 172.755C264.444 172.755 262.36 174.839 262.36 177.417C262.36 179.995 264.444 182.079 267.021 182.079C269.599 182.079 271.683 179.995 271.683 177.417C271.683 174.839 269.599 172.755 267.021 172.755ZM267.021 157.05C264.626 157.05 262.682 158.995 262.682 161.39C262.682 163.786 264.626 165.73 267.021 165.73C269.417 165.73 271.361 163.786 271.361 161.39C271.361 158.995 269.417 157.05 267.021 157.05ZM267.021 141.345C264.809 141.345 263.015 143.139 263.015 145.352C263.015 147.565 264.809 149.359 267.021 149.359C269.234 149.359 271.028 147.565 271.028 145.352C271.028 143.139 269.234 141.345 267.021 141.345ZM267.021 125.64C264.991 125.64 263.337 127.284 263.337 129.325C263.337 131.366 264.981 133.009 267.021 133.009C269.062 133.009 270.706 131.366 270.706 129.325C270.706 127.284 269.062 125.64 267.021 125.64ZM267.021 109.935C265.174 109.935 263.67 111.439 263.67 113.287C263.67 115.134 265.174 116.638 267.021 116.638C268.869 116.638 270.373 115.134 270.373 113.287C270.373 111.439 268.869 109.935 267.021 109.935ZM267.021 94.2301C265.346 94.2301 263.993 95.5836 263.993 97.2594C263.993 98.9352 265.346 100.289 267.021 100.289C268.697 100.289 270.05 98.9352 270.05 97.2594C270.05 95.5836 268.697 94.2301 267.021 94.2301ZM267.021 78.5251C265.529 78.5251 264.326 79.739 264.326 81.2214C264.326 82.7038 265.539 83.9177 267.021 83.9177C268.504 83.9177 269.717 82.7038 269.717 81.2214C269.717 79.739 268.504 78.5251 267.021 78.5251ZM267.021 62.8201C265.711 62.8201 264.648 63.8836 264.648 65.1941C264.648 66.5046 265.711 67.5681 267.021 67.5681C268.332 67.5681 269.395 66.5046 269.395 65.1941C269.395 63.8836 268.332 62.8201 267.021 62.8201ZM267.021 47.1151C265.894 47.1151 264.981 48.0282 264.981 49.1561C264.981 50.284 265.894 51.1971 267.021 51.1971C268.149 51.1971 269.062 50.284 269.062 49.1561C269.062 48.0282 268.149 47.1151 267.021 47.1151ZM267.021 31.41C266.076 31.41 265.303 32.1835 265.303 33.1288C265.303 34.0741 266.076 34.8475 267.021 34.8475C267.967 34.8475 268.74 34.0741 268.74 33.1288C268.74 32.1835 267.967 31.41 267.021 31.41ZM267.021 15.705C266.259 15.705 265.636 16.3281 265.636 17.0908C265.636 17.8535 266.259 18.4765 267.021 18.4765C267.784 18.4765 268.407 17.8535 268.407 17.0908C268.407 16.3281 267.784 15.705 267.021 15.705ZM267.021 0C266.431 0 265.958 0.47266 265.958 1.06348C265.958 1.6543 266.431 2.12696 267.021 2.12696C267.612 2.12696 268.085 1.6543 268.085 1.06348C268.085 0.47266 267.612 0 267.021 0ZM280.394 205.572C277.526 204.96 274.701 206.797 274.089 209.665C273.477 212.533 275.313 215.359 278.181 215.971C281.049 216.583 283.874 214.746 284.486 211.878C285.098 209.01 283.261 206.185 280.394 205.572ZM283.659 190.211C280.963 189.642 278.31 191.361 277.741 194.057C277.171 196.753 278.89 199.407 281.586 199.976C284.282 200.545 286.935 198.826 287.504 196.13C288.073 193.434 286.355 190.781 283.659 190.211ZM286.924 174.85C284.411 174.313 281.93 175.924 281.393 178.438C280.856 180.952 282.467 183.433 284.98 183.97C287.493 184.507 289.974 182.896 290.512 180.382C291.049 177.868 289.437 175.387 286.924 174.85ZM290.189 159.489C287.848 158.995 285.549 160.488 285.044 162.829C284.54 165.171 286.043 167.47 288.385 167.975C290.726 168.48 293.025 166.976 293.53 164.634C294.034 162.292 292.531 159.994 290.189 159.489ZM293.454 144.127C291.285 143.666 289.158 145.051 288.696 147.21C288.234 149.37 289.62 151.507 291.779 151.969C293.938 152.431 296.075 151.045 296.537 148.886C296.999 146.727 295.613 144.589 293.454 144.127ZM296.72 128.766C294.733 128.347 292.778 129.615 292.359 131.602C291.94 133.589 293.207 135.544 295.194 135.963C297.181 136.382 299.136 135.115 299.555 133.127C299.974 131.14 298.707 129.185 296.72 128.766ZM299.985 113.405C298.17 113.018 296.397 114.178 296.011 115.983C295.624 117.788 296.784 119.571 298.589 119.958C300.393 120.344 302.176 119.184 302.563 117.379C302.949 115.575 301.789 113.792 299.985 113.405ZM303.25 98.0436C301.617 97.6998 300.006 98.7418 299.663 100.375C299.319 102.007 300.361 103.619 301.993 103.963C303.626 104.306 305.237 103.264 305.581 101.631C305.924 99.9987 304.883 98.3873 303.25 98.0436ZM306.515 82.6823C305.054 82.3708 303.626 83.3054 303.314 84.7663C303.003 86.2272 303.937 87.6559 305.398 87.9675C306.859 88.279 308.287 87.3444 308.599 85.8835C308.91 84.4226 307.976 82.9938 306.515 82.6823ZM309.78 67.3211C308.502 67.0525 307.235 67.8689 306.966 69.1472C306.698 70.4255 307.514 71.6931 308.792 71.9616C310.07 72.2302 311.338 71.4138 311.606 70.1355C311.875 68.8572 311.059 67.5896 309.78 67.3211ZM313.046 51.9598C311.939 51.7234 310.854 52.4324 310.618 53.5389C310.382 54.6453 311.091 55.7303 312.197 55.9666C313.303 56.2029 314.388 55.4939 314.624 54.3875C314.861 53.2811 314.152 52.1961 313.046 51.9598ZM316.311 36.5985C315.387 36.4052 314.474 36.996 314.27 37.9198C314.066 38.8436 314.667 39.7567 315.591 39.9608C316.515 40.1649 317.428 39.5633 317.632 38.6395C317.836 37.7157 317.234 36.8026 316.311 36.5985ZM319.576 21.2372C318.824 21.0761 318.083 21.5595 317.922 22.3114C317.761 23.0634 318.244 23.8046 318.996 23.9657C319.748 24.1269 320.489 23.6435 320.65 22.8915C320.811 22.1396 320.328 21.3983 319.576 21.2372ZM322.841 5.87596C322.272 5.75779 321.703 6.12304 321.584 6.69237C321.466 7.2617 321.832 7.83104 322.401 7.9492C322.97 8.06736 323.539 7.70212 323.657 7.13279C323.776 6.56345 323.41 5.99412 322.841 5.87596ZM293.186 209.74C290.501 208.548 287.364 209.751 286.172 212.437C284.98 215.122 286.183 218.259 288.868 219.451C291.553 220.644 294.69 219.441 295.882 216.755C297.074 214.07 295.871 210.933 293.186 209.74ZM299.577 195.389C297.063 194.272 294.11 195.4 292.993 197.913C291.876 200.427 293.003 203.381 295.517 204.498C298.03 205.615 300.984 204.488 302.101 201.974C303.218 199.46 302.09 196.506 299.577 195.389ZM305.967 181.037C303.615 179.985 300.855 181.037 299.813 183.401C298.771 185.764 299.813 188.514 302.176 189.556C304.539 190.598 307.289 189.556 308.33 187.193C309.372 184.829 308.33 182.079 305.967 181.037ZM312.358 166.686C310.167 165.708 307.611 166.686 306.633 168.888C305.656 171.09 306.633 173.636 308.835 174.614C311.037 175.591 313.583 174.614 314.56 172.411C315.537 170.209 314.56 167.663 312.358 166.686ZM318.749 152.334C316.73 151.432 314.356 152.334 313.454 154.365C312.551 156.395 313.454 158.758 315.484 159.661C317.514 160.563 319.877 159.661 320.779 157.63C321.681 155.6 320.779 153.237 318.749 152.334ZM325.14 137.983C323.281 137.156 321.112 137.983 320.285 139.852C319.458 141.721 320.285 143.88 322.154 144.707C324.023 145.535 326.182 144.707 327.009 142.838C327.836 140.969 327.009 138.81 325.14 137.983ZM331.53 123.631C329.833 122.879 327.857 123.631 327.105 125.329C326.353 127.026 327.105 129.002 328.802 129.754C330.499 130.506 332.476 129.754 333.227 128.057C333.979 126.36 333.227 124.383 331.53 123.631ZM337.921 109.28C336.396 108.603 334.602 109.28 333.926 110.816C333.249 112.352 333.926 114.135 335.462 114.812C336.997 115.489 338.78 114.812 339.457 113.276C340.134 111.74 339.457 109.957 337.921 109.28ZM344.312 94.9284C342.948 94.3268 341.358 94.9284 340.746 96.2926C340.134 97.6569 340.746 99.2467 342.11 99.859C343.474 100.471 345.064 99.859 345.676 98.4948C346.288 97.1305 345.676 95.5407 344.312 94.9284ZM350.703 80.5769C349.51 80.0398 348.103 80.5769 347.566 81.78C347.029 82.9831 347.566 84.3796 348.769 84.9167C349.972 85.4538 351.369 84.9167 351.906 83.7136C352.443 82.5104 351.906 81.114 350.703 80.5769ZM357.093 66.2253C356.062 65.7634 354.849 66.2254 354.397 67.2566C353.946 68.2878 354.397 69.5017 355.429 69.9529C356.46 70.404 357.673 69.9529 358.124 68.9216C358.576 67.8904 358.124 66.6765 357.093 66.2253ZM363.484 51.8738C362.614 51.4871 361.604 51.8738 361.218 52.744C360.831 53.6141 361.218 54.6238 362.088 55.0105C362.958 55.3972 363.967 55.0105 364.354 54.1404C364.741 53.2703 364.354 52.2606 363.484 51.8738ZM369.875 37.5223C369.177 37.2108 368.35 37.5223 368.038 38.2313C367.727 38.9403 368.038 39.7567 368.747 40.0682C369.456 40.3798 370.272 40.0682 370.584 39.3592C370.895 38.6503 370.584 37.8338 369.875 37.5223ZM376.266 23.1708C375.729 22.9345 375.106 23.1708 374.859 23.7079C374.612 24.245 374.859 24.8681 375.396 25.1151C375.933 25.3622 376.556 25.1151 376.803 24.578C377.05 24.0409 376.803 23.4179 376.266 23.1708ZM304.883 216.411C302.509 214.682 299.179 215.208 297.461 217.593C295.742 219.978 296.258 223.297 298.642 225.016C301.027 226.735 304.346 226.219 306.064 223.834C307.783 221.449 307.267 218.13 304.883 216.411ZM314.109 203.703C311.875 202.081 308.76 202.575 307.138 204.81C305.516 207.044 306.01 210.159 308.244 211.781C310.479 213.404 313.593 212.909 315.215 210.675C316.837 208.441 316.343 205.325 314.109 203.703ZM323.335 190.995C321.251 189.481 318.341 189.943 316.826 192.027C315.312 194.111 315.774 197.022 317.857 198.536C319.941 200.051 322.852 199.589 324.366 197.505C325.881 195.421 325.419 192.51 323.335 190.995ZM332.561 178.287C330.628 176.88 327.911 177.31 326.504 179.243C325.097 181.177 325.526 183.895 327.46 185.302C329.393 186.709 332.11 186.28 333.517 184.346C334.924 182.412 334.495 179.695 332.561 178.287ZM341.788 165.579C339.994 164.28 337.492 164.677 336.192 166.471C334.892 168.265 335.29 170.768 337.083 172.068C338.877 173.368 341.38 172.97 342.679 171.176C343.979 169.382 343.582 166.879 341.788 165.579ZM351.014 152.872C349.371 151.679 347.072 152.044 345.869 153.688C344.666 155.331 345.042 157.63 346.686 158.833C348.329 160.037 350.627 159.661 351.83 158.017C353.033 156.373 352.657 154.075 351.014 152.872ZM360.24 140.164C358.747 139.079 356.642 139.412 355.557 140.905C354.473 142.398 354.806 144.503 356.299 145.588C357.792 146.673 359.897 146.34 360.982 144.847C362.066 143.354 361.733 141.249 360.24 140.164ZM369.467 127.456C368.113 126.478 366.223 126.768 365.235 128.122C364.247 129.475 364.547 131.366 365.901 132.354C367.254 133.342 369.145 133.042 370.133 131.688C371.121 130.334 370.82 128.444 369.467 127.456ZM378.693 114.748C377.49 113.867 375.804 114.135 374.923 115.349C374.042 116.563 374.311 118.239 375.524 119.12C376.738 120.001 378.414 119.732 379.295 118.518C380.175 117.304 379.907 115.628 378.693 114.748ZM387.919 102.04C386.856 101.266 385.374 101.503 384.611 102.566C383.849 103.63 384.074 105.112 385.137 105.875C386.201 106.637 387.683 106.412 388.446 105.348C389.208 104.285 388.983 102.802 387.919 102.04ZM397.146 89.3317C396.233 88.6657 394.954 88.8698 394.289 89.7829C393.623 90.696 393.827 91.9743 394.74 92.6403C395.653 93.3063 396.931 93.1022 397.597 92.1891C398.263 91.276 398.059 89.9977 397.146 89.3317ZM406.372 76.6238C405.609 76.0652 404.535 76.237 403.977 76.9997C403.418 77.7624 403.59 78.8366 404.353 79.3952C405.115 79.9538 406.189 79.7819 406.748 79.0192C407.306 78.2565 407.134 77.1824 406.372 76.6238ZM415.598 63.9158C414.975 63.4646 414.105 63.6043 413.654 64.2273C413.203 64.8504 413.343 65.7205 413.966 66.1716C414.589 66.6228 415.459 66.4832 415.91 65.8601C416.361 65.2371 416.221 64.367 415.598 63.9158ZM424.825 51.2078C424.352 50.8641 423.686 50.9715 423.342 51.4442C422.999 51.9168 423.106 52.5828 423.579 52.9266C424.051 53.2703 424.717 53.1629 425.061 52.6903C425.405 52.2176 425.297 51.5516 424.825 51.2078ZM314.829 225.381C312.863 223.2 309.501 223.018 307.321 224.984C305.14 226.949 304.958 230.312 306.923 232.492C308.889 234.673 312.251 234.856 314.431 232.89C316.612 230.924 316.794 227.562 314.829 225.381ZM326.504 214.875C324.656 212.823 321.509 212.662 319.458 214.51C317.406 216.358 317.245 219.505 319.093 221.557C320.94 223.609 324.087 223.77 326.139 221.922C328.19 220.074 328.351 216.927 326.504 214.875ZM338.179 204.369C336.46 202.457 333.507 202.296 331.595 204.026C329.683 205.755 329.522 208.698 331.251 210.611C332.98 212.523 335.923 212.684 337.835 210.954C339.747 209.225 339.908 206.281 338.179 204.369ZM349.854 193.864C348.254 192.08 345.515 191.941 343.732 193.541C341.949 195.142 341.809 197.881 343.41 199.664C345.01 201.447 347.749 201.587 349.532 199.987C351.315 198.386 351.454 195.647 349.854 193.864ZM361.529 183.358C360.047 181.714 357.512 181.575 355.869 183.057C354.226 184.539 354.086 187.075 355.568 188.718C357.05 190.362 359.585 190.501 361.229 189.019C362.872 187.536 363.012 185.001 361.529 183.358ZM373.204 172.852C371.84 171.337 369.52 171.219 368.006 172.583C366.492 173.948 366.373 176.268 367.737 177.783C369.102 179.297 371.422 179.415 372.936 178.051C374.45 176.687 374.569 174.367 373.204 172.852ZM384.88 162.346C383.644 160.971 381.518 160.864 380.143 162.099C378.768 163.334 378.661 165.461 379.896 166.836C381.131 168.211 383.258 168.319 384.633 167.083C386.007 165.848 386.115 163.721 384.88 162.346ZM396.555 151.84C395.438 150.594 393.526 150.498 392.28 151.615C391.034 152.732 390.937 154.644 392.055 155.89C393.172 157.136 395.083 157.233 396.329 156.116C397.575 154.998 397.672 153.086 396.555 151.84ZM408.23 141.334C407.231 140.228 405.523 140.142 404.417 141.13C403.311 142.119 403.225 143.837 404.213 144.944C405.201 146.05 406.92 146.136 408.026 145.148C409.132 144.16 409.218 142.441 408.23 141.334ZM419.905 130.829C419.025 129.851 417.532 129.776 416.554 130.657C415.577 131.538 415.502 133.031 416.382 134.008C417.263 134.986 418.756 135.061 419.733 134.18C420.711 133.299 420.786 131.806 419.905 130.829ZM431.58 120.323C430.829 119.485 429.529 119.42 428.691 120.172C427.853 120.924 427.789 122.224 428.541 123.062C429.293 123.9 430.592 123.964 431.43 123.212C432.268 122.461 432.332 121.161 431.58 120.323ZM443.256 109.817C442.622 109.108 441.537 109.054 440.828 109.688C440.119 110.322 440.066 111.407 440.699 112.116C441.333 112.825 442.418 112.878 443.127 112.245C443.836 111.611 443.889 110.526 443.256 109.817ZM454.931 99.3112C454.415 98.7418 453.535 98.6989 452.965 99.2037C452.396 99.7086 452.353 100.6 452.858 101.17C453.363 101.739 454.254 101.782 454.823 101.277C455.393 100.772 455.436 99.8805 454.931 99.3112ZM466.606 88.8054C466.209 88.3649 465.543 88.3327 465.102 88.7301C464.662 89.1276 464.63 89.7936 465.027 90.234C465.425 90.6745 466.09 90.7067 466.531 90.3092C466.971 89.9118 467.003 89.2458 466.606 88.8054ZM322.798 236.306C321.327 233.76 318.083 232.89 315.537 234.361C312.992 235.833 312.122 239.077 313.593 241.623C315.065 244.169 318.309 245.039 320.854 243.567C323.4 242.096 324.27 238.852 322.798 236.306ZM336.396 228.453C335.021 226.069 331.971 225.252 329.576 226.627C327.18 228.002 326.375 231.053 327.75 233.448C329.124 235.844 332.175 236.65 334.57 235.275C336.965 233.9 337.771 230.849 336.396 228.453ZM349.994 220.601C348.705 218.366 345.859 217.604 343.624 218.893C341.39 220.182 340.628 223.029 341.917 225.263C343.206 227.497 346.052 228.26 348.286 226.971C350.52 225.682 351.283 222.835 349.994 220.601ZM363.592 212.748C362.399 210.675 359.746 209.966 357.673 211.158C355.6 212.351 354.892 215.004 356.084 217.077C357.276 219.151 359.929 219.86 362.002 218.667C364.075 217.475 364.784 214.821 363.592 212.748ZM377.189 204.896C376.083 202.984 373.634 202.318 371.712 203.424C369.789 204.531 369.134 206.98 370.24 208.903C371.346 210.825 373.795 211.481 375.718 210.374C377.64 209.268 378.296 206.819 377.189 204.896ZM390.787 197.043C389.767 195.281 387.522 194.68 385.76 195.7C383.999 196.721 383.397 198.966 384.418 200.728C385.438 202.49 387.683 203.091 389.444 202.071C391.206 201.05 391.807 198.805 390.787 197.043ZM404.385 189.191C403.461 187.59 401.41 187.042 399.809 187.966C398.209 188.89 397.661 190.942 398.585 192.542C399.509 194.143 401.56 194.691 403.16 193.767C404.761 192.843 405.309 190.791 404.385 189.191ZM417.983 181.338C417.145 179.888 415.297 179.394 413.847 180.232C412.397 181.07 411.903 182.917 412.741 184.367C413.579 185.818 415.426 186.312 416.876 185.474C418.326 184.636 418.82 182.788 417.983 181.338ZM431.58 173.486C430.839 172.197 429.185 171.756 427.896 172.497C426.607 173.239 426.167 174.893 426.908 176.182C427.649 177.471 429.303 177.911 430.592 177.17C431.881 176.429 432.322 174.775 431.58 173.486ZM445.178 165.633C444.523 164.495 443.073 164.108 441.935 164.763C440.796 165.418 440.409 166.869 441.065 168.007C441.72 169.146 443.17 169.533 444.308 168.877C445.447 168.222 445.833 166.772 445.178 165.633ZM458.776 157.781C458.207 156.803 456.961 156.47 455.983 157.029C455.006 157.587 454.673 158.844 455.232 159.822C455.79 160.799 457.047 161.132 458.024 160.574C459.002 160.015 459.335 158.758 458.776 157.781ZM472.374 149.928C471.901 149.112 470.849 148.822 470.032 149.294C469.216 149.767 468.926 150.82 469.399 151.636C469.871 152.453 470.924 152.743 471.74 152.27C472.556 151.797 472.846 150.745 472.374 149.928ZM485.972 142.076C485.585 141.41 484.736 141.184 484.07 141.571C483.405 141.958 483.179 142.806 483.566 143.472C483.952 144.138 484.801 144.364 485.467 143.977C486.133 143.59 486.358 142.742 485.972 142.076ZM499.569 134.223C499.279 133.718 498.624 133.536 498.119 133.836C497.615 134.137 497.432 134.782 497.733 135.287C498.033 135.792 498.678 135.974 499.183 135.673C499.688 135.373 499.87 134.728 499.569 134.223ZM328.244 248.595C327.342 245.802 324.334 244.276 321.541 245.179C318.749 246.081 317.224 249.089 318.126 251.882C319.028 254.675 322.036 256.2 324.828 255.298C327.621 254.396 329.146 251.388 328.244 248.595ZM343.173 243.739C342.325 241.118 339.511 239.679 336.89 240.538C334.269 241.398 332.83 244.201 333.689 246.822C334.549 249.443 337.352 250.883 339.973 250.023C342.593 249.164 344.033 246.36 343.173 243.739ZM358.103 238.884C357.308 236.435 354.677 235.092 352.228 235.887C349.779 236.682 348.436 239.314 349.231 241.763C350.026 244.212 352.657 245.555 355.106 244.76C357.555 243.965 358.898 241.333 358.103 238.884ZM373.033 234.028C372.292 231.751 369.843 230.505 367.566 231.246C365.289 231.987 364.043 234.437 364.784 236.714C365.525 238.991 367.974 240.237 370.251 239.496C372.528 238.755 373.774 236.306 373.033 234.028ZM387.962 229.173C387.275 227.068 385.019 225.918 382.914 226.595C380.809 227.272 379.66 229.538 380.336 231.644C381.013 233.749 383.279 234.899 385.384 234.222C387.49 233.545 388.639 231.278 387.962 229.173ZM402.892 224.318C402.269 222.384 400.185 221.331 398.252 221.954C396.319 222.577 395.266 224.661 395.889 226.595C396.512 228.528 398.596 229.581 400.529 228.958C402.462 228.335 403.515 226.251 402.892 224.318ZM417.822 219.462C417.252 217.7 415.362 216.734 413.6 217.314C411.839 217.894 410.872 219.774 411.452 221.535C412.032 223.297 413.912 224.264 415.673 223.684C417.435 223.104 418.402 221.224 417.822 219.462ZM432.751 214.607C432.236 213.017 430.528 212.147 428.938 212.662C427.349 213.178 426.479 214.886 426.994 216.476C427.51 218.066 429.217 218.936 430.807 218.42C432.397 217.905 433.267 216.196 432.751 214.607ZM447.681 209.751C447.219 208.333 445.694 207.56 444.276 208.022C442.858 208.484 442.085 210.009 442.547 211.427C443.009 212.845 444.534 213.618 445.952 213.156C447.369 212.695 448.143 211.169 447.681 209.751ZM462.61 204.896C462.202 203.65 460.87 202.973 459.625 203.37C458.379 203.768 457.702 205.111 458.099 206.357C458.497 207.603 459.839 208.279 461.085 207.882C462.331 207.485 463.008 206.142 462.61 204.896ZM477.54 200.04C477.196 198.966 476.036 198.375 474.962 198.73C473.888 199.084 473.298 200.234 473.652 201.308C474.006 202.382 475.156 202.973 476.23 202.618C477.304 202.264 477.895 201.115 477.54 200.04ZM492.47 195.185C492.18 194.283 491.202 193.788 490.311 194.078C489.419 194.368 488.915 195.346 489.205 196.238C489.495 197.129 490.472 197.634 491.363 197.344C492.255 197.054 492.76 196.076 492.47 195.185ZM507.399 190.329C507.163 189.599 506.379 189.201 505.649 189.438C504.918 189.674 504.521 190.458 504.757 191.189C504.993 191.919 505.778 192.317 506.508 192.08C507.238 191.844 507.636 191.06 507.399 190.329ZM522.329 185.474C522.146 184.915 521.545 184.615 520.986 184.786C520.428 184.958 520.127 185.571 520.299 186.129C520.471 186.688 521.083 186.989 521.642 186.817C522.2 186.645 522.501 186.033 522.329 185.474ZM330.972 261.722C330.66 258.8 328.05 256.684 325.129 256.984C322.207 257.285 320.091 259.906 320.392 262.828C320.693 265.75 323.314 267.866 326.235 267.565C329.157 267.265 331.273 264.644 330.972 261.722ZM346.589 260.078C346.299 257.339 343.85 255.352 341.1 255.642C338.351 255.932 336.374 258.381 336.664 261.131C336.954 263.881 339.403 265.857 342.153 265.567C344.903 265.277 346.879 262.828 346.589 260.078ZM362.206 258.435C361.937 255.878 359.639 254.02 357.083 254.288C354.526 254.557 352.668 256.855 352.937 259.412C353.205 261.969 355.504 263.827 358.06 263.559C360.616 263.29 362.475 260.991 362.206 258.435ZM377.823 256.791C377.576 254.406 375.439 252.688 373.054 252.935C370.67 253.182 368.951 255.319 369.198 257.704C369.445 260.089 371.583 261.808 373.967 261.561C376.352 261.314 378.07 259.176 377.823 256.791ZM393.44 255.147C393.204 252.945 391.238 251.345 389.036 251.581C386.835 251.817 385.234 253.783 385.47 255.985C385.707 258.188 387.672 259.788 389.874 259.552C392.076 259.315 393.676 257.35 393.44 255.147ZM409.057 253.504C408.842 251.484 407.038 250.013 405.008 250.228C402.978 250.442 401.517 252.247 401.732 254.277C401.947 256.308 403.751 257.769 405.781 257.554C407.811 257.339 409.272 255.534 409.057 253.504ZM424.674 251.86C424.481 250.023 422.827 248.681 420.99 248.874C419.153 249.067 417.811 250.722 418.004 252.559C418.197 254.396 419.852 255.738 421.688 255.545C423.525 255.352 424.867 253.697 424.674 251.86ZM440.291 250.217C440.119 248.552 438.626 247.349 436.962 247.521C435.297 247.692 434.094 249.186 434.266 250.851C434.437 252.516 435.93 253.719 437.595 253.547C439.26 253.375 440.463 251.882 440.291 250.217ZM455.908 248.573C455.747 247.091 454.426 246.017 452.944 246.167C451.462 246.317 450.387 247.65 450.538 249.132C450.688 250.614 452.02 251.689 453.502 251.538C454.985 251.388 456.059 250.056 455.908 248.573ZM471.525 246.93C471.386 245.63 470.226 244.685 468.915 244.814C467.605 244.942 466.67 246.113 466.799 247.424C466.928 248.734 468.099 249.669 469.409 249.54C470.72 249.411 471.654 248.24 471.525 246.93ZM487.142 245.286C487.024 244.158 486.015 243.353 484.897 243.471C483.78 243.589 482.964 244.599 483.082 245.716C483.2 246.833 484.21 247.649 485.327 247.531C486.444 247.413 487.26 246.403 487.142 245.286ZM502.759 243.643C502.663 242.697 501.814 242.01 500.869 242.117C499.924 242.225 499.236 243.063 499.344 244.008C499.451 244.953 500.289 245.641 501.234 245.533C502.179 245.426 502.867 244.588 502.759 243.643ZM518.376 241.999C518.301 241.236 517.614 240.678 516.851 240.764C516.089 240.85 515.53 241.526 515.616 242.289C515.702 243.052 516.379 243.61 517.141 243.525C517.904 243.439 518.462 242.762 518.376 241.999ZM533.993 240.356C533.929 239.775 533.413 239.346 532.823 239.41C532.232 239.475 531.813 239.99 531.878 240.581C531.942 241.172 532.458 241.591 533.048 241.526C533.639 241.462 534.058 240.946 533.993 240.356ZM330.972 275.149C331.283 272.228 329.157 269.617 326.235 269.306C323.314 268.994 320.704 271.121 320.392 274.043C320.081 276.965 322.207 279.575 325.129 279.887C328.05 280.198 330.66 278.071 330.972 275.149ZM346.589 276.793C346.879 274.054 344.892 271.594 342.153 271.304C339.414 271.014 336.954 273.001 336.664 275.74C336.374 278.479 338.362 280.939 341.1 281.229C343.839 281.52 346.299 279.532 346.589 276.793ZM362.206 278.436C362.475 275.88 360.616 273.581 358.06 273.312C355.504 273.044 353.205 274.902 352.937 277.459C352.668 280.016 354.526 282.314 357.083 282.583C359.639 282.852 361.937 280.993 362.206 278.436ZM377.823 280.08C378.07 277.695 376.341 275.568 373.967 275.311C371.593 275.053 369.456 276.793 369.198 279.167C368.94 281.541 370.68 283.679 373.054 283.936C375.428 284.194 377.565 282.454 377.823 280.08ZM393.44 281.724C393.676 279.521 392.076 277.545 389.874 277.319C387.672 277.094 385.696 278.684 385.47 280.886C385.245 283.088 386.835 285.064 389.036 285.29C391.238 285.516 393.215 283.926 393.44 281.724ZM409.057 283.367C409.272 281.348 407.8 279.532 405.781 279.317C403.762 279.102 401.947 280.574 401.732 282.594C401.517 284.613 402.989 286.429 405.008 286.643C407.027 286.858 408.842 285.387 409.057 283.367ZM424.674 285.011C424.867 283.174 423.536 281.52 421.688 281.326C419.841 281.133 418.197 282.465 418.004 284.312C417.811 286.16 419.143 287.804 420.99 287.997C422.837 288.19 424.481 286.858 424.674 285.011ZM440.291 286.654C440.463 284.989 439.26 283.507 437.595 283.324C435.93 283.142 434.448 284.355 434.266 286.02C434.083 287.685 435.297 289.168 436.962 289.351C438.626 289.533 440.109 288.319 440.291 286.654ZM455.908 288.298C456.069 286.815 454.985 285.483 453.502 285.333C452.02 285.183 450.688 286.257 450.538 287.739C450.387 289.222 451.462 290.554 452.944 290.704C454.426 290.854 455.758 289.78 455.908 288.298ZM471.525 289.941C471.665 288.642 470.72 287.471 469.409 287.331C468.099 287.191 466.939 288.137 466.799 289.447C466.66 290.758 467.605 291.918 468.915 292.057C470.226 292.197 471.386 291.252 471.525 289.941ZM487.142 291.585C487.26 290.457 486.444 289.458 485.327 289.34C484.21 289.222 483.2 290.038 483.082 291.155C482.964 292.272 483.78 293.282 484.897 293.4C486.015 293.518 487.024 292.702 487.142 291.585ZM502.759 293.228C502.856 292.283 502.179 291.434 501.234 291.338C500.289 291.241 499.44 291.918 499.344 292.863C499.247 293.808 499.924 294.657 500.869 294.754C501.814 294.85 502.663 294.174 502.759 293.228ZM518.376 294.872C518.452 294.109 517.904 293.422 517.141 293.347C516.379 293.271 515.691 293.819 515.616 294.582C515.541 295.345 516.089 296.032 516.851 296.107C517.614 296.182 518.301 295.635 518.376 294.872ZM533.993 296.516C534.058 295.935 533.628 295.409 533.048 295.345C532.468 295.28 531.942 295.71 531.878 296.29C531.813 296.87 532.243 297.396 532.823 297.461C533.403 297.525 533.929 297.096 533.993 296.516ZM328.169 288.33C329.071 285.537 327.546 282.54 324.753 281.627C321.96 280.714 318.964 282.25 318.051 285.043C317.138 287.836 318.674 290.833 321.466 291.746C324.259 292.659 327.256 291.123 328.169 288.33ZM343.098 293.185C343.947 290.564 342.518 287.75 339.897 286.901C337.277 286.053 334.463 287.481 333.614 290.102C332.766 292.724 334.194 295.538 336.815 296.387C339.436 297.235 342.25 295.807 343.098 293.185ZM358.028 298.041C358.823 295.592 357.48 292.96 355.031 292.165C352.582 291.37 349.951 292.713 349.156 295.162C348.361 297.611 349.704 300.243 352.153 301.038C354.602 301.833 357.233 300.49 358.028 298.041ZM372.957 302.896C373.699 300.619 372.453 298.17 370.176 297.429C367.899 296.687 365.45 297.934 364.709 300.211C363.967 302.488 365.213 304.937 367.49 305.679C369.767 306.42 372.216 305.174 372.957 302.896ZM387.887 307.752C388.574 305.646 387.415 303.391 385.309 302.703C383.204 302.016 380.949 303.176 380.261 305.281C379.574 307.387 380.734 309.642 382.839 310.33C384.944 311.017 387.2 309.857 387.887 307.752ZM402.817 312.607C403.44 310.674 402.387 308.6 400.454 307.967C398.52 307.333 396.447 308.396 395.814 310.33C395.18 312.263 396.243 314.337 398.177 314.971C400.11 315.604 402.183 314.541 402.817 312.607ZM417.746 317.463C418.316 315.701 417.36 313.81 415.598 313.241C413.837 312.672 411.946 313.628 411.377 315.389C410.808 317.151 411.764 319.042 413.525 319.611C415.287 320.18 417.177 319.224 417.746 317.463ZM432.676 322.318C433.192 320.728 432.322 319.02 430.732 318.505C429.142 317.989 427.435 318.859 426.919 320.449C426.403 322.039 427.273 323.747 428.863 324.262C430.453 324.778 432.16 323.908 432.676 322.318ZM447.606 327.174C448.067 325.756 447.294 324.23 445.876 323.768C444.459 323.306 442.933 324.08 442.472 325.498C442.01 326.916 442.783 328.441 444.201 328.903C445.619 329.365 447.144 328.592 447.606 327.174ZM462.535 332.029C462.943 330.783 462.256 329.44 461.01 329.043C459.764 328.645 458.422 329.322 458.024 330.568C457.627 331.814 458.303 333.157 459.549 333.554C460.795 333.952 462.138 333.275 462.535 332.029ZM477.465 336.885C477.809 335.81 477.229 334.661 476.155 334.306C475.08 333.952 473.931 334.543 473.577 335.617C473.222 336.691 473.813 337.841 474.887 338.195C475.961 338.55 477.11 337.959 477.465 336.885ZM492.395 341.74C492.685 340.838 492.19 339.871 491.288 339.581C490.386 339.291 489.419 339.785 489.129 340.687C488.839 341.59 489.333 342.556 490.236 342.846C491.138 343.136 492.105 342.642 492.395 341.74ZM507.324 346.595C507.56 345.865 507.163 345.081 506.433 344.844C505.702 344.608 504.918 345.006 504.682 345.736C504.446 346.467 504.843 347.251 505.573 347.487C506.304 347.723 507.088 347.326 507.324 346.595ZM522.254 351.451C522.436 350.892 522.125 350.291 521.566 350.108C521.008 349.925 520.406 350.237 520.224 350.796C520.041 351.354 520.353 351.956 520.911 352.138C521.47 352.321 522.071 352.009 522.254 351.451ZM322.626 300.641C324.098 298.095 323.228 294.85 320.682 293.379C318.137 291.907 314.893 292.777 313.422 295.323C311.95 297.869 312.82 301.113 315.366 302.585C317.911 304.057 321.155 303.186 322.626 300.641ZM336.224 308.493C337.599 306.108 336.783 303.057 334.398 301.672C332.014 300.286 328.963 301.113 327.578 303.498C326.192 305.883 327.019 308.933 329.404 310.319C331.788 311.705 334.839 310.878 336.224 308.493ZM349.822 316.346C351.111 314.111 350.348 311.265 348.114 309.975C345.88 308.686 343.034 309.449 341.745 311.683C340.456 313.918 341.219 316.764 343.453 318.053C345.687 319.343 348.533 318.58 349.822 316.346ZM363.42 324.198C364.612 322.125 363.903 319.472 361.83 318.279C359.757 317.087 357.104 317.796 355.912 319.869C354.72 321.942 355.429 324.595 357.502 325.788C359.574 326.98 362.227 326.271 363.42 324.198ZM377.017 332.051C378.124 330.138 377.469 327.678 375.546 326.572C373.623 325.466 371.174 326.121 370.068 328.044C368.962 329.967 369.617 332.416 371.54 333.522C373.462 334.629 375.911 333.973 377.017 332.051ZM390.615 339.903C391.636 338.141 391.023 335.896 389.273 334.876C387.522 333.855 385.266 334.468 384.246 336.219C383.226 337.969 383.838 340.225 385.589 341.246C387.339 342.266 389.595 341.654 390.615 339.903ZM404.213 347.756C405.137 346.155 404.589 344.103 402.989 343.179C401.388 342.256 399.337 342.803 398.413 344.404C397.489 346.005 398.037 348.056 399.637 348.98C401.238 349.904 403.289 349.356 404.213 347.756ZM417.811 355.608C418.649 354.158 418.155 352.31 416.704 351.472C415.254 350.635 413.407 351.129 412.569 352.579C411.732 354.029 412.226 355.877 413.676 356.715C415.126 357.552 416.973 357.058 417.811 355.608ZM431.409 363.461C432.15 362.172 431.709 360.517 430.42 359.776C429.132 359.035 427.477 359.475 426.736 360.764C425.995 362.053 426.436 363.708 427.725 364.449C429.013 365.19 430.667 364.75 431.409 363.461ZM445.006 371.313C445.662 370.174 445.275 368.724 444.136 368.069C442.998 367.414 441.548 367.8 440.893 368.939C440.237 370.078 440.624 371.528 441.763 372.183C442.901 372.838 444.351 372.452 445.006 371.313ZM458.604 379.166C459.173 378.188 458.83 376.942 457.852 376.373C456.875 375.803 455.629 376.147 455.06 377.125C454.49 378.102 454.834 379.348 455.812 379.918C456.789 380.487 458.035 380.143 458.604 379.166ZM472.202 387.018C472.675 386.202 472.395 385.149 471.568 384.676C470.741 384.204 469.699 384.483 469.227 385.31C468.754 386.137 469.033 387.179 469.861 387.652C470.688 388.125 471.729 387.845 472.202 387.018ZM485.8 394.871C486.186 394.205 485.961 393.356 485.295 392.969C484.629 392.583 483.78 392.808 483.394 393.474C483.007 394.14 483.233 394.989 483.899 395.376C484.565 395.762 485.413 395.537 485.8 394.871ZM499.398 402.723C499.688 402.218 499.516 401.563 499.011 401.273C498.506 400.983 497.851 401.155 497.561 401.66C497.271 402.165 497.443 402.82 497.948 403.11C498.452 403.4 499.108 403.228 499.398 402.723ZM314.7 311.522C316.665 309.342 316.493 305.979 314.302 304.013C312.111 302.048 308.76 302.22 306.794 304.411C304.829 306.602 305.001 309.954 307.192 311.92C309.383 313.886 312.734 313.714 314.7 311.522ZM326.375 322.028C328.222 319.976 328.05 316.829 326.01 314.981C323.969 313.134 320.811 313.306 318.964 315.347C317.116 317.388 317.288 320.546 319.329 322.393C321.37 324.241 324.527 324.069 326.375 322.028ZM338.05 332.534C339.769 330.622 339.618 327.668 337.706 325.949C335.794 324.23 332.841 324.381 331.122 326.293C329.404 328.205 329.554 331.159 331.466 332.878C333.378 334.596 336.332 334.446 338.05 332.534ZM349.725 343.04C351.326 341.257 351.186 338.517 349.403 336.917C347.62 335.316 344.881 335.456 343.281 337.239C341.68 339.022 341.82 341.761 343.603 343.362C345.386 344.963 348.125 344.823 349.725 343.04ZM361.4 353.546C362.883 351.902 362.754 349.367 361.1 347.884C359.446 346.402 356.922 346.531 355.439 348.185C353.957 349.84 354.086 352.364 355.74 353.846C357.394 355.329 359.918 355.2 361.4 353.546ZM373.076 364.051C374.44 362.537 374.311 360.216 372.807 358.852C371.303 357.488 368.973 357.617 367.609 359.121C366.245 360.625 366.373 362.956 367.877 364.32C369.381 365.684 371.712 365.555 373.076 364.051ZM384.751 374.557C385.986 373.182 385.879 371.055 384.504 369.82C383.129 368.585 381.002 368.692 379.767 370.067C378.532 371.442 378.639 373.569 380.014 374.804C381.389 376.04 383.516 375.932 384.751 374.557ZM396.426 385.063C397.543 383.817 397.446 381.905 396.2 380.788C394.954 379.671 393.043 379.767 391.926 381.013C390.809 382.259 390.905 384.171 392.151 385.289C393.397 386.406 395.309 386.309 396.426 385.063ZM408.101 395.569C409.1 394.462 409.014 392.754 407.897 391.755C406.78 390.756 405.083 390.842 404.084 391.959C403.085 393.077 403.171 394.774 404.288 395.773C405.405 396.772 407.102 396.686 408.101 395.569ZM419.776 406.075C420.657 405.097 420.571 403.604 419.605 402.723C418.638 401.842 417.134 401.928 416.253 402.895C415.373 403.862 415.459 405.366 416.425 406.247C417.392 407.127 418.896 407.041 419.776 406.075ZM431.452 416.581C432.203 415.743 432.139 414.443 431.301 413.691C430.463 412.939 429.164 413.003 428.412 413.841C427.66 414.679 427.725 415.979 428.562 416.731C429.4 417.483 430.7 417.418 431.452 416.581ZM443.127 427.086C443.76 426.377 443.707 425.292 442.998 424.659C442.289 424.025 441.204 424.079 440.57 424.788C439.937 425.497 439.99 426.581 440.699 427.215C441.408 427.849 442.493 427.795 443.127 427.086ZM454.802 437.592C455.317 437.023 455.275 436.142 454.695 435.626C454.115 435.111 453.245 435.154 452.729 435.734C452.213 436.314 452.256 437.184 452.836 437.7C453.416 438.215 454.286 438.172 454.802 437.592ZM466.477 448.098C466.875 447.658 466.832 446.992 466.402 446.594C465.972 446.197 465.296 446.24 464.898 446.669C464.501 447.099 464.544 447.776 464.973 448.173C465.403 448.571 466.08 448.528 466.477 448.098ZM304.775 320.481C307.149 318.752 307.675 315.432 305.957 313.058C304.238 310.684 300.909 310.158 298.535 311.877C296.161 313.596 295.635 316.926 297.353 319.3C299.072 321.674 302.402 322.2 304.775 320.481ZM314.002 333.189C316.236 331.567 316.73 328.452 315.108 326.218C313.486 323.983 310.371 323.489 308.137 325.111C305.903 326.733 305.409 329.848 307.031 332.083C308.653 334.317 311.767 334.811 314.002 333.189ZM323.228 345.897C325.311 344.383 325.773 341.471 324.259 339.387C322.744 337.303 319.834 336.842 317.75 338.356C315.666 339.871 315.204 342.782 316.719 344.866C318.233 346.95 321.144 347.412 323.228 345.897ZM332.454 358.605C334.387 357.198 334.817 354.491 333.41 352.547C332.003 350.602 329.296 350.183 327.352 351.591C325.408 352.998 324.989 355.705 326.396 357.649C327.803 359.593 330.51 360.012 332.454 358.605ZM341.68 371.313C343.474 370.013 343.872 367.51 342.572 365.716C341.272 363.922 338.77 363.525 336.976 364.825C335.182 366.125 334.785 368.628 336.084 370.422C337.384 372.215 339.887 372.613 341.68 371.313ZM350.907 384.021C352.55 382.829 352.915 380.519 351.723 378.876C350.531 377.232 348.221 376.867 346.578 378.059C344.935 379.252 344.57 381.561 345.762 383.205C346.954 384.848 349.263 385.213 350.907 384.021ZM360.133 396.729C361.626 395.644 361.959 393.539 360.874 392.045C359.789 390.552 357.684 390.219 356.191 391.304C354.698 392.389 354.365 394.495 355.45 395.988C356.535 397.481 358.64 397.814 360.133 396.729ZM369.359 409.437C370.713 408.459 371.013 406.558 370.025 405.205C369.037 403.851 367.147 403.55 365.793 404.539C364.44 405.527 364.139 407.417 365.127 408.771C366.116 410.124 368.006 410.425 369.359 409.437ZM378.586 422.145C379.789 421.264 380.057 419.578 379.187 418.374C378.317 417.171 376.62 416.903 375.417 417.773C374.214 418.643 373.946 420.34 374.816 421.543C375.686 422.747 377.383 423.015 378.586 422.145ZM387.812 434.853C388.875 434.079 389.112 432.597 388.338 431.544C387.565 430.492 386.083 430.245 385.03 431.018C383.977 431.791 383.73 433.274 384.504 434.327C385.277 435.379 386.759 435.626 387.812 434.853ZM397.038 447.561C397.951 446.895 398.155 445.617 397.489 444.703C396.823 443.79 395.545 443.586 394.632 444.252C393.719 444.918 393.515 446.197 394.181 447.11C394.847 448.023 396.125 448.227 397.038 447.561ZM406.264 460.269C407.027 459.71 407.199 458.636 406.64 457.873C406.082 457.111 405.008 456.939 404.245 457.497C403.483 458.056 403.311 459.13 403.869 459.893C404.428 460.656 405.502 460.827 406.264 460.269ZM415.491 472.977C416.114 472.526 416.253 471.656 415.802 471.032C415.351 470.409 414.481 470.27 413.858 470.721C413.235 471.172 413.096 472.042 413.547 472.665C413.998 473.288 414.868 473.428 415.491 472.977ZM424.717 485.685C425.19 485.341 425.297 484.675 424.953 484.202C424.61 483.73 423.944 483.622 423.471 483.966C422.999 484.31 422.891 484.976 423.235 485.448C423.579 485.921 424.245 486.028 424.717 485.685ZM293.079 327.227C295.764 326.035 296.967 322.888 295.774 320.213C294.582 317.538 291.435 316.324 288.761 317.516C286.086 318.709 284.873 321.856 286.065 324.531C287.257 327.206 290.404 328.42 293.079 327.227ZM299.469 341.579C301.983 340.462 303.121 337.508 301.993 334.994C300.866 332.48 297.923 331.342 295.409 332.47C292.896 333.597 291.757 336.541 292.885 339.054C294.013 341.568 296.956 342.707 299.469 341.579ZM305.86 355.93C308.212 354.878 309.265 352.128 308.223 349.775C307.181 347.423 304.421 346.37 302.069 347.412C299.716 348.454 298.664 351.215 299.706 353.567C300.747 355.92 303.508 356.972 305.86 355.93ZM312.251 370.282C314.442 369.304 315.419 366.748 314.453 364.556C313.486 362.365 310.919 361.387 308.728 362.354C306.537 363.321 305.559 365.888 306.526 368.08C307.493 370.271 310.06 371.249 312.251 370.282ZM318.642 384.633C320.661 383.731 321.574 381.368 320.671 379.337C319.769 377.307 317.406 376.405 315.376 377.307C313.346 378.21 312.444 380.573 313.346 382.603C314.249 384.633 316.612 385.536 318.642 384.633ZM325.032 398.985C326.89 398.158 327.728 395.977 326.901 394.129C326.074 392.282 323.894 391.433 322.046 392.26C320.199 393.087 319.35 395.268 320.177 397.116C321.004 398.963 323.185 399.812 325.032 398.985ZM331.423 413.336C333.12 412.584 333.872 410.597 333.12 408.911C332.368 407.224 330.381 406.461 328.695 407.213C327.009 407.965 326.246 409.953 326.998 411.639C327.75 413.326 329.737 414.088 331.423 413.336ZM337.814 427.688C339.339 427.011 340.026 425.217 339.35 423.692C338.673 422.166 336.879 421.479 335.354 422.156C333.829 422.832 333.142 424.626 333.818 426.152C334.495 427.677 336.289 428.365 337.814 427.688ZM344.204 442.039C345.569 441.438 346.181 439.837 345.569 438.473C344.956 437.109 343.367 436.496 342.003 437.109C340.639 437.721 340.026 439.311 340.639 440.675C341.251 442.039 342.84 442.652 344.204 442.039ZM350.595 456.391C351.787 455.854 352.335 454.457 351.798 453.254C351.261 452.051 349.865 451.514 348.662 452.051C347.459 452.588 346.922 453.985 347.459 455.188C347.996 456.391 349.392 456.928 350.595 456.391ZM356.986 470.742C358.017 470.281 358.479 469.077 358.017 468.046C357.555 467.015 356.352 466.553 355.321 467.015C354.29 467.477 353.828 468.68 354.29 469.711C354.752 470.742 355.955 471.204 356.986 470.742ZM363.377 485.094C364.247 484.707 364.633 483.697 364.247 482.827C363.86 481.957 362.85 481.571 361.98 481.957C361.11 482.344 360.724 483.354 361.11 484.224C361.497 485.094 362.507 485.481 363.377 485.094ZM369.767 499.445C370.466 499.134 370.788 498.307 370.476 497.609C370.165 496.91 369.338 496.588 368.64 496.9C367.942 497.211 367.619 498.038 367.931 498.736C368.242 499.435 369.069 499.757 369.767 499.445ZM376.158 513.797C376.695 513.561 376.932 512.927 376.695 512.39C376.459 511.853 375.825 511.616 375.288 511.853C374.751 512.089 374.515 512.723 374.751 513.26C374.987 513.797 375.621 514.033 376.158 513.797ZM280.34 331.438C283.208 330.826 285.044 328.001 284.432 325.133C283.82 322.264 280.995 320.428 278.127 321.04C275.26 321.652 273.423 324.477 274.035 327.345C274.647 330.214 277.472 332.051 280.34 331.438ZM283.605 346.799C286.301 346.23 288.02 343.577 287.45 340.881C286.881 338.184 284.228 336.466 281.532 337.035C278.836 337.604 277.118 340.258 277.687 342.954C278.256 345.65 280.909 347.369 283.605 346.799ZM286.87 362.161C289.384 361.624 290.995 359.153 290.458 356.629C289.921 354.104 287.45 352.504 284.926 353.041C282.402 353.578 280.802 356.049 281.339 358.573C281.876 361.097 284.346 362.698 286.87 362.161ZM290.136 377.522C292.477 377.028 293.97 374.718 293.476 372.377C292.982 370.035 290.673 368.542 288.331 369.036C285.99 369.53 284.497 371.839 284.991 374.181C285.485 376.523 287.794 378.016 290.136 377.522ZM293.401 392.883C295.57 392.421 296.945 390.295 296.483 388.125C296.021 385.955 293.895 384.58 291.725 385.042C289.556 385.504 288.181 387.63 288.643 389.8C289.104 391.97 291.231 393.345 293.401 392.883ZM296.666 408.245C298.653 407.826 299.92 405.871 299.501 403.883C299.083 401.896 297.128 400.628 295.141 401.047C293.154 401.466 291.886 403.421 292.305 405.409C292.724 407.396 294.679 408.664 296.666 408.245ZM299.931 423.606C301.746 423.219 302.896 421.436 302.509 419.631C302.122 417.827 300.339 416.666 298.535 417.053C296.73 417.44 295.57 419.223 295.957 421.028C296.344 422.832 298.127 423.993 299.931 423.606ZM303.196 438.967C304.829 438.623 305.871 437.012 305.527 435.379C305.183 433.746 303.572 432.704 301.94 433.048C300.307 433.392 299.265 435.003 299.609 436.636C299.953 438.269 301.564 439.311 303.196 438.967ZM306.462 454.328C307.922 454.017 308.846 452.588 308.545 451.127C308.244 449.666 306.805 448.742 305.344 449.043C303.884 449.344 302.96 450.784 303.261 452.244C303.562 453.705 305.001 454.629 306.462 454.328ZM309.727 469.69C311.005 469.421 311.821 468.154 311.553 466.875C311.284 465.597 310.017 464.781 308.739 465.049C307.46 465.318 306.644 466.585 306.913 467.864C307.181 469.142 308.449 469.958 309.727 469.69ZM312.992 485.051C314.098 484.815 314.796 483.73 314.571 482.623C314.345 481.517 313.25 480.819 312.143 481.044C311.037 481.27 310.339 482.365 310.564 483.472C310.79 484.578 311.886 485.277 312.992 485.051ZM316.257 500.412C317.181 500.219 317.782 499.306 317.578 498.371C317.374 497.437 316.472 496.846 315.537 497.05C314.603 497.254 314.012 498.156 314.216 499.091C314.42 500.026 315.323 500.616 316.257 500.412ZM319.522 515.773C320.274 515.612 320.757 514.871 320.596 514.119C320.435 513.367 319.694 512.884 318.942 513.045C318.19 513.206 317.707 513.947 317.868 514.699C318.029 515.451 318.77 515.935 319.522 515.773ZM322.787 531.135C323.357 531.017 323.733 530.447 323.604 529.878C323.475 529.309 322.916 528.933 322.347 529.062C321.778 529.19 321.402 529.749 321.531 530.318C321.66 530.888 322.218 531.264 322.787 531.135Z" fill="url(#paint0_radial_17491_437616)"/>
<defs>
<radialGradient id="paint0_radial_17491_437616" cx="0" cy="0" r="1" gradientUnits="userSpaceOnUse" gradientTransform="translate(267 268.494) scale(267 268.506)">
<stop stop-color="white"/>
<stop offset="0.08" stop-color="white" stop-opacity="0.96"/>
<stop offset="0.22" stop-color="white" stop-opacity="0.87"/>
<stop offset="0.4" stop-color="white" stop-opacity="0.71"/>
<stop offset="0.6" stop-color="white" stop-opacity="0.5"/>
<stop offset="0.83" stop-color="white" stop-opacity="0.22"/>
<stop offset="1" stop-color="white" stop-opacity="0"/>
</radialGradient>
</defs>
</svg>
