<svg width="233" height="184" viewBox="0 0 233 184" fill="none" xmlns="http://www.w3.org/2000/svg">
<path d="M141.3 138.8C140.967 138 140.8 137.133 140.8 136.233C140.8 134.166 140.8 130.6 140.8 129.133V110.166C140.8 105.3 136.7 105.3 134.834 105.3H98.1669C96.4669 105.3 92.4336 105.533 92.4336 110.066V135.9C92.4336 136.933 92.2336 137.966 91.8336 138.9L85.7669 153.166C85.7669 153.166 85.5669 153.833 85.5669 154.033V155.166C85.5669 156.1 86.3336 156.833 87.2336 156.833H145.767C146.667 156.833 147.434 156.1 147.434 155.166V154.033C147.434 152.933 141.3 138.766 141.3 138.766V138.8ZM122.634 153.633C122.634 154.466 121.967 155.133 121.134 155.133H111.767C110.934 155.133 110.267 154.466 110.267 153.633V153.066C110.267 152.233 110.934 151.566 111.767 151.566H121.134C121.967 151.566 122.634 152.233 122.634 153.066V153.633ZM139.534 138.833H93.4336C93.2002 138.833 93.0336 138.666 93.0336 138.433C93.0336 138.2 93.2002 138.033 93.4336 138.033H139.534C139.767 138.033 139.934 138.2 139.934 138.433C139.934 138.666 139.767 138.833 139.534 138.833Z" fill="#13625C"/>
<path d="M55.8065 113.333H33.1932C25.8332 113.333 23.1665 116 23.1665 123.493V156.506C23.1665 164 25.8332 166.666 33.1932 166.666H55.7798C63.1665 166.666 65.8332 164 65.8332 156.506V123.493C65.8332 116 63.1665 113.333 55.8065 113.333ZM44.4998 159.466C41.9398 159.466 39.8332 157.36 39.8332 154.8C39.8332 152.24 41.9398 150.133 44.4998 150.133C47.0598 150.133 49.1665 152.24 49.1665 154.8C49.1665 157.36 47.0598 159.466 44.4998 159.466ZM49.8332 124.666H39.1665C38.0732 124.666 37.1665 123.76 37.1665 122.666C37.1665 121.573 38.0732 120.666 39.1665 120.666H49.8332C50.9265 120.666 51.8332 121.573 51.8332 122.666C51.8332 123.76 50.9265 124.666 49.8332 124.666Z" fill="#13625C"/>
<path d="M130.467 18.667H102.533C90.3998 18.667 83.1665 25.9003 83.1665 38.0337V65.9337C83.1665 78.1003 90.3998 85.3337 102.533 85.3337H130.433C142.567 85.3337 149.8 78.1003 149.8 65.967V38.0337C149.833 25.9003 142.6 18.667 130.467 18.667ZM98.0665 42.9337C97.0998 41.967 97.0998 40.367 98.0665 39.4003C102.367 35.1003 109.4 35.1003 113.733 39.4003C114.7 40.367 114.7 41.967 113.733 42.9337C113.233 43.4337 112.6 43.667 111.967 43.667C111.333 43.667 110.7 43.4337 110.2 42.9337C107.833 40.567 103.967 40.567 101.6 42.9337C100.633 43.9337 99.0332 43.9337 98.0665 42.9337ZM128.5 72.267H104.5C102.167 72.267 100.267 70.367 100.267 68.0003C100.267 59.0337 107.567 51.7337 116.533 51.7337C125.5 51.7337 132.8 59.0337 132.8 68.0003C132.767 70.3337 130.833 72.267 128.5 72.267ZM134.933 42.9337C133.967 43.9003 132.367 43.9003 131.4 42.9337C129.033 40.567 125.167 40.567 122.8 42.9337C122.3 43.4337 121.667 43.667 121.033 43.667C120.4 43.667 119.767 43.4337 119.267 42.9337C118.3 41.967 118.3 40.367 119.267 39.4003C123.567 35.1003 130.6 35.1003 134.933 39.4003C135.9 40.4003 135.9 41.967 134.933 42.9337Z" fill="#F5A800"/>
<path d="M158.167 22.2402H144.833C140.833 22.2402 138.167 24.9069 138.167 28.9069V36.9069C138.167 40.9069 140.833 43.5736 144.833 43.5736V46.4136C144.833 47.4802 146.02 48.1202 146.9 47.5202L152.833 43.5736H158.167C162.167 43.5736 164.833 40.9069 164.833 36.9069V28.9069C164.833 24.9069 162.167 22.2402 158.167 22.2402ZM151.5 38.4669C150.94 38.4669 150.5 38.0136 150.5 37.4669C150.5 36.9202 150.94 36.4669 151.5 36.4669C152.06 36.4669 152.5 36.9202 152.5 37.4669C152.5 38.0136 152.06 38.4669 151.5 38.4669ZM153.18 32.9336C152.66 33.2802 152.5 33.5069 152.5 33.8802V34.1602C152.5 34.7069 152.047 35.1602 151.5 35.1602C150.953 35.1602 150.5 34.7069 150.5 34.1602V33.8802C150.5 32.3336 151.633 31.5736 152.06 31.2802C152.553 30.9469 152.713 30.7202 152.713 30.3736C152.713 29.7069 152.167 29.1602 151.5 29.1602C150.833 29.1602 150.287 29.7069 150.287 30.3736C150.287 30.9202 149.833 31.3736 149.287 31.3736C148.74 31.3736 148.287 30.9202 148.287 30.3736C148.287 28.6002 149.727 27.1602 151.5 27.1602C153.273 27.1602 154.713 28.6002 154.713 30.3736C154.713 31.8936 153.593 32.6536 153.18 32.9336Z" fill="#13625C"/>
<path d="M199.673 113.627H177.327C170.047 113.627 167.407 116.267 167.407 123.68V156.347C167.407 163.76 170.047 166.4 177.327 166.4H199.673C206.98 166.4 209.62 163.76 209.62 156.347V123.68C209.62 116.267 206.98 113.627 199.7 113.627H199.673ZM183.433 117.787C182.74 117.787 182.153 117.227 182.153 116.507C182.153 115.787 182.713 115.227 183.433 115.227C184.153 115.227 184.713 115.787 184.713 116.507C184.713 117.227 184.153 117.787 183.433 117.787ZM188.473 163.867C187.407 163.867 186.527 162.987 186.527 161.92C186.527 160.854 187.407 159.974 188.473 159.974C189.54 159.974 190.42 160.854 190.42 161.92C190.42 162.987 189.54 163.867 188.473 163.867ZM193.407 117.707H187.087C186.447 117.707 185.887 117.174 185.887 116.507C185.887 115.84 186.42 115.307 187.087 115.307H193.407C194.047 115.307 194.607 115.84 194.607 116.507C194.607 117.174 194.073 117.707 193.407 117.707Z" fill="#13625C"/>
</svg>
