<svg width="194" height="84" viewBox="0 0 194 84" fill="none" xmlns="http://www.w3.org/2000/svg">
<g id="Tablet1Artboard 28 copy 1" opacity="0.75" clip-path="url(#clip0_14026_92089)">
<path id="Vector" d="M94.6301 104.364C94.6301 103.31 95.4874 102.452 96.5416 102.452C97.5959 102.452 98.4532 103.31 98.4532 104.364C98.4532 105.418 97.5959 106.276 96.5416 106.276C95.4874 106.276 94.6301 105.418 94.6301 104.364ZM96.5416 111.922C97.5341 111.922 98.3373 111.119 98.3373 110.126C98.3373 109.134 97.5341 108.33 96.5416 108.33C95.5492 108.33 94.746 109.134 94.746 110.126C94.746 111.119 95.5492 111.922 96.5416 111.922ZM96.5416 117.568C97.4684 117.568 98.2176 116.819 98.2176 115.892C98.2176 114.965 97.4684 114.216 96.5416 114.216C95.6148 114.216 94.8657 114.965 94.8657 115.892C94.8657 116.819 95.6148 117.568 96.5416 117.568ZM96.5416 123.215C97.4028 123.215 98.1017 122.516 98.1017 121.654C98.1017 120.793 97.4028 120.094 96.5416 120.094C95.6805 120.094 94.9815 120.793 94.9815 121.654C94.9815 122.516 95.6805 123.215 96.5416 123.215ZM96.5416 128.861C97.3371 128.861 97.982 128.216 97.982 127.42C97.982 126.625 97.3371 125.98 96.5416 125.98C95.7461 125.98 95.1012 126.625 95.1012 127.42C95.1012 128.216 95.7461 128.861 96.5416 128.861ZM96.5416 134.507C97.2715 134.507 97.8662 133.916 97.8662 133.183C97.8662 132.449 97.2753 131.858 96.5416 131.858C95.8079 131.858 95.2171 132.449 95.2171 133.183C95.2171 133.916 95.8079 134.507 96.5416 134.507ZM96.5416 140.154C97.2058 140.154 97.7465 139.613 97.7465 138.949C97.7465 138.284 97.2058 137.744 96.5416 137.744C95.8774 137.744 95.3368 138.284 95.3368 138.949C95.3368 139.613 95.8774 140.154 96.5416 140.154ZM96.5416 145.8C97.1441 145.8 97.6306 145.313 97.6306 144.711C97.6306 144.108 97.1441 143.622 96.5416 143.622C95.9392 143.622 95.4526 144.108 95.4526 144.711C95.4526 145.313 95.9392 145.8 96.5416 145.8ZM96.5416 151.446C97.0784 151.446 97.5109 151.01 97.5109 150.477C97.5109 149.944 97.0745 149.508 96.5416 149.508C96.0087 149.508 95.5724 149.944 95.5724 150.477C95.5724 151.01 96.0087 151.446 96.5416 151.446ZM96.5416 157.093C97.0128 157.093 97.3951 156.71 97.3951 156.239C97.3951 155.768 97.0128 155.386 96.5416 155.386C96.0705 155.386 95.6882 155.768 95.6882 156.239C95.6882 156.71 96.0705 157.093 96.5416 157.093ZM96.5416 162.739C96.9471 162.739 97.2753 162.411 97.2753 162.005C97.2753 161.6 96.9471 161.271 96.5416 161.271C96.1362 161.271 95.8079 161.6 95.8079 162.005C95.8079 162.411 96.1362 162.739 96.5416 162.739ZM96.5416 168.385C96.8815 168.385 97.1595 168.107 97.1595 167.768C97.1595 167.428 96.8815 167.15 96.5416 167.15C96.2018 167.15 95.9238 167.428 95.9238 167.768C95.9238 168.107 96.2018 168.385 96.5416 168.385ZM96.5416 174.032C96.8158 174.032 97.0398 173.808 97.0398 173.534C97.0398 173.259 96.8158 173.035 96.5416 173.035C96.2675 173.035 96.0435 173.259 96.0435 173.534C96.0435 173.808 96.2675 174.032 96.5416 174.032ZM96.5416 179.678C96.754 179.678 96.9239 179.508 96.9239 179.296C96.9239 179.083 96.754 178.913 96.5416 178.913C96.3292 178.913 96.1593 179.083 96.1593 179.296C96.1593 179.508 96.3292 179.678 96.5416 179.678ZM91.7339 105.77C92.7649 105.99 93.7805 105.329 94.0007 104.298C94.2208 103.267 93.5604 102.251 92.5294 102.031C91.4983 101.811 90.4827 102.471 90.2626 103.503C90.0424 104.534 90.7028 105.55 91.7339 105.77ZM90.5599 111.292C91.5292 111.497 92.483 110.879 92.6877 109.91C92.8924 108.94 92.2745 107.987 91.3052 107.782C90.3359 107.577 89.3821 108.195 89.1774 109.164C88.9728 110.134 89.5906 111.088 90.5599 111.292ZM89.386 116.815C90.2896 117.008 91.1816 116.429 91.3747 115.525C91.5678 114.622 90.9886 113.729 90.0849 113.536C89.1813 113.343 88.2893 113.923 88.0962 114.826C87.9031 115.73 88.4823 116.622 89.386 116.815ZM88.212 122.338C89.0539 122.516 89.8803 121.979 90.0618 121.137C90.2433 120.295 89.7026 119.468 88.8608 119.287C88.0189 119.105 87.1925 119.646 87.011 120.488C86.8295 121.33 87.3702 122.156 88.212 122.338ZM87.0381 127.861C87.8181 128.027 88.5827 127.529 88.7488 126.752C88.9148 125.976 88.4167 125.207 87.6405 125.041C86.8643 124.875 86.0958 125.374 85.9298 126.15C85.7637 126.926 86.2619 127.695 87.0381 127.861ZM85.8641 133.383C86.5785 133.534 87.2814 133.078 87.432 132.364C87.5826 131.649 87.1269 130.947 86.4125 130.796C85.6981 130.645 84.9953 131.101 84.8447 131.815C84.694 132.53 85.1497 133.233 85.8641 133.383ZM84.6902 138.906C85.3428 139.045 85.98 138.628 86.119 137.979C86.258 137.331 85.841 136.689 85.1922 136.55C84.5434 136.411 83.9024 136.828 83.7634 137.477C83.6244 138.126 84.0414 138.767 84.6902 138.906ZM83.5162 144.429C84.1032 144.553 84.6825 144.178 84.806 143.591C84.9296 143.004 84.555 142.425 83.968 142.301C83.3811 142.177 82.8018 142.552 82.6783 143.139C82.5547 143.726 82.9293 144.305 83.5162 144.429ZM82.3423 149.952C82.8675 150.064 83.3811 149.728 83.4931 149.203C83.6051 148.677 83.2691 148.164 82.7439 148.052C82.2187 147.94 81.7051 148.276 81.5931 148.801C81.4811 149.326 81.8171 149.84 82.3423 149.952ZM81.1683 155.475C81.6279 155.571 82.0835 155.278 82.1801 154.818C82.2766 154.358 81.9832 153.903 81.5236 153.806C81.0641 153.71 80.6084 154.003 80.5119 154.463C80.4153 154.922 80.7088 155.378 81.1683 155.475ZM79.9944 160.997C80.3921 161.082 80.7822 160.827 80.8671 160.43C80.9521 160.032 80.6972 159.642 80.2995 159.557C79.9017 159.472 79.5117 159.727 79.4267 160.124C79.3418 160.522 79.5966 160.912 79.9944 160.997ZM78.8204 166.52C79.1525 166.59 79.4808 166.377 79.5542 166.045C79.6275 165.713 79.4113 165.385 79.0792 165.311C78.7471 165.238 78.4188 165.454 78.3455 165.786C78.2721 166.118 78.4883 166.447 78.8204 166.52ZM77.6465 172.043C77.9168 172.101 78.1833 171.927 78.2412 171.657C78.2991 171.386 78.1253 171.12 77.855 171.062C77.5847 171.004 77.3183 171.178 77.2603 171.448C77.2024 171.718 77.3762 171.985 77.6465 172.043ZM76.4725 177.566C76.6772 177.608 76.8819 177.477 76.9244 177.272C76.9668 177.067 76.8355 176.863 76.6309 176.82C76.4262 176.778 76.2215 176.909 76.1791 177.114C76.1366 177.318 76.2679 177.523 76.4725 177.566ZM87.1346 104.271C88.1 104.7 89.2276 104.267 89.6563 103.302C90.0849 102.336 89.6524 101.209 88.687 100.78C87.7216 100.351 86.594 100.784 86.1653 101.749C85.7367 102.715 86.1692 103.843 87.1346 104.271ZM84.8369 109.431C85.7406 109.833 86.8025 109.427 87.2041 108.523C87.6057 107.62 87.2003 106.558 86.2966 106.156C85.393 105.754 84.331 106.16 83.9294 107.063C83.5278 107.967 83.9333 109.029 84.8369 109.431ZM82.5392 114.591C83.3849 114.969 84.3774 114.591 84.752 113.741C85.1265 112.891 84.752 111.903 83.9024 111.528C83.0528 111.153 82.0642 111.528 81.6897 112.378C81.3151 113.227 81.6897 114.216 82.5392 114.591ZM80.2415 119.75C81.0293 120.102 81.9484 119.75 82.2998 118.959C82.6512 118.167 82.2998 117.252 81.5082 116.9C80.7165 116.549 79.8013 116.9 79.4499 117.692C79.0985 118.484 79.4499 119.399 80.2415 119.75ZM77.9438 124.91C78.6698 125.235 79.5233 124.91 79.8476 124.18C80.172 123.45 79.8476 122.601 79.1178 122.276C78.3879 121.952 77.5384 122.276 77.214 123.006C76.8896 123.736 77.214 124.586 77.9438 124.91ZM75.6462 130.07C76.3142 130.367 77.0943 130.07 77.3916 129.398C77.689 128.726 77.3916 127.95 76.7197 127.652C76.0478 127.355 75.2716 127.652 74.9742 128.324C74.6769 128.996 74.9742 129.772 75.6462 130.07ZM73.3485 135.23C73.9586 135.5 74.6692 135.23 74.9395 134.619C75.2098 134.009 74.9395 133.299 74.3293 133.028C73.7192 132.758 73.0086 133.028 72.7383 133.638C72.468 134.249 72.7383 134.959 73.3485 135.23ZM71.0508 140.389C71.5991 140.633 72.244 140.389 72.4873 139.837C72.7306 139.285 72.4873 138.644 71.9351 138.4C71.3829 138.157 70.7418 138.4 70.4986 138.953C70.2553 139.505 70.4986 140.146 71.0508 140.389ZM68.7531 145.549C69.2435 145.765 69.815 145.549 70.0352 145.059C70.2553 144.568 70.0352 143.996 69.5447 143.776C69.0543 143.556 68.4828 143.776 68.2626 144.267C68.0425 144.757 68.2626 145.329 68.7531 145.549ZM66.4554 150.709C66.884 150.902 67.3899 150.709 67.583 150.276C67.7761 149.844 67.583 149.342 67.1505 149.148C66.718 148.955 66.216 149.148 66.0229 149.581C65.8298 150.014 66.0229 150.516 66.4554 150.709ZM64.1577 155.868C64.5284 156.035 64.9648 155.868 65.127 155.498C65.2892 155.127 65.127 154.691 64.7563 154.528C64.3855 154.366 63.9492 154.528 63.787 154.899C63.6248 155.27 63.787 155.706 64.1577 155.868ZM61.86 161.028C62.1728 161.167 62.5358 161.028 62.6748 160.715C62.8138 160.403 62.6748 160.04 62.362 159.9C62.0492 159.761 61.6862 159.9 61.5472 160.213C61.4082 160.526 61.5472 160.889 61.86 161.028ZM59.5623 166.188C59.8133 166.3 60.1107 166.188 60.2227 165.933C60.3346 165.678 60.2227 165.385 59.9678 165.273C59.7129 165.161 59.4194 165.273 59.3074 165.527C59.1955 165.782 59.3074 166.076 59.5623 166.188ZM57.2646 171.348C57.4577 171.433 57.6817 171.348 57.7705 171.155C57.8593 170.961 57.7705 170.737 57.5774 170.649C57.3843 170.56 57.1604 170.649 57.0715 170.842C56.9827 171.035 57.0715 171.259 57.2646 171.348ZM82.9293 101.873C83.7827 102.495 84.9798 102.305 85.5977 101.448C86.2155 100.591 86.0302 99.3973 85.1729 98.7794C84.3156 98.1614 83.1223 98.3468 82.5045 99.2042C81.8866 100.062 82.072 101.255 82.9293 101.873ZM79.6121 106.442C80.4153 107.025 81.5352 106.847 82.1183 106.044C82.7014 105.241 82.5238 104.121 81.7206 103.537C80.9173 102.954 79.7974 103.132 79.2143 103.935C78.6312 104.739 78.8089 105.859 79.6121 106.442ZM76.2949 111.011C77.0441 111.555 78.0906 111.389 78.6351 110.64C79.1796 109.891 79.0135 108.844 78.2644 108.299C77.5152 107.755 76.4687 107.921 75.9242 108.67C75.3797 109.419 75.5458 110.466 76.2949 111.011ZM72.9777 115.579C73.6728 116.085 74.6498 115.931 75.1557 115.236C75.6616 114.54 75.5071 113.563 74.812 113.057C74.1169 112.551 73.1399 112.706 72.6341 113.401C72.1282 114.096 72.2826 115.073 72.9777 115.579ZM69.6606 120.148C70.3055 120.615 71.2052 120.473 71.6725 119.828C72.1398 119.183 71.9969 118.283 71.352 117.815C70.7071 117.348 69.8073 117.491 69.3401 118.136C68.8728 118.781 69.0157 119.681 69.6606 120.148ZM66.3434 124.717C66.9342 125.146 67.7606 125.014 68.1931 124.423C68.6256 123.833 68.4905 123.006 67.8997 122.574C67.3088 122.141 66.4824 122.276 66.0499 122.867C65.6174 123.458 65.7526 124.284 66.3434 124.717ZM63.0262 129.286C63.563 129.676 64.3199 129.556 64.7099 129.019C65.1 128.483 64.9802 127.726 64.4435 127.335C63.9067 126.945 63.1498 127.065 62.7598 127.602C62.3698 128.139 62.4895 128.896 63.0262 129.286ZM59.7091 133.855C60.1956 134.206 60.8753 134.102 61.2306 133.615C61.5858 133.129 61.4777 132.449 60.9911 132.094C60.5046 131.738 59.8249 131.846 59.4696 132.333C59.1144 132.82 59.2225 133.499 59.7091 133.855ZM56.3919 138.423C56.8244 138.74 57.4307 138.644 57.7473 138.207C58.064 137.771 57.9674 137.168 57.5311 136.852C57.0947 136.535 56.4923 136.631 56.1756 137.068C55.859 137.504 55.9555 138.107 56.3919 138.423ZM53.0747 142.992C53.457 143.27 53.9899 143.185 54.2641 142.803C54.5383 142.421 54.4572 141.888 54.0749 141.614C53.6926 141.339 53.1597 141.42 52.8855 141.803C52.6113 142.185 52.6924 142.718 53.0747 142.992ZM49.7575 147.561C50.0858 147.801 50.5453 147.727 50.7847 147.399C51.0242 147.071 50.9508 146.611 50.6226 146.372C50.2943 146.132 49.8348 146.206 49.5954 146.534C49.3559 146.862 49.4293 147.322 49.7575 147.561ZM46.4404 152.13C46.7146 152.331 47.1007 152.269 47.3015 151.995C47.5023 151.721 47.4405 151.334 47.1664 151.134C46.8922 150.933 46.506 150.995 46.3052 151.269C46.1044 151.543 46.1662 151.929 46.4404 152.13ZM43.1232 156.699C43.3472 156.861 43.66 156.811 43.8222 156.587C43.9844 156.363 43.9342 156.05 43.7102 155.888C43.4862 155.726 43.1734 155.776 43.0112 156C42.849 156.224 42.8992 156.537 43.1232 156.699ZM39.806 161.268C39.9759 161.391 40.2154 161.353 40.3389 161.183C40.4625 161.013 40.4239 160.773 40.254 160.65C40.0841 160.526 39.8447 160.565 39.7211 160.735C39.5975 160.905 39.6361 161.144 39.806 161.268ZM79.3534 98.648C80.06 99.432 81.2687 99.4977 82.0527 98.7909C82.8366 98.0842 82.9022 96.8754 82.1955 96.0913C81.4889 95.3074 80.2802 95.2417 79.4962 95.9485C78.7123 96.6552 78.6467 97.864 79.3534 98.648ZM75.1557 102.425C75.8199 103.163 76.9514 103.221 77.689 102.556C78.4266 101.892 78.4845 100.761 77.8203 100.023C77.1561 99.2853 76.0246 99.2274 75.287 99.8916C74.5494 100.556 74.4915 101.688 75.1557 102.425ZM70.9581 106.202C71.576 106.89 72.6379 106.948 73.3253 106.326C74.0127 105.704 74.0706 104.646 73.4489 103.958C72.8271 103.271 71.7691 103.213 71.0817 103.835C70.3943 104.457 70.3364 105.515 70.9581 106.202ZM66.7605 109.979C67.3359 110.62 68.3206 110.671 68.9616 110.095C69.6027 109.52 69.6529 108.535 69.0775 107.894C68.5021 107.253 67.5173 107.203 66.8763 107.778C66.2353 108.353 66.1851 109.338 66.7605 109.979ZM62.5628 113.756C63.0957 114.347 64.0071 114.398 64.5979 113.865C65.1888 113.332 65.239 112.42 64.7061 111.829C64.1731 111.238 63.2618 111.188 62.671 111.721C62.0801 112.254 62.0299 113.166 62.5628 113.756ZM58.3652 117.534C58.8556 118.078 59.6898 118.121 60.2342 117.63C60.7787 117.14 60.8212 116.305 60.3308 115.761C59.8404 115.216 59.0062 115.174 58.4617 115.664C57.9172 116.155 57.8748 116.989 58.3652 117.534ZM54.1676 121.311C54.6117 121.805 55.3763 121.844 55.8706 121.4C56.3649 120.955 56.4035 120.191 55.9594 119.696C55.5153 119.202 54.7507 119.163 54.2564 119.607C53.7621 120.052 53.7235 120.816 54.1676 121.311ZM49.9699 125.088C50.3716 125.536 51.0589 125.571 51.5069 125.169C51.9548 124.767 51.9896 124.08 51.588 123.632C51.1864 123.184 50.499 123.149 50.051 123.551C49.6031 123.952 49.5683 124.64 49.9699 125.088ZM45.7723 128.865C46.1314 129.263 46.7454 129.294 47.1432 128.938C47.541 128.583 47.5718 127.965 47.2166 127.567C46.8613 127.169 46.2434 127.139 45.8457 127.494C45.4479 127.849 45.417 128.467 45.7723 128.865ZM41.5747 132.642C41.8913 132.993 42.4281 133.02 42.7795 132.704C43.1309 132.387 43.158 131.85 42.8413 131.499C42.5246 131.147 41.9879 131.12 41.6365 131.437C41.2851 131.754 41.258 132.291 41.5747 132.642ZM37.377 136.419C37.6474 136.72 38.1146 136.743 38.4158 136.473C38.717 136.203 38.7402 135.735 38.4699 135.434C38.1996 135.133 37.7323 135.11 37.4311 135.38C37.1299 135.651 37.1067 136.118 37.377 136.419ZM33.1794 140.196C33.4073 140.451 33.7973 140.47 34.0522 140.243C34.307 140.015 34.3263 139.625 34.0985 139.37C33.8707 139.115 33.4806 139.095 33.2258 139.323C32.9709 139.551 32.9516 139.941 33.1794 140.196ZM28.9818 143.973C29.1671 144.178 29.4838 144.193 29.6885 144.012C29.8931 143.83 29.9086 143.51 29.7271 143.305C29.5456 143.1 29.2251 143.085 29.0204 143.267C28.8157 143.448 28.8003 143.769 28.9818 143.973ZM24.7842 147.75C24.927 147.909 25.1665 147.92 25.3248 147.777C25.4831 147.635 25.4947 147.395 25.3518 147.237C25.2089 147.078 24.9695 147.067 24.8112 147.21C24.6529 147.353 24.6413 147.592 24.7842 147.75ZM76.488 94.7203C77.0171 95.6356 78.1833 95.9485 79.0985 95.4194C80.0137 94.8903 80.3265 93.7239 79.7974 92.8086C79.2684 91.8933 78.1022 91.5805 77.187 92.1096C76.2718 92.6387 75.959 93.805 76.488 94.7203ZM71.5991 97.5435C72.0934 98.4009 73.1901 98.6944 74.0513 98.2001C74.9124 97.7057 75.2021 96.6089 74.7078 95.7476C74.2135 94.8864 73.1168 94.5967 72.2556 95.0911C71.3945 95.5854 71.1048 96.6823 71.5991 97.5435ZM66.7103 100.367C67.1737 101.17 68.197 101.444 69.0002 100.981C69.8035 100.517 70.0776 99.4938 69.6142 98.6905C69.1508 97.8872 68.1275 97.613 67.3243 98.0765C66.521 98.5399 66.2469 99.5634 66.7103 100.367ZM61.8214 103.19C62.25 103.935 63.2039 104.19 63.9492 103.761C64.6945 103.333 64.9493 102.379 64.5207 101.633C64.0921 100.888 63.1382 100.633 62.3929 101.062C61.6476 101.491 61.3927 102.444 61.8214 103.19ZM56.9325 106.013C57.3303 106.7 58.2107 106.94 58.902 106.542C59.5932 106.144 59.8288 105.264 59.431 104.572C59.0333 103.881 58.1528 103.646 57.4616 104.043C56.7703 104.441 56.5348 105.322 56.9325 106.013ZM52.0437 108.836C52.4105 109.47 53.2176 109.686 53.8509 109.319C54.4842 108.952 54.7005 108.145 54.3336 107.511C53.9668 106.878 53.1597 106.662 52.5264 107.029C51.8931 107.396 51.6768 108.203 52.0437 108.836ZM47.1548 111.659C47.4869 112.235 48.2245 112.432 48.7999 112.1C49.3752 111.767 49.5722 111.03 49.2401 110.454C48.908 109.879 48.1704 109.682 47.595 110.014C47.0196 110.346 46.8227 111.084 47.1548 111.659ZM42.2659 114.483C42.5671 115.004 43.2313 115.182 43.7527 114.88C44.274 114.579 44.4516 113.915 44.1504 113.393C43.8492 112.872 43.185 112.694 42.6637 112.996C42.1423 113.297 41.9647 113.961 42.2659 114.483ZM37.377 117.306C37.6435 117.769 38.2382 117.927 38.7016 117.661C39.165 117.395 39.3233 116.8 39.0569 116.336C38.7904 115.873 38.1957 115.715 37.7323 115.981C37.2689 116.247 37.1106 116.842 37.377 117.306ZM32.4882 120.129C32.7237 120.538 33.2451 120.677 33.6544 120.442C34.0637 120.206 34.2028 119.685 33.9672 119.275C33.7316 118.866 33.2103 118.727 32.801 118.963C32.3916 119.198 32.2526 119.719 32.4882 120.129ZM27.5993 122.952C27.804 123.303 28.2519 123.423 28.6033 123.222C28.9548 123.022 29.0745 122.57 28.8737 122.218C28.6728 121.867 28.221 121.747 27.8696 121.948C27.5182 122.149 27.3985 122.601 27.5993 122.952ZM22.7104 125.775C22.8804 126.069 23.2588 126.173 23.5523 126.003C23.8458 125.833 23.95 125.455 23.7801 125.161C23.6102 124.868 23.2318 124.763 22.9383 124.933C22.6448 125.103 22.5405 125.482 22.7104 125.775ZM17.8216 128.598C17.9606 128.838 18.2657 128.919 18.5051 128.78C18.7445 128.641 18.8256 128.336 18.6866 128.096C18.5476 127.857 18.2425 127.776 18.0031 127.915C17.7636 128.054 17.6826 128.359 17.8216 128.598ZM12.9327 131.422C13.037 131.603 13.2725 131.669 13.454 131.561C13.6355 131.452 13.7012 131.221 13.593 131.039C13.4849 130.858 13.2532 130.792 13.0717 130.9C12.8902 131.008 12.8246 131.24 12.9327 131.422ZM74.5301 90.3021C74.8545 91.3063 75.9358 91.8547 76.9398 91.5303C77.9438 91.2058 78.4922 90.1245 78.1678 89.1203C77.8434 88.1162 76.7622 87.5678 75.7581 87.8922C74.7541 88.2166 74.2058 89.298 74.5301 90.3021ZM69.1624 92.0478C69.4675 92.9901 70.4792 93.5076 71.4215 93.1987C72.3637 92.8897 72.8812 91.8817 72.5723 90.9393C72.2633 89.997 71.2554 89.4795 70.3132 89.7885C69.3709 90.0974 68.8535 91.1054 69.1624 92.0478ZM63.7947 93.7934C64.0805 94.674 65.0266 95.1567 65.907 94.8709C66.7875 94.5852 67.2702 93.6389 66.9844 92.7584C66.6987 91.8778 65.7526 91.3951 64.8721 91.6809C63.9916 91.9667 63.5089 92.9129 63.7947 93.7934ZM58.427 95.5391C58.6934 96.3578 59.5739 96.8058 60.3926 96.5393C61.2113 96.2729 61.6592 95.3923 61.3927 94.5736C61.1263 93.7548 60.2458 93.3068 59.4272 93.5733C58.6085 93.8398 58.1605 94.7203 58.427 95.5391ZM53.0593 97.2847C53.3064 98.0417 54.1174 98.4549 54.8743 98.2116C55.6311 97.9683 56.0443 97.1534 55.8011 96.3964C55.5578 95.6395 54.743 95.2262 53.9861 95.4696C53.2292 95.7129 52.816 96.5278 53.0593 97.2847ZM47.6916 99.0304C47.9155 99.7255 48.6647 100.104 49.3598 99.88C50.0549 99.656 50.4333 98.9068 50.2094 98.2116C49.9854 97.5164 49.2362 97.138 48.5411 97.362C47.846 97.586 47.4676 98.3352 47.6916 99.0304ZM42.3238 100.776C42.5285 101.409 43.2082 101.757 43.8415 101.548C44.4748 101.34 44.8223 100.664 44.6138 100.031C44.4053 99.3973 43.7295 99.0497 43.0962 99.2583C42.4629 99.4668 42.1153 100.143 42.3238 100.776ZM36.9561 102.522C37.1415 103.093 37.7555 103.406 38.327 103.221C38.8985 103.035 39.2113 102.421 39.026 101.85C38.8406 101.278 38.2266 100.965 37.6551 101.151C37.0836 101.336 36.7708 101.95 36.9561 102.522ZM31.5884 104.267C31.7545 104.777 32.3028 105.055 32.8126 104.889C33.3223 104.723 33.6003 104.175 33.4343 103.665C33.2682 103.155 32.7199 102.877 32.2101 103.043C31.7004 103.209 31.4224 103.758 31.5884 104.267ZM26.2207 106.013C26.3674 106.461 26.8463 106.704 27.2942 106.561C27.7422 106.419 27.9855 105.936 27.8426 105.488C27.6997 105.04 27.217 104.796 26.7691 104.939C26.3211 105.082 26.0778 105.565 26.2207 106.013ZM20.853 107.759C20.9766 108.145 21.3936 108.357 21.7798 108.23C22.1659 108.102 22.3783 107.689 22.2509 107.303C22.1235 106.917 21.7103 106.704 21.3241 106.832C20.9379 106.959 20.7255 107.372 20.853 107.759ZM15.4853 109.504C15.5895 109.829 15.9409 110.006 16.2615 109.902C16.582 109.798 16.7635 109.446 16.6592 109.126C16.5549 108.805 16.2035 108.624 15.883 108.728C15.5625 108.832 15.381 109.184 15.4853 109.504ZM10.1175 111.25C10.2025 111.513 10.4844 111.655 10.747 111.571C11.0096 111.486 11.1525 111.204 11.0675 110.941C10.9826 110.678 10.7007 110.535 10.4381 110.62C10.1755 110.705 10.0326 110.987 10.1175 111.25ZM4.74983 112.996C4.81548 113.196 5.03173 113.305 5.23254 113.243C5.43335 113.181 5.54147 112.961 5.47969 112.76C5.4179 112.559 5.19778 112.451 4.99698 112.513C4.79617 112.575 4.68805 112.795 4.74983 112.996ZM73.5493 85.5827C73.6613 86.6331 74.5996 87.394 75.65 87.2858C76.7004 87.1777 77.4611 86.2354 77.353 85.1849C77.2449 84.1344 76.3026 83.3736 75.2523 83.4817C74.2019 83.5898 73.4411 84.5322 73.5493 85.5827ZM67.9344 86.1736C68.0387 87.1584 68.9191 87.8729 69.9077 87.7686C70.8963 87.6643 71.6069 86.7838 71.5026 85.7951C71.3983 84.8064 70.5179 84.0958 69.5293 84.2C68.5407 84.3043 67.8301 85.1849 67.9344 86.1736ZM62.3195 86.7645C62.4161 87.6836 63.2425 88.3518 64.1616 88.2552C65.0806 88.1587 65.7487 87.3322 65.6522 86.413C65.5556 85.4938 64.7292 84.8257 63.8102 84.9223C62.8911 85.0188 62.223 85.8453 62.3195 86.7645ZM56.7047 87.3554C56.7935 88.2127 57.562 88.8307 58.4193 88.7418C59.2766 88.653 59.8944 87.8845 59.8056 87.0271C59.7168 86.1697 58.9483 85.5518 58.091 85.6406C57.2337 85.7294 56.6159 86.498 56.7047 87.3554ZM51.0898 87.9463C51.1748 88.738 51.8815 89.3134 52.6731 89.2284C53.4647 89.1435 54.0401 88.4367 53.9552 87.645C53.8702 86.8533 53.1635 86.2778 52.3719 86.3628C51.5803 86.4478 51.0049 87.1545 51.0898 87.9463ZM45.475 88.5371C45.5522 89.2632 46.201 89.7923 46.9308 89.7151C47.6607 89.6378 48.1859 88.989 48.1086 88.2591C48.0314 87.5291 47.3826 87.0039 46.6528 87.0811C45.9229 87.1584 45.3977 87.8072 45.475 88.5371ZM39.8601 89.1281C39.9296 89.7885 40.5243 90.2712 41.1847 90.2017C41.845 90.1322 42.3277 89.5374 42.2582 88.877C42.1887 88.2166 41.594 87.7338 40.9336 87.8034C40.2733 87.8729 39.7906 88.4676 39.8601 89.1281ZM34.2452 89.7189C34.307 90.3176 34.8438 90.7501 35.4424 90.6883C36.0409 90.6265 36.4734 90.0897 36.4116 89.4911C36.3498 88.8924 35.8131 88.4599 35.2145 88.5217C34.616 88.5835 34.1834 89.1203 34.2452 89.7189ZM28.6304 90.3098C28.6883 90.8428 29.1633 91.229 29.6962 91.1749C30.2291 91.1209 30.6153 90.642 30.5612 90.109C30.5071 89.576 30.0283 89.1898 29.4954 89.2439C28.9625 89.298 28.5763 89.7769 28.6304 90.3098ZM23.0155 90.9007C23.0657 91.368 23.4828 91.7079 23.9539 91.6616C24.425 91.6152 24.761 91.1942 24.7146 90.7231C24.6683 90.2519 24.2474 89.9159 23.7763 89.9622C23.3051 90.0086 22.9692 90.4296 23.0155 90.9007ZM17.4007 91.4916C17.4431 91.8972 17.8061 92.1868 18.2077 92.1443C18.6094 92.1018 18.9028 91.7388 18.8604 91.3371C18.8179 90.9355 18.4549 90.642 18.0533 90.6845C17.6517 90.7269 17.3582 91.09 17.4007 91.4916ZM11.7858 92.0825C11.8205 92.4224 12.1256 92.6695 12.4654 92.6309C12.8053 92.5923 13.0524 92.2911 13.0138 91.9512C12.9752 91.6114 12.674 91.3642 12.3341 91.4028C11.9943 91.4414 11.7472 91.7427 11.7858 92.0825ZM6.17092 92.6734C6.19796 92.9476 6.4451 93.1485 6.71928 93.1176C6.99346 93.0867 7.19427 92.8434 7.16337 92.5691C7.13248 92.2949 6.88919 92.0941 6.61502 92.125C6.34084 92.1559 6.14003 92.3992 6.17092 92.6734ZM0.556062 93.2643C0.579232 93.4729 0.764592 93.6273 0.976984 93.6042C1.18938 93.581 1.33998 93.3956 1.31681 93.1832C1.29364 92.9708 1.10828 92.8202 0.895889 92.8434C0.683497 92.8665 0.532892 93.0519 0.556062 93.2643ZM73.5493 80.7551C73.4373 81.8056 74.2019 82.744 75.2523 82.856C76.3026 82.968 77.241 82.2034 77.353 81.1529C77.465 80.1024 76.7004 79.1639 75.65 79.0519C74.5996 78.9399 73.6613 79.7046 73.5493 80.7551ZM67.9344 80.1642C67.8301 81.149 68.5446 82.0334 69.5293 82.1377C70.514 82.242 71.3983 81.5275 71.5026 80.5427C71.6069 79.5578 70.8924 78.6734 69.9077 78.5691C68.923 78.4649 68.0387 79.1794 67.9344 80.1642ZM62.3195 79.5733C62.223 80.4925 62.8911 81.3189 63.8102 81.4155C64.7292 81.512 65.5556 80.8439 65.6522 79.9247C65.7487 79.0056 65.0806 78.1791 64.1616 78.0825C63.2425 77.986 62.4161 78.6541 62.3195 79.5733ZM56.7047 78.9824C56.6159 79.8398 57.2376 80.6045 58.091 80.6972C58.9445 80.7898 59.7129 80.1642 59.8056 79.3107C59.8983 78.4571 59.2727 77.6886 58.4193 77.5959C57.5658 77.5032 56.7974 78.1289 56.7047 78.9824ZM51.0898 78.3915C51.0049 79.1832 51.5803 79.8938 52.3719 79.9749C53.1635 80.056 53.8741 79.4845 53.9552 78.6927C54.0363 77.901 53.4647 77.1904 52.6731 77.1093C51.8815 77.0282 51.1709 77.5998 51.0898 78.3915ZM45.475 77.8006C45.3977 78.5267 45.9268 79.1794 46.6528 79.2566C47.3788 79.3338 48.0314 78.8047 48.1086 78.0787C48.1859 77.3526 47.6568 76.6999 46.9308 76.6227C46.2048 76.5454 45.5522 77.0745 45.475 77.8006ZM39.8601 77.2097C39.7906 77.8701 40.2694 78.4649 40.9336 78.5344C41.5978 78.6039 42.1887 78.125 42.2582 77.4607C42.3277 76.7965 41.8489 76.2056 41.1847 76.136C40.5204 76.0665 39.9296 76.5454 39.8601 77.2097ZM34.2452 76.6188C34.1834 77.2174 34.616 77.7504 35.2145 77.816C35.8131 77.8817 36.346 77.4453 36.4116 76.8467C36.4773 76.248 36.0409 75.7151 35.4424 75.6494C34.8438 75.5838 34.3109 76.0202 34.2452 76.6188ZM28.6304 76.0279C28.5724 76.5609 28.9625 77.0398 29.4954 77.0938C30.0283 77.1479 30.5071 76.7617 30.5612 76.2287C30.6153 75.6958 30.2291 75.2169 29.6962 75.1628C29.1633 75.1087 28.6844 75.4949 28.6304 76.0279ZM23.0155 75.437C22.9653 75.9043 23.3051 76.3253 23.7763 76.3755C24.2474 76.4257 24.6644 76.0858 24.7146 75.6147C24.7648 75.1435 24.425 74.7264 23.9539 74.6762C23.4828 74.626 23.0657 74.9658 23.0155 75.437ZM17.4007 74.8461C17.3582 75.2516 17.6517 75.6108 18.0533 75.6533C18.4549 75.6958 18.8179 75.4023 18.8604 75.0006C18.9028 74.5989 18.6094 74.2359 18.2077 74.1934C17.8061 74.1509 17.4431 74.4445 17.4007 74.8461ZM11.7858 74.2552C11.751 74.5951 11.9943 74.9002 12.3341 74.9349C12.674 74.9697 12.979 74.7264 13.0138 74.3865C13.0486 74.0467 12.8053 73.7416 12.4654 73.7068C12.1256 73.672 11.8205 73.9153 11.7858 74.2552ZM6.17092 73.6643C6.14389 73.9385 6.34084 74.1857 6.61502 74.2127C6.88919 74.2398 7.13634 74.0428 7.16337 73.7686C7.1904 73.4944 6.99346 73.2472 6.71928 73.2202C6.4451 73.1931 6.19796 73.3901 6.17092 73.6643ZM0.556062 73.0734C0.532892 73.282 0.687359 73.4712 0.895889 73.4944C1.10442 73.5176 1.29364 73.3631 1.31681 73.1545C1.33998 72.946 1.18551 72.7567 0.976984 72.7336C0.768454 72.7104 0.579232 72.8649 0.556062 73.0734ZM74.5572 76.0163C74.2328 77.0204 74.7811 78.098 75.7852 78.4263C76.7892 78.7545 77.8666 78.2023 78.1949 77.1981C78.5231 76.194 77.9709 75.1165 76.9668 74.7882C75.9628 74.4599 74.8854 75.0122 74.5572 76.0163ZM69.1895 74.2707C68.8844 75.213 69.398 76.2249 70.3402 76.53C71.2825 76.8351 72.2942 76.3214 72.5993 75.3791C72.9044 74.4367 72.3908 73.4249 71.4485 73.1198C70.5063 72.8147 69.4945 73.3283 69.1895 74.2707ZM63.8217 72.525C63.536 73.4056 64.0187 74.3518 64.8991 74.6376C65.7796 74.9234 66.7257 74.4406 67.0115 73.56C67.2972 72.6795 66.8145 71.7333 65.9341 71.4475C65.0536 71.1617 64.1075 71.6445 63.8217 72.525ZM58.454 70.7794C58.1876 71.5981 58.6355 72.4787 59.4542 72.7451C60.2729 73.0116 61.1533 72.5636 61.4198 71.7449C61.6862 70.9261 61.2383 70.0456 60.4196 69.7791C59.6009 69.5126 58.7205 69.9606 58.454 70.7794ZM53.0863 69.0337C52.8392 69.7907 53.2562 70.6017 54.0131 70.8489C54.77 71.096 55.5809 70.6789 55.8281 69.922C56.0752 69.165 55.6582 68.354 54.9013 68.1068C54.1444 67.8596 53.3335 68.2767 53.0863 69.0337ZM47.7186 67.288C47.4946 67.9832 47.8731 68.7286 48.5682 68.9565C49.2633 69.1843 50.0086 68.802 50.2364 68.1068C50.4642 67.4116 50.0819 66.6662 49.3868 66.4384C48.6917 66.2105 47.9464 66.5929 47.7186 67.288ZM42.3509 65.5424C42.1462 66.1758 42.4899 66.8555 43.1232 67.0602C43.7565 67.2649 44.4362 66.9212 44.6408 66.2878C44.8455 65.6544 44.5018 64.9747 43.8685 64.77C43.2352 64.5653 42.5555 64.909 42.3509 65.5424ZM36.9832 63.7967C36.7978 64.3683 37.1106 64.9824 37.6821 65.1678C38.2536 65.3531 38.8676 65.0403 39.053 64.4687C39.2384 63.8971 38.9256 63.2831 38.354 63.0977C37.7825 62.9123 37.1685 63.2251 36.9832 63.7967ZM31.6154 62.0511C31.4494 62.5609 31.7274 63.1093 32.2372 63.2754C32.7469 63.4414 33.2953 63.1634 33.4613 62.6536C33.6274 62.1438 33.3493 61.5954 32.8396 61.4293C32.3298 61.2632 31.7815 61.5413 31.6154 62.0511ZM26.2477 60.3054C26.101 60.7534 26.3481 61.2362 26.7961 61.3791C27.244 61.522 27.7267 61.2787 27.8696 60.8307C28.0125 60.3827 27.7692 59.8999 27.3213 59.757C26.8733 59.6141 26.3906 59.8574 26.2477 60.3054ZM20.88 58.5598C20.7564 58.946 20.965 59.3592 21.3511 59.4867C21.7373 59.6141 22.1505 59.4017 22.2779 59.0155C22.4054 58.6293 22.193 58.216 21.8068 58.0886C21.4206 57.9611 21.0074 58.1736 20.88 58.5598ZM15.5123 56.8141C15.408 57.1385 15.5857 57.4861 15.91 57.5904C16.2344 57.6947 16.582 57.517 16.6862 57.1926C16.7905 56.8682 16.6129 56.5206 16.2885 56.4163C15.9641 56.312 15.6166 56.4897 15.5123 56.8141ZM10.1446 55.0685C10.0596 55.3311 10.2025 55.613 10.4651 55.698C10.7277 55.7829 11.0096 55.64 11.0945 55.3774C11.1795 55.1148 11.0366 54.8329 10.774 54.7479C10.5114 54.6629 10.2295 54.8058 10.1446 55.0685ZM4.77686 53.3228C4.71121 53.5236 4.8232 53.7399 5.02401 53.8056C5.22482 53.8712 5.44107 53.7592 5.50672 53.5584C5.57237 53.3576 5.46038 53.1413 5.25957 53.0756C5.05876 53.01 4.84251 53.122 4.77686 53.3228ZM76.5459 71.5904C76.0169 72.5057 76.3297 73.672 77.2449 74.2011C78.1601 74.7302 79.3263 74.4174 79.8554 73.5021C80.3844 72.5868 80.0716 71.4205 79.1564 70.8913C78.2412 70.3622 77.075 70.6751 76.5459 71.5904ZM71.6571 68.7672C71.1628 69.6246 71.4562 70.7214 72.3135 71.2196C73.1708 71.7178 74.2675 71.4204 74.7657 70.5631C75.2639 69.7057 74.9665 68.6089 74.1092 68.1107C73.2519 67.6124 72.1552 67.9098 71.6571 68.7672ZM66.7682 65.944C66.3048 66.7474 66.579 67.7708 67.3822 68.2342C68.1854 68.6977 69.2088 68.4235 69.6722 67.6202C70.1356 66.8169 69.8614 65.7934 69.0582 65.33C68.2549 64.8665 67.2316 65.1407 66.7682 65.944ZM61.8793 63.1209C61.4507 63.8662 61.7055 64.8202 62.4508 65.2489C63.1961 65.6776 64.15 65.4227 64.5786 64.6773C65.0073 63.9319 64.7524 62.978 64.0071 62.5493C63.2618 62.1206 62.308 62.3755 61.8793 63.1209ZM56.9904 60.2977C56.5927 60.9851 56.8283 61.8696 57.5195 62.2674C58.2107 62.6651 59.0912 62.4296 59.4889 61.7382C59.8867 61.0469 59.6511 60.1664 58.9599 59.7686C58.2687 59.3708 57.3882 59.6064 56.9904 60.2977ZM52.1016 57.4745C51.7347 58.1079 51.9548 58.9151 52.5843 59.282C53.2137 59.6489 54.0247 59.4287 54.3915 58.7992C54.7584 58.1697 54.5383 57.3587 53.9088 56.9918C53.2794 56.6249 52.4684 56.845 52.1016 57.4745ZM47.2127 54.6514C46.8806 55.2268 47.0776 55.9644 47.6529 56.2966C48.2283 56.6287 48.9659 56.4318 49.298 55.8563C49.6301 55.2809 49.4332 54.5432 48.8578 54.2111C48.2824 53.8789 47.5448 54.0759 47.2127 54.6514ZM42.3238 51.8282C42.0226 52.3496 42.2003 53.0138 42.7216 53.3151C43.2429 53.6163 43.9071 53.4387 44.2083 52.9173C44.5095 52.3959 44.3319 51.7316 43.8106 51.4304C43.2893 51.1292 42.625 51.3068 42.3238 51.8282ZM37.435 49.005C37.1685 49.4685 37.3268 50.0632 37.7902 50.3297C38.2536 50.5962 38.8483 50.4378 39.1148 49.9744C39.3813 49.5109 39.2229 48.9162 38.7595 48.6497C38.2961 48.3832 37.7014 48.5416 37.435 49.005ZM32.5461 46.1818C32.3105 46.5912 32.4496 47.1126 32.8589 47.3482C33.2682 47.5838 33.7896 47.4447 34.0251 47.0354C34.2607 46.626 34.1217 46.1046 33.7123 45.869C33.303 45.6334 32.7817 45.7724 32.5461 46.1818ZM27.6572 43.3587C27.4526 43.7101 27.5761 44.1581 27.9275 44.3628C28.279 44.5675 28.7269 44.4439 28.9316 44.0925C29.1363 43.741 29.0127 43.293 28.6613 43.0883C28.3099 42.8836 27.8619 43.0072 27.6572 43.3587ZM22.7684 40.5355C22.5985 40.829 22.6989 41.2075 22.9962 41.3774C23.2936 41.5474 23.6681 41.4469 23.838 41.1496C24.008 40.8522 23.9076 40.4776 23.6102 40.3076C23.3129 40.1377 22.9383 40.2381 22.7684 40.5355ZM17.8795 37.7123C17.7405 37.9518 17.8216 38.2569 18.061 38.3959C18.3004 38.5349 18.6055 38.4538 18.7445 38.2144C18.8835 37.9749 18.8024 37.6698 18.563 37.5308C18.3236 37.3918 18.0185 37.4729 17.8795 37.7123ZM12.9906 34.8891C12.8864 35.0707 12.9481 35.3062 13.1296 35.4105C13.3111 35.5148 13.5467 35.453 13.651 35.2715C13.7552 35.09 13.6935 34.8544 13.512 34.7501C13.3305 34.6458 13.0949 34.7076 12.9906 34.8891ZM79.3958 67.6781C78.6892 68.4621 78.7509 69.6709 79.5387 70.3777C80.3265 71.0845 81.5313 71.0227 82.238 70.2348C82.9447 69.4469 82.8829 68.242 82.0951 67.5352C81.3074 66.8285 80.1025 66.8902 79.3958 67.6781ZM75.1982 63.901C74.534 64.6387 74.5958 65.7702 75.3295 66.4345C76.0632 67.0988 77.1985 67.037 77.8628 66.3032C78.527 65.5694 78.4652 64.434 77.7315 63.7697C76.9977 63.1054 75.8624 63.1672 75.1982 63.901ZM71.0006 60.1239C70.3827 60.8113 70.4368 61.8734 71.1241 62.4913C71.8115 63.1093 72.8735 63.0552 73.4913 62.3678C74.1092 61.6803 74.0552 60.6182 73.3678 60.0003C72.6804 59.3824 71.6184 59.4365 71.0006 60.1239ZM66.8029 56.3468C66.2276 56.9879 66.2778 57.9727 66.9188 58.5482C67.5598 59.1236 68.5446 59.0734 69.1199 58.4323C69.6953 57.7912 69.6451 56.8064 69.0041 56.2309C68.3631 55.6555 67.3783 55.7057 66.8029 56.3468ZM62.6053 52.5697C62.0724 53.1606 62.1187 54.072 62.7134 54.605C63.3081 55.138 64.2156 55.0916 64.7485 54.4969C65.2814 53.9021 65.2351 52.9945 64.6404 52.4616C64.0457 51.9286 63.1382 51.9749 62.6053 52.5697ZM58.4077 48.7926C57.9172 49.3371 57.9636 50.1713 58.5042 50.6618C59.0449 51.1523 59.8828 51.106 60.3733 50.5653C60.8637 50.0246 60.8174 49.1865 60.2767 48.696C59.7361 48.2056 58.8981 48.2519 58.4077 48.7926ZM54.2101 45.0155C53.766 45.5098 53.8046 46.2745 54.2989 46.7187C54.7932 47.1628 55.5578 47.1242 56.0019 46.6298C56.446 46.1355 56.4073 45.3708 55.913 44.9267C55.4187 44.4825 54.6541 44.5211 54.2101 45.0155ZM50.0124 41.2384C49.6108 41.6864 49.6456 42.3738 50.0935 42.7755C50.5415 43.1771 51.2288 43.1424 51.6305 42.6944C52.0321 42.2464 51.9973 41.5589 51.5494 41.1573C51.1014 40.7556 50.414 40.7904 50.0124 41.2384ZM45.8148 37.4613C45.4557 37.8591 45.4865 38.4731 45.8882 38.8323C46.2898 39.1915 46.8999 39.1606 47.259 38.7589C47.6182 38.3573 47.5873 37.7471 47.1857 37.3879C46.7841 37.0287 46.1739 37.0596 45.8148 37.4613ZM41.6172 33.6842C41.3005 34.0356 41.3314 34.5725 41.6789 34.8891C42.0265 35.2058 42.5671 35.1749 42.8838 34.8273C43.2004 34.4798 43.1695 33.9391 42.822 33.6224C42.4744 33.3057 41.9338 33.3366 41.6172 33.6842ZM37.4195 29.9071C37.1492 30.2083 37.1724 30.6756 37.4736 30.946C37.7748 31.2163 38.2421 31.1931 38.5124 30.8919C38.7827 30.5907 38.7595 30.1233 38.4583 29.853C38.1571 29.5827 37.6898 29.6058 37.4195 29.9071ZM33.2219 26.13C32.9941 26.3849 33.0134 26.7749 33.2682 27.0028C33.5231 27.2307 33.9131 27.2113 34.141 26.9565C34.3688 26.7016 34.3495 26.3115 34.0946 26.0836C33.8398 25.8558 33.4497 25.8751 33.2219 26.13ZM29.0243 22.3529C28.8389 22.5576 28.8544 22.8742 29.0629 23.0596C29.2714 23.245 29.5842 23.2296 29.7696 23.021C29.9549 22.8125 29.9395 22.4996 29.7309 22.3142C29.5224 22.1289 29.2096 22.1443 29.0243 22.3529ZM24.8266 18.5758C24.6838 18.7341 24.6992 18.9736 24.8537 19.1165C25.0081 19.2593 25.2514 19.2439 25.3943 19.0894C25.5372 18.9349 25.5217 18.6916 25.3673 18.5487C25.2128 18.4058 24.9695 18.4213 24.8266 18.5758ZM82.964 64.4571C82.1106 65.0789 81.9214 66.2723 82.5392 67.1258C83.1571 67.9793 84.3542 68.1686 85.2076 67.5507C86.0611 66.9327 86.2503 65.7355 85.6324 64.882C85.0146 64.0285 83.8174 63.8392 82.964 64.4571ZM79.6468 59.8883C78.8436 60.4715 78.666 61.5915 79.2491 62.3948C79.8322 63.1981 80.9521 63.3758 81.7553 62.7926C82.5585 62.2094 82.7362 61.0894 82.1531 60.2861C81.57 59.4828 80.4501 59.3051 79.6468 59.8883ZM76.3297 55.3195C75.5805 55.864 75.4145 56.9107 75.959 57.6599C76.5034 58.4091 77.55 58.5752 78.2991 58.0307C79.0483 57.4861 79.2143 56.4395 78.6698 55.6903C78.1253 54.941 77.0788 54.7749 76.3297 55.3195ZM73.0125 50.7507C72.3174 51.2566 72.1629 52.2298 72.6688 52.9289C73.1747 53.6279 74.1478 53.7785 74.8468 53.2726C75.5458 52.7667 75.6964 51.7934 75.1905 51.0944C74.6846 50.3953 73.7115 50.2447 73.0125 50.7507ZM69.6953 46.1818C69.0504 46.6491 68.9075 47.549 69.3748 48.194C69.8421 48.8389 70.7418 48.9818 71.3867 48.5145C72.0316 48.0472 72.1745 47.1474 71.7073 46.5024C71.24 45.8574 70.3402 45.7145 69.6953 46.1818ZM66.3782 41.613C65.7873 42.0417 65.656 42.872 66.0847 43.4629C66.5133 44.0538 67.3436 44.1851 67.9344 43.7565C68.5252 43.3278 68.6565 42.4974 68.2279 41.9065C67.7992 41.3156 66.969 41.1843 66.3782 41.613ZM63.061 37.0442C62.5242 37.4343 62.4045 38.1912 62.7945 38.728C63.1846 39.2649 63.9414 39.3846 64.4782 38.9945C65.015 38.6045 65.1347 37.8475 64.7447 37.3107C64.3546 36.7738 63.5978 36.6541 63.061 37.0442ZM59.7438 32.4753C59.2572 32.8268 59.1491 33.5104 59.5044 33.997C59.8597 34.4836 60.5393 34.5918 61.0259 34.2365C61.5125 33.8811 61.6206 33.2014 61.2653 32.7148C60.91 32.2282 60.2304 32.12 59.7438 32.4753ZM56.4266 27.9065C55.9941 28.2232 55.8976 28.8296 56.2104 29.2621C56.5232 29.6947 57.1333 29.7912 57.5658 29.4784C57.9983 29.1656 58.0949 28.5554 57.7821 28.1228C57.4693 27.6903 56.8591 27.5937 56.4266 27.9065ZM53.1095 23.3377C52.7272 23.6158 52.6422 24.1487 52.9202 24.5272C53.1983 24.9057 53.7312 24.9945 54.1096 24.7165C54.4881 24.4384 54.5769 23.9054 54.2989 23.5269C54.0208 23.1485 53.4879 23.0596 53.1095 23.3377ZM49.7923 18.7689C49.4641 19.0083 49.3907 19.4679 49.6301 19.7962C49.8695 20.1245 50.3291 20.1978 50.6573 19.9584C50.9856 19.7189 51.0589 19.2593 50.8195 18.9311C50.5801 18.6028 50.1205 18.5294 49.7923 18.7689ZM46.4751 14.2C46.201 14.4009 46.1392 14.7871 46.34 15.0613C46.5408 15.3355 46.9269 15.3973 47.2011 15.1965C47.4753 14.9956 47.5371 14.6094 47.3363 14.3352C47.1355 14.061 46.7493 13.9992 46.4751 14.2ZM43.158 9.63121C42.934 9.79342 42.8838 10.1062 43.046 10.3302C43.2082 10.5542 43.521 10.6045 43.7449 10.4423C43.9689 10.28 44.0191 9.96722 43.8569 9.74322C43.6947 9.51922 43.3819 9.46901 43.158 9.63121ZM39.8408 5.06238C39.6709 5.18597 39.6323 5.42542 39.7558 5.59535C39.8794 5.76528 40.1188 5.8039 40.2887 5.68031C40.4587 5.55673 40.4973 5.31728 40.3737 5.14735C40.2501 4.97742 40.0107 4.9388 39.8408 5.06238ZM87.1694 62.0318C86.2039 62.4604 85.7714 63.592 86.2001 64.5537C86.6287 65.5154 87.7602 65.9518 88.7218 65.5231C89.6833 65.0944 90.1197 63.9628 89.691 63.0011C89.2624 62.0395 88.1309 61.6031 87.1694 62.0318ZM84.8717 56.872C83.968 57.2737 83.5587 58.3358 83.9642 59.2395C84.3697 60.1432 85.4278 60.5526 86.3314 60.1471C87.235 59.7416 87.6444 58.6833 87.2389 57.7796C86.8334 56.8759 85.7753 56.4665 84.8717 56.872ZM82.574 51.7123C81.7283 52.0908 81.3498 53.0795 81.7244 53.9253C82.099 54.7711 83.0914 55.1496 83.9372 54.7749C84.7829 54.4003 85.1613 53.4078 84.7867 52.562C84.4121 51.7162 83.4197 51.3377 82.574 51.7123ZM80.2763 46.5526C79.4885 46.904 79.1371 47.8232 79.4847 48.6111C79.8322 49.3989 80.7551 49.7504 81.5429 49.4028C82.3307 49.0552 82.6821 48.1322 82.3346 47.3443C81.987 46.5565 81.0641 46.205 80.2763 46.5526ZM77.9786 41.3929C77.2526 41.7173 76.9244 42.5669 77.2487 43.2969C77.5731 44.0268 78.4227 44.3512 79.1525 44.0268C79.8824 43.7024 80.2068 42.8527 79.8824 42.1228C79.558 41.3929 78.7085 41.0685 77.9786 41.3929ZM75.6809 36.2331C75.0128 36.5305 74.7116 37.3145 75.009 37.9788C75.3063 38.6431 76.0902 38.9482 76.7545 38.6508C77.4187 38.3534 77.7237 37.5694 77.4264 36.9051C77.129 36.2409 76.3451 35.9358 75.6809 36.2331ZM73.3832 31.0734C72.7731 31.3438 72.5028 32.0582 72.7731 32.6646C73.0434 33.2709 73.7578 33.5451 74.3641 33.2748C74.9704 33.0045 75.2445 32.29 74.9742 31.6836C74.7039 31.0773 73.9895 30.8031 73.3832 31.0734ZM71.0855 25.9137C70.5372 26.157 70.29 26.802 70.5333 27.3504C70.7766 27.8988 71.4215 28.146 71.9698 27.9027C72.5182 27.6594 72.7654 27.0144 72.5221 26.466C72.2788 25.9176 71.6339 25.6704 71.0855 25.9137ZM68.7878 20.754C68.2974 20.9702 68.0773 21.5457 68.2974 22.0362C68.5175 22.5267 69.089 22.7468 69.5795 22.5267C70.0699 22.3065 70.29 21.7349 70.0699 21.2445C69.8498 20.754 69.2783 20.5338 68.7878 20.754ZM66.4901 15.5942C66.0615 15.7874 65.8646 16.2894 66.0576 16.722C66.2507 17.1545 66.7527 17.3476 67.1852 17.1545C67.6178 16.9614 67.8108 16.4594 67.6178 16.0268C67.4247 15.5942 66.9227 15.4011 66.4901 15.5942ZM64.1925 10.4345C63.8217 10.6006 63.6557 11.0331 63.8217 11.4039C63.9878 11.7747 64.4203 11.9407 64.791 11.7747C65.1617 11.6086 65.3278 11.176 65.1617 10.8053C64.9957 10.4345 64.5632 10.2685 64.1925 10.4345ZM61.8948 5.2748C61.582 5.41384 61.443 5.77687 61.582 6.08969C61.721 6.40252 62.084 6.54155 62.3968 6.40252C62.7096 6.26348 62.8486 5.90046 62.7096 5.58763C62.5706 5.2748 62.2076 5.13577 61.8948 5.2748ZM59.5971 0.115071C59.3461 0.227071 59.2302 0.524459 59.3422 0.775494C59.4542 1.02653 59.7515 1.14239 60.0025 1.03039C60.2536 0.918391 60.3694 0.621003 60.2574 0.369969C60.1454 0.118935 59.8481 0.00307083 59.5971 0.115071ZM57.2994 -5.04465C57.1063 -4.95968 57.0213 -4.73182 57.1063 -4.53872C57.1913 -4.34561 57.4191 -4.26065 57.6122 -4.34561C57.8053 -4.43058 57.8902 -4.65844 57.8053 -4.85154C57.7203 -5.04465 57.4925 -5.12961 57.2994 -5.04465ZM91.7493 60.5178C90.7182 60.738 90.0579 61.7537 90.278 62.7849C90.4981 63.816 91.5137 64.4765 92.5448 64.2563C93.5759 64.0362 94.2362 63.0205 94.0161 61.9893C93.796 60.9581 92.7804 60.2977 91.7493 60.5178ZM90.5754 54.9951C89.6061 55.1998 88.9882 56.1537 89.1929 57.1231C89.3976 58.0925 90.3514 58.7104 91.3207 58.5057C92.2899 58.301 92.9078 57.3471 92.7031 56.3777C92.4985 55.4083 91.5446 54.7904 90.5754 54.9951ZM89.4014 49.4723C88.4978 49.6654 87.9185 50.5537 88.1116 51.4613C88.3047 52.3689 89.1929 52.9443 90.1004 52.7512C91.0079 52.5581 91.5833 51.6698 91.3902 50.7622C91.1971 49.8547 90.3089 49.2792 89.4014 49.4723ZM88.2275 43.9496C87.3856 44.1272 86.8489 44.9576 87.0265 45.7995C87.2041 46.6414 88.0344 47.1783 88.8762 47.0006C89.7181 46.8229 90.2548 45.9926 90.0772 45.1507C89.8996 44.3087 89.0693 43.7719 88.2275 43.9496ZM87.0535 38.4268C86.2735 38.5929 85.7792 39.3576 85.9452 40.1377C86.1113 40.9178 86.8759 41.4122 87.6559 41.2461C88.436 41.08 88.9303 40.3153 88.7642 39.5352C88.5982 38.7551 87.8336 38.2607 87.0535 38.4268ZM85.8796 32.904C85.1652 33.0547 84.7095 33.7576 84.8601 34.472C85.0107 35.1865 85.7135 35.6422 86.4279 35.4916C87.1423 35.341 87.598 34.6381 87.4474 33.9236C87.2968 33.2091 86.594 32.7534 85.8796 32.904ZM84.7056 27.3813C84.053 27.5203 83.6398 28.1614 83.7788 28.8102C83.9178 29.4591 84.5589 29.8762 85.2076 29.7371C85.8564 29.5981 86.2735 28.957 86.1344 28.3082C85.9954 27.6593 85.3544 27.2422 84.7056 27.3813ZM83.5317 21.8585C82.9447 21.9821 82.5701 22.5614 82.6937 23.1485C82.8173 23.7355 83.3965 24.1101 83.9835 23.9865C84.5705 23.8629 84.945 23.2836 84.8215 22.6966C84.6979 22.1096 84.1187 21.7349 83.5317 21.8585ZM82.3577 16.3358C81.8326 16.4478 81.5004 16.9614 81.6086 17.4867C81.7167 18.0119 82.2342 18.344 82.7593 18.2359C83.2845 18.1278 83.6166 17.6102 83.5085 17.085C83.4004 16.5598 82.8829 16.2276 82.3577 16.3358ZM81.1838 10.813C80.7242 10.9096 80.4308 11.3653 80.5273 11.8249C80.6238 12.2845 81.0795 12.578 81.5391 12.4814C81.9986 12.3849 82.2921 11.9291 82.1955 11.4696C82.099 11.01 81.6433 10.7165 81.1838 10.813ZM80.0098 5.29025C79.6121 5.37522 79.3611 5.76528 79.4422 6.16307C79.5233 6.56087 79.9172 6.8119 80.3149 6.7308C80.7127 6.64969 80.9637 6.25577 80.8826 5.85798C80.8015 5.46018 80.4076 5.20915 80.0098 5.29025ZM78.8359 -0.232512C78.5038 -0.162995 78.2875 0.165277 78.3609 0.501278C78.4343 0.837278 78.7587 1.0497 79.0946 0.976316C79.4306 0.902937 79.643 0.578526 79.5696 0.242526C79.4962 -0.0934744 79.1719 -0.305892 78.8359 -0.232512ZM77.6619 -5.75527C77.3916 -5.69734 77.2179 -5.43085 77.2758 -5.1605C77.3337 -4.89016 77.6002 -4.71637 77.8705 -4.7743C78.1408 -4.83223 78.3146 -5.09871 78.2566 -5.36906C78.1987 -5.6394 77.9323 -5.8132 77.6619 -5.75527ZM76.488 -11.278C76.2833 -11.2355 76.1482 -11.0309 76.1945 -10.8262C76.2409 -10.6215 76.4417 -10.4863 76.6463 -10.5326C76.851 -10.579 76.9862 -10.7798 76.9398 -10.9845C76.8935 -11.1892 76.6927 -11.3244 76.488 -11.278ZM96.5571 60.0158C95.5028 60.0158 94.6456 60.8731 94.6456 61.9275C94.6456 62.9818 95.5028 63.8392 96.5571 63.8392C97.6113 63.8392 98.4686 62.9818 98.4686 61.9275C98.4686 60.8731 97.6113 60.0158 96.5571 60.0158ZM96.5571 54.3694C95.5646 54.3694 94.7614 55.1727 94.7614 56.1653C94.7614 57.1578 95.5646 57.9611 96.5571 57.9611C97.5495 57.9611 98.3528 57.1578 98.3528 56.1653C98.3528 55.1727 97.5495 54.3694 96.5571 54.3694ZM96.5571 48.7231C95.6303 48.7231 94.8811 49.4723 94.8811 50.3992C94.8811 51.3261 95.6303 52.0753 96.5571 52.0753C97.4839 52.0753 98.233 51.3261 98.233 50.3992C98.233 49.4723 97.4839 48.7231 96.5571 48.7231ZM96.5571 43.0767C95.6959 43.0767 94.997 43.7758 94.997 44.637C94.997 45.4982 95.6959 46.1973 96.5571 46.1973C97.4182 46.1973 98.1172 45.4982 98.1172 44.637C98.1172 43.7758 97.4182 43.0767 96.5571 43.0767ZM96.5571 37.4304C95.7616 37.4304 95.1167 38.0753 95.1167 38.8709C95.1167 39.6665 95.7616 40.3115 96.5571 40.3115C97.3526 40.3115 97.9975 39.6665 97.9975 38.8709C97.9975 38.0753 97.3526 37.4304 96.5571 37.4304ZM96.5571 31.784C95.8272 31.784 95.2325 32.3749 95.2325 33.1087C95.2325 33.8425 95.8234 34.4334 96.5571 34.4334C97.2908 34.4334 97.8816 33.8425 97.8816 33.1087C97.8816 32.3749 97.2908 31.784 96.5571 31.784ZM96.5571 26.1377C95.8929 26.1377 95.3522 26.6784 95.3522 27.3427C95.3522 28.0069 95.8929 28.5476 96.5571 28.5476C97.2213 28.5476 97.7619 28.0069 97.7619 27.3427C97.7619 26.6784 97.2213 26.1377 96.5571 26.1377ZM96.5571 20.4914C95.9547 20.4914 95.4681 20.978 95.4681 21.5805C95.4681 22.1829 95.9547 22.6696 96.5571 22.6696C97.1595 22.6696 97.6461 22.1829 97.6461 21.5805C97.6461 20.978 97.1595 20.4914 96.5571 20.4914ZM96.5571 14.845C96.0203 14.845 95.5878 15.2814 95.5878 15.8144C95.5878 16.3474 96.0242 16.7838 96.5571 16.7838C97.09 16.7838 97.5264 16.3474 97.5264 15.8144C97.5264 15.2814 97.09 14.845 96.5571 14.845ZM96.5571 9.19867C96.086 9.19867 95.7037 9.58101 95.7037 10.0522C95.7037 10.5234 96.086 10.9057 96.5571 10.9057C97.0282 10.9057 97.4105 10.5234 97.4105 10.0522C97.4105 9.58101 97.0282 9.19867 96.5571 9.19867ZM96.5571 3.55232C96.1516 3.55232 95.8234 3.8806 95.8234 4.28611C95.8234 4.69163 96.1516 5.0199 96.5571 5.0199C96.9625 5.0199 97.2908 4.69163 97.2908 4.28611C97.2908 3.8806 96.9625 3.55232 96.5571 3.55232ZM96.5571 -2.09403C96.2172 -2.09403 95.9392 -1.81596 95.9392 -1.4761C95.9392 -1.13624 96.2172 -0.858166 96.5571 -0.858166C96.8969 -0.858166 97.1749 -1.13624 97.1749 -1.4761C97.1749 -1.81596 96.8969 -2.09403 96.5571 -2.09403ZM96.5571 -7.74038C96.2829 -7.74038 96.0589 -7.51637 96.0589 -7.24217C96.0589 -6.96796 96.2829 -6.74396 96.5571 -6.74396C96.8313 -6.74396 97.0552 -6.96796 97.0552 -7.24217C97.0552 -7.51637 96.8313 -7.74038 96.5571 -7.74038ZM96.5571 -13.3867C96.3447 -13.3867 96.1748 -13.2168 96.1748 -13.0044C96.1748 -12.792 96.3447 -12.622 96.5571 -12.622C96.7695 -12.622 96.9394 -12.792 96.9394 -13.0044C96.9394 -13.2168 96.7695 -13.3867 96.5571 -13.3867ZM101.365 60.5217C100.334 60.3016 99.3182 60.962 99.0981 61.9931C98.8779 63.0243 99.5383 64.04 100.569 64.2602C101.6 64.4803 102.616 63.8199 102.836 62.7887C103.056 61.7576 102.396 60.7418 101.365 60.5217ZM102.539 54.9989C101.57 54.7943 100.616 55.4122 100.411 56.3816C100.206 57.3509 100.824 58.3049 101.794 58.5096C102.763 58.7142 103.717 58.0963 103.921 57.1269C104.126 56.1576 103.508 55.2036 102.539 54.9989ZM103.713 49.4762C102.809 49.2831 101.917 49.8624 101.724 50.7661C101.531 51.6698 102.11 52.562 103.014 52.7551C103.917 52.9482 104.809 52.3689 105.003 51.4651C105.196 50.5614 104.616 49.6693 103.713 49.4762ZM104.887 43.9534C104.045 43.7758 103.218 44.3126 103.037 45.1545C102.855 45.9965 103.396 46.8229 104.238 47.0045C105.08 47.186 105.906 46.6453 106.088 45.8034C106.269 44.9614 105.729 44.1349 104.887 43.9534ZM106.061 38.4307C105.281 38.2646 104.516 38.7628 104.35 39.5391C104.184 40.3154 104.682 41.0839 105.458 41.25C106.234 41.416 107.003 40.9178 107.169 40.1416C107.335 39.3653 106.837 38.5967 106.061 38.4307ZM107.235 32.9079C106.52 32.7573 105.817 33.213 105.667 33.9275C105.516 34.642 105.972 35.3449 106.686 35.4955C107.401 35.6461 108.103 35.1904 108.254 34.4759C108.405 33.7614 107.949 33.0585 107.235 32.9079ZM108.409 27.3851C107.756 27.2461 107.119 27.6632 106.98 28.312C106.841 28.9609 107.258 29.602 107.907 29.741C108.555 29.88 109.196 29.4629 109.335 28.8141C109.474 28.1653 109.057 27.5242 108.409 27.3851ZM109.582 21.8624C108.996 21.7388 108.416 22.1134 108.293 22.7005C108.169 23.2875 108.544 23.8668 109.131 23.9904C109.718 24.114 110.297 23.7394 110.42 23.1523C110.544 22.5653 110.169 21.986 109.582 21.8624ZM110.756 16.3396C110.231 16.2276 109.718 16.5636 109.606 17.0889C109.494 17.6141 109.83 18.1278 110.355 18.2398C110.88 18.3518 111.394 18.0158 111.506 17.4905C111.618 16.9653 111.282 16.4516 110.756 16.3396ZM111.93 10.8169C111.471 10.7203 111.015 11.0138 110.919 11.4734C110.822 11.933 111.116 12.3887 111.575 12.4853C112.035 12.5818 112.49 12.2883 112.587 11.8287C112.683 11.3691 112.39 10.9134 111.93 10.8169ZM113.104 5.29411C112.707 5.20914 112.317 5.46404 112.232 5.86183C112.147 6.25962 112.402 6.6497 112.799 6.73466C113.197 6.81963 113.587 6.56473 113.672 6.16694C113.757 5.76915 113.502 5.37907 113.104 5.29411ZM114.278 -0.228647C113.946 -0.298164 113.618 -0.0857458 113.545 0.246391C113.471 0.578529 113.687 0.906803 114.02 0.980183C114.352 1.05356 114.68 0.837281 114.753 0.505144C114.827 0.173006 114.61 -0.155268 114.278 -0.228647ZM115.452 -5.75141C115.182 -5.80934 114.915 -5.63555 114.858 -5.36521C114.8 -5.09486 114.973 -4.82837 115.244 -4.77044C115.514 -4.71251 115.78 -4.88631 115.838 -5.15665C115.896 -5.427 115.723 -5.69348 115.452 -5.75141ZM116.626 -11.2742C116.422 -11.3166 116.217 -11.1853 116.174 -10.9806C116.132 -10.776 116.263 -10.5713 116.468 -10.5288C116.673 -10.4863 116.877 -10.6176 116.92 -10.8223C116.962 -11.027 116.831 -11.2317 116.626 -11.2742ZM105.964 62.0202C104.999 61.5915 103.871 62.024 103.442 62.9896C103.014 63.9551 103.446 65.0828 104.412 65.5115C105.377 65.9402 106.505 65.5076 106.933 64.5421C107.362 63.5766 106.93 62.4489 105.964 62.0202ZM108.262 56.8605C107.358 56.4588 106.296 56.8643 105.895 57.768C105.493 58.6718 105.898 59.7338 106.802 60.1355C107.706 60.5371 108.768 60.1316 109.169 59.2279C109.571 58.3242 109.165 57.2621 108.262 56.8605ZM110.559 51.7007C109.714 51.3222 108.721 51.7007 108.347 52.5504C107.972 53.4 108.347 54.3887 109.196 54.7633C110.046 55.138 111.034 54.7634 111.409 53.9137C111.784 53.064 111.409 52.0753 110.559 51.7007ZM112.857 46.541C112.069 46.1896 111.15 46.541 110.799 47.3327C110.448 48.1245 110.799 49.0398 111.591 49.3912C112.382 49.7427 113.297 49.3912 113.649 48.5995C114 47.8078 113.649 46.8925 112.857 46.541ZM115.155 41.3813C114.429 41.0569 113.575 41.3813 113.251 42.1112C112.927 42.8411 113.251 43.6908 113.981 44.0152C114.711 44.3396 115.56 44.0152 115.885 43.2853C116.209 42.5553 115.885 41.7057 115.155 41.3813ZM117.453 36.2216C116.784 35.9242 116.004 36.2216 115.707 36.8936C115.41 37.5656 115.707 38.3418 116.379 38.6392C117.051 38.9366 117.827 38.6392 118.124 37.9672C118.422 37.2952 118.124 36.5189 117.453 36.2216ZM119.75 31.0618C119.14 30.7915 118.43 31.0618 118.159 31.672C117.889 32.2823 118.159 32.9929 118.769 33.2632C119.38 33.5336 120.09 33.2632 120.36 32.653C120.631 32.0428 120.36 31.3322 119.75 31.0618ZM122.048 25.9021C121.5 25.6588 120.855 25.9021 120.611 26.4544C120.368 27.0067 120.611 27.6478 121.164 27.8911C121.716 28.1344 122.357 27.8911 122.6 27.3388C122.843 26.7865 122.6 26.1454 122.048 25.9021ZM124.346 20.7424C123.855 20.5261 123.284 20.7424 123.064 21.2329C122.843 21.7234 123.064 22.2949 123.554 22.5151C124.044 22.7352 124.616 22.5151 124.836 22.0246C125.056 21.5341 124.836 20.9625 124.346 20.7424ZM126.643 15.5827C126.215 15.3896 125.709 15.5827 125.516 16.0152C125.323 16.4478 125.516 16.9498 125.948 17.1429C126.381 17.336 126.883 17.1429 127.076 16.7104C127.269 16.2778 127.076 15.7758 126.643 15.5827ZM128.941 10.4229C128.57 10.2569 128.134 10.4229 127.972 10.7937C127.81 11.1645 127.972 11.6009 128.342 11.7631C128.713 11.9253 129.15 11.7631 129.312 11.3923C129.474 11.0216 129.312 10.5851 128.941 10.4229ZM131.239 5.26322C130.926 5.12418 130.563 5.26321 130.424 5.57604C130.285 5.88887 130.424 6.2519 130.737 6.39093C131.049 6.52997 131.412 6.39093 131.551 6.07811C131.691 5.76528 131.551 5.40225 131.239 5.26322ZM133.536 0.103485C133.285 -0.0085144 132.988 0.103487 132.876 0.358383C132.764 0.613279 132.876 0.906805 133.131 1.01881C133.386 1.13081 133.679 1.0188 133.791 0.763907C133.903 0.509011 133.791 0.215486 133.536 0.103485ZM135.834 -5.05623C135.641 -5.1412 135.417 -5.05623 135.328 -4.86313C135.239 -4.67003 135.328 -4.44603 135.521 -4.3572C135.714 -4.26837 135.938 -4.3572 136.027 -4.5503C136.116 -4.74341 136.027 -4.96741 135.834 -5.05623ZM110.169 64.4185C109.316 63.7967 108.119 63.986 107.501 64.8433C106.883 65.7007 107.069 66.8941 107.926 67.512C108.783 68.13 109.976 67.9446 110.594 67.0872C111.212 66.2298 111.027 65.0365 110.169 64.4185ZM113.487 59.8497C112.683 59.2665 111.564 59.4442 110.98 60.2475C110.397 61.0508 110.575 62.1708 111.378 62.754C112.181 63.3371 113.301 63.1595 113.884 62.3562C114.467 61.5529 114.29 60.4329 113.487 59.8497ZM116.804 55.2809C116.055 54.7363 115.008 54.9024 114.464 55.6516C113.919 56.4009 114.085 57.4475 114.834 57.992C115.584 58.5366 116.63 58.3705 117.175 57.6213C117.719 56.872 117.553 55.8254 116.804 55.2809ZM120.121 50.712C119.426 50.2061 118.449 50.3606 117.943 51.0558C117.437 51.7509 117.592 52.728 118.287 53.234C118.982 53.7399 119.959 53.5854 120.465 52.8903C120.971 52.1951 120.816 51.218 120.121 50.712ZM123.438 46.1432C122.793 45.6759 121.893 45.8188 121.426 46.4638C120.959 47.1087 121.102 48.0086 121.747 48.4759C122.392 48.9432 123.291 48.8003 123.759 48.1554C124.226 47.5104 124.083 46.6105 123.438 46.1432ZM126.755 41.5744C126.164 41.1457 125.338 41.277 124.906 41.8679C124.473 42.4588 124.608 43.2853 125.199 43.7178C125.79 44.1504 126.616 44.0152 127.049 43.4243C127.481 42.8334 127.346 42.0069 126.755 41.5744ZM130.072 37.0056C129.536 36.6155 128.779 36.7352 128.389 37.272C127.999 37.8089 128.118 38.5658 128.655 38.9559C129.192 39.346 129.949 39.2262 130.339 38.6894C130.729 38.1526 130.609 37.3956 130.072 37.0056ZM133.39 32.4367C132.903 32.0853 132.223 32.1896 131.868 32.6762C131.513 33.1628 131.621 33.8425 132.108 34.1978C132.594 34.5531 133.274 34.445 133.629 33.9584C133.984 33.4718 133.876 32.792 133.39 32.4367ZM136.707 27.8679C136.274 27.5512 135.668 27.6478 135.351 28.0842C135.035 28.5206 135.131 29.1231 135.568 29.4398C136.004 29.7565 136.606 29.6599 136.923 29.2235C137.24 28.7871 137.143 28.1846 136.707 27.8679ZM140.024 23.2991C139.642 23.021 139.109 23.106 138.835 23.4883C138.56 23.8707 138.642 24.4036 139.024 24.6778C139.406 24.952 139.939 24.8709 140.213 24.4886C140.487 24.1063 140.406 23.5733 140.024 23.2991ZM143.341 18.7302C143.013 18.4908 142.553 18.5642 142.314 18.8925C142.075 19.2207 142.148 19.6803 142.476 19.9198C142.804 20.1592 143.264 20.0858 143.503 19.7576C143.743 19.4293 143.669 18.9697 143.341 18.7302ZM146.658 14.1614C146.384 13.9606 145.998 14.0224 145.797 14.2966C145.596 14.5708 145.658 14.957 145.932 15.1578C146.207 15.3587 146.593 15.2969 146.794 15.0227C146.994 14.7485 146.933 14.3623 146.658 14.1614ZM149.976 9.59259C149.752 9.43038 149.439 9.48059 149.277 9.7046C149.114 9.92859 149.165 10.2414 149.389 10.4036C149.613 10.5658 149.925 10.5156 150.087 10.2916C150.25 10.0676 150.199 9.7548 149.976 9.59259ZM153.293 5.02377C153.123 4.90018 152.883 4.9388 152.76 5.10874C152.636 5.27867 152.675 5.5181 152.845 5.64169C153.015 5.76528 153.254 5.72667 153.378 5.55674C153.501 5.3868 153.463 5.14736 153.293 5.02377ZM113.745 67.6433C113.039 66.8594 111.83 66.7937 111.046 67.5005C110.262 68.2072 110.196 69.416 110.903 70.2C111.61 70.984 112.819 71.0497 113.602 70.3429C114.386 69.6362 114.452 68.4273 113.745 67.6433ZM117.943 63.8662C117.279 63.1286 116.147 63.0707 115.41 63.7349C114.672 64.3992 114.614 65.5308 115.278 66.2685C115.943 67.0061 117.074 67.064 117.812 66.3998C118.549 65.7355 118.607 64.6039 117.943 63.8662ZM122.141 60.0891C121.523 59.4017 120.461 59.3438 119.773 59.9656C119.086 60.5873 119.028 61.6456 119.65 62.333C120.272 63.0205 121.33 63.0784 122.017 62.4566C122.704 61.8348 122.762 60.7766 122.141 60.0891ZM126.338 56.312C125.763 55.6709 124.778 55.6207 124.137 56.1962C123.496 56.7716 123.446 57.7565 124.021 58.3976C124.597 59.0387 125.581 59.0889 126.222 58.5134C126.863 57.938 126.914 56.9531 126.338 56.312ZM130.536 52.5349C130.003 51.944 129.092 51.8938 128.501 52.4268C127.91 52.9598 127.86 53.8712 128.393 54.4621C128.926 55.053 129.837 55.1032 130.428 54.5702C131.019 54.0373 131.069 53.1258 130.536 52.5349ZM134.734 48.7578C134.243 48.2133 133.409 48.1708 132.864 48.6613C132.32 49.1518 132.277 49.986 132.768 50.5305C133.258 51.0751 134.092 51.1176 134.637 50.6271C135.181 50.1366 135.224 49.3024 134.734 48.7578ZM138.931 44.9807C138.487 44.4864 137.722 44.4478 137.228 44.8919C136.734 45.336 136.695 46.1007 137.139 46.5951C137.583 47.0894 138.348 47.128 138.842 46.6839C139.337 46.2398 139.375 45.4751 138.931 44.9807ZM143.129 41.2036C142.727 40.7556 142.04 40.7209 141.592 41.1225C141.144 41.5242 141.109 42.2116 141.511 42.6596C141.912 43.1076 142.6 43.1424 143.048 42.7407C143.496 42.3391 143.53 41.6516 143.129 41.2036ZM147.326 37.4265C146.967 37.0287 146.353 36.9978 145.956 37.3531C145.558 37.7085 145.527 38.3264 145.882 38.7242C146.237 39.122 146.855 39.1529 147.253 38.7976C147.651 38.4422 147.682 37.8243 147.326 37.4265ZM151.524 33.6494C151.207 33.298 150.671 33.2709 150.319 33.5876C149.968 33.9043 149.941 34.4411 150.257 34.7926C150.574 35.144 151.111 35.1711 151.462 34.8544C151.814 34.5377 151.841 34.0009 151.524 33.6494ZM155.722 29.8723C155.451 29.5711 154.984 29.5479 154.683 29.8182C154.382 30.0886 154.359 30.5559 154.629 30.8571C154.899 31.1584 155.366 31.1816 155.668 30.9112C155.969 30.6409 155.992 30.1736 155.722 29.8723ZM159.919 26.0952C159.691 25.8403 159.301 25.821 159.047 26.0489C158.792 26.2767 158.772 26.6668 159 26.9217C159.228 27.1766 159.618 27.1959 159.873 26.968C160.128 26.7402 160.147 26.3501 159.919 26.0952ZM164.117 22.3181C163.932 22.1134 163.615 22.098 163.41 22.2795C163.206 22.461 163.19 22.7816 163.372 22.9862C163.553 23.1909 163.874 23.2064 164.078 23.0249C164.283 22.8433 164.298 22.5228 164.117 22.3181ZM168.315 18.541C168.172 18.3827 167.932 18.3711 167.774 18.514C167.616 18.6569 167.604 18.8963 167.747 19.0547C167.89 19.213 168.129 19.2246 168.288 19.0817C168.446 18.9388 168.457 18.6994 168.315 18.541ZM116.611 71.5711C116.082 70.6558 114.915 70.3429 114 70.872C113.085 71.4011 112.772 72.5675 113.301 73.4828C113.83 74.3981 114.997 74.7109 115.912 74.1818C116.827 73.6527 117.14 72.4864 116.611 71.5711ZM121.5 68.7479C121.005 67.8905 119.909 67.597 119.047 68.0913C118.186 68.5857 117.897 69.6825 118.391 70.5438C118.885 71.405 119.982 71.6947 120.843 71.2003C121.704 70.706 121.994 69.6091 121.5 68.7479ZM126.388 65.9247C125.925 65.1214 124.902 64.8472 124.098 65.3107C123.295 65.7741 123.021 66.7976 123.484 67.6009C123.948 68.4042 124.971 68.6784 125.774 68.2149C126.578 67.7515 126.852 66.728 126.388 65.9247ZM131.277 63.1016C130.849 62.3562 129.895 62.1013 129.15 62.53C128.404 62.9587 128.149 63.9126 128.578 64.658C129.007 65.4034 129.96 65.6582 130.706 65.2296C131.451 64.8009 131.706 63.8469 131.277 63.1016ZM136.166 60.2784C135.768 59.5909 134.888 59.3515 134.197 59.7493C133.506 60.1471 133.27 61.0276 133.668 61.7189C134.065 62.4102 134.946 62.6458 135.637 62.248C136.328 61.8502 136.564 60.9697 136.166 60.2784ZM141.055 57.4552C140.688 56.8218 139.881 56.6056 139.248 56.9725C138.614 57.3393 138.398 58.1465 138.765 58.7799C139.132 59.4133 139.939 59.6296 140.572 59.2627C141.206 58.8958 141.422 58.0886 141.055 57.4552ZM145.944 54.632C145.612 54.0566 144.874 53.8596 144.299 54.1918C143.723 54.5239 143.527 55.2616 143.859 55.837C144.191 56.4125 144.928 56.6094 145.504 56.2773C146.079 55.9451 146.276 55.2075 145.944 54.632ZM150.833 51.8089C150.532 51.2875 149.867 51.1098 149.346 51.4111C148.825 51.7123 148.647 52.3766 148.948 52.898C149.25 53.4193 149.914 53.597 150.435 53.2958C150.956 52.9945 151.134 52.3302 150.833 51.8089ZM155.722 48.9857C155.455 48.5222 154.861 48.3639 154.397 48.6304C153.934 48.8969 153.775 49.4916 154.042 49.9551C154.308 50.4185 154.903 50.5769 155.366 50.3104C155.83 50.0439 155.988 49.4491 155.722 48.9857ZM160.611 46.1625C160.375 45.7531 159.854 45.6141 159.444 45.8497C159.035 46.0853 158.896 46.6067 159.132 47.016C159.367 47.4254 159.888 47.5644 160.298 47.3289C160.707 47.0933 160.846 46.5719 160.611 46.1625ZM165.499 43.3394C165.295 42.9879 164.847 42.8682 164.495 43.069C164.144 43.2698 164.024 43.7217 164.225 44.0731C164.426 44.4246 164.878 44.5443 165.229 44.3435C165.581 44.1427 165.7 43.6908 165.499 43.3394ZM170.388 40.5162C170.218 40.2227 169.84 40.1184 169.546 40.2883C169.253 40.4583 169.149 40.8367 169.319 41.1302C169.489 41.4238 169.867 41.528 170.16 41.3581C170.454 41.1882 170.558 40.8097 170.388 40.5162ZM175.277 37.693C175.138 37.4536 174.833 37.3725 174.594 37.5115C174.354 37.6505 174.273 37.9556 174.412 38.1951C174.551 38.4345 174.856 38.5156 175.096 38.3766C175.335 38.2376 175.416 37.9325 175.277 37.693ZM180.166 34.8698C180.062 34.6883 179.826 34.6227 179.645 34.7308C179.463 34.8389 179.398 35.0707 179.506 35.2522C179.614 35.4337 179.846 35.4994 180.027 35.3912C180.208 35.2831 180.274 35.0514 180.166 34.8698ZM118.569 75.9893C118.244 74.9851 117.163 74.4367 116.159 74.7611C115.155 75.0856 114.607 76.1669 114.931 77.1711C115.255 78.1752 116.337 78.7236 117.341 78.3992C118.345 78.0748 118.893 76.9934 118.569 75.9893ZM123.936 74.2436C123.631 73.3013 122.619 72.7838 121.677 73.0927C120.735 73.4017 120.218 74.4097 120.526 75.352C120.835 76.2944 121.843 76.8119 122.786 76.5029C123.728 76.194 124.245 75.186 123.936 74.2436ZM129.304 72.498C129.018 71.6174 128.072 71.1347 127.192 71.4204C126.311 71.7062 125.829 72.6525 126.114 73.533C126.4 74.4136 127.346 74.8963 128.227 74.6105C129.107 74.3247 129.59 73.3785 129.304 72.498ZM134.672 70.7523C134.405 69.9336 133.525 69.4855 132.706 69.752C131.887 70.0185 131.44 70.8991 131.706 71.7178C131.972 72.5366 132.853 72.9846 133.672 72.7181C134.49 72.4516 134.938 71.5711 134.672 70.7523ZM140.039 69.0067C139.792 68.2497 138.981 67.8365 138.224 68.0798C137.468 68.3231 137.054 69.138 137.298 69.8949C137.541 70.6519 138.356 71.0651 139.113 70.8218C139.87 70.5785 140.283 69.7636 140.039 69.0067ZM145.407 67.261C145.183 66.5658 144.434 66.1873 143.739 66.4113C143.044 66.6353 142.665 67.3846 142.889 68.0798C143.113 68.7749 143.862 69.1534 144.558 68.9294C145.253 68.7054 145.631 67.9562 145.407 67.261ZM150.775 65.5154C150.57 64.882 149.891 64.5344 149.257 64.7429C148.624 64.9515 148.276 65.6274 148.485 66.2607C148.693 66.8941 149.369 67.2417 150.003 67.0331C150.636 66.8246 150.983 66.1487 150.775 65.5154ZM156.143 63.7697C155.957 63.1981 155.343 62.8853 154.772 63.0707C154.2 63.256 153.887 63.8701 154.073 64.4417C154.258 65.0133 154.872 65.3261 155.444 65.1407C156.015 64.9554 156.328 64.3413 156.143 63.7697ZM161.51 62.024C161.344 61.5143 160.796 61.2362 160.286 61.4022C159.776 61.5683 159.498 62.1167 159.664 62.6265C159.83 63.1363 160.379 63.4144 160.889 63.2483C161.398 63.0822 161.676 62.5338 161.51 62.024ZM166.878 60.2784C166.731 59.8304 166.252 59.5871 165.804 59.73C165.357 59.8729 165.113 60.3556 165.256 60.8036C165.399 61.2516 165.882 61.4949 166.33 61.352C166.778 61.2091 167.021 60.7264 166.878 60.2784ZM172.246 58.5327C172.122 58.1465 171.705 57.9341 171.319 58.0616C170.933 58.189 170.72 58.6022 170.848 58.9884C170.975 59.3747 171.388 59.5871 171.775 59.4596C172.161 59.3322 172.373 58.9189 172.246 58.5327ZM177.613 56.7871C177.509 56.4627 177.158 56.285 176.837 56.3893C176.517 56.4936 176.335 56.845 176.439 57.1656C176.544 57.4861 176.895 57.6676 177.216 57.5633C177.536 57.4591 177.718 57.1076 177.613 56.7871ZM182.981 55.0414C182.896 54.7788 182.614 54.6359 182.352 54.7209C182.089 54.8058 181.946 55.0878 182.031 55.3504C182.116 55.613 182.398 55.7559 182.661 55.6709C182.923 55.586 183.066 55.304 182.981 55.0414ZM188.349 53.2958C188.283 53.0949 188.067 52.9868 187.866 53.0486C187.665 53.1104 187.557 53.3305 187.619 53.5313C187.681 53.7322 187.901 53.8403 188.102 53.7785C188.303 53.7167 188.411 53.4966 188.349 53.2958ZM119.549 80.7087C119.437 79.6582 118.499 78.8974 117.449 79.0056C116.398 79.1137 115.638 80.056 115.746 81.1065C115.854 82.157 116.796 82.9178 117.846 82.8097C118.897 82.7016 119.658 81.7592 119.549 80.7087ZM125.164 80.1178C125.06 79.133 124.18 78.4185 123.191 78.5228C122.202 78.6271 121.492 79.5076 121.596 80.4963C121.7 81.485 122.581 82.1956 123.569 82.0913C124.558 81.9871 125.269 81.1065 125.164 80.1178ZM130.779 79.5269C130.683 78.6078 129.856 77.9396 128.937 78.0362C128.018 78.1327 127.35 78.9592 127.447 79.8784C127.543 80.7976 128.369 81.4657 129.289 81.3691C130.208 81.2726 130.876 80.4461 130.779 79.5269ZM136.394 78.936C136.305 78.0787 135.537 77.4607 134.679 77.5496C133.822 77.6384 133.204 78.4069 133.293 79.2643C133.382 80.1217 134.15 80.7396 135.008 80.6508C135.865 80.562 136.483 79.7934 136.394 78.936ZM142.009 78.3451C141.924 77.5534 141.217 76.978 140.426 77.0629C139.634 77.1479 139.059 77.8547 139.144 78.6464C139.229 79.4381 139.935 80.0136 140.727 79.9286C141.518 79.8436 142.094 79.1369 142.009 78.3451ZM147.624 77.7542C147.547 77.0282 146.898 76.4991 146.168 76.5763C145.438 76.6536 144.913 77.3024 144.99 78.0323C145.067 78.7622 145.716 79.2875 146.446 79.2103C147.176 79.133 147.701 78.4842 147.624 77.7542ZM153.239 77.1633C153.169 76.5029 152.574 76.0202 151.914 76.0897C151.254 76.1592 150.771 76.754 150.841 77.4144C150.91 78.0748 151.505 78.5576 152.165 78.488C152.825 78.4185 153.308 77.8238 153.239 77.1633ZM158.853 76.5724C158.792 75.9738 158.255 75.5413 157.656 75.6031C157.058 75.6649 156.625 76.2017 156.687 76.8003C156.749 77.3989 157.286 77.8315 157.884 77.7697C158.483 77.7079 158.915 77.1711 158.853 76.5724ZM164.468 75.9816C164.41 75.4486 163.935 75.0624 163.403 75.1165C162.87 75.1705 162.483 75.6494 162.538 76.1824C162.592 76.7154 163.07 77.1016 163.603 77.0475C164.136 76.9934 164.522 76.5145 164.468 75.9816ZM170.083 75.3907C170.033 74.9233 169.616 74.5835 169.145 74.6298C168.674 74.6762 168.338 75.0972 168.384 75.5683C168.43 76.0395 168.851 76.3755 169.322 76.3291C169.794 76.2828 170.13 75.8618 170.083 75.3907ZM175.698 74.7998C175.656 74.3942 175.293 74.1046 174.891 74.1471C174.489 74.1896 174.196 74.5526 174.238 74.9542C174.281 75.3559 174.644 75.6494 175.045 75.6069C175.447 75.5645 175.741 75.2014 175.698 74.7998ZM181.313 74.2089C181.278 73.869 180.973 73.6218 180.633 73.6605C180.293 73.6991 180.046 74.0003 180.085 74.3402C180.124 74.68 180.425 74.9272 180.765 74.8886C181.104 74.85 181.352 74.5487 181.313 74.2089ZM186.928 73.618C186.901 73.3438 186.654 73.1429 186.379 73.1738C186.105 73.2047 185.904 73.448 185.935 73.7223C185.966 73.9965 186.21 74.1973 186.484 74.1664C186.758 74.1355 186.959 73.8922 186.928 73.618ZM192.543 73.0271C192.519 72.8185 192.334 72.664 192.122 72.6872C191.909 72.7104 191.759 72.8958 191.782 73.1082C191.805 73.3206 191.99 73.4712 192.203 73.448C192.415 73.4249 192.566 73.2395 192.543 73.0271ZM119.549 85.5363C119.661 84.4858 118.897 83.5474 117.846 83.4354C116.796 83.3234 115.858 84.088 115.746 85.1385C115.634 86.189 116.398 87.1275 117.449 87.2395C118.499 87.3515 119.437 86.5868 119.549 85.5363ZM125.164 86.1272C125.269 85.1424 124.554 84.258 123.569 84.1537C122.585 84.0494 121.7 84.7639 121.596 85.7487C121.492 86.7336 122.206 87.618 123.191 87.7223C124.176 87.8265 125.06 87.112 125.164 86.1272ZM130.779 86.7181C130.876 85.7989 130.208 84.9725 129.289 84.8759C128.369 84.7794 127.543 85.4475 127.447 86.3667C127.35 87.2858 128.018 88.1123 128.937 88.2089C129.856 88.3054 130.683 87.6373 130.779 86.7181ZM136.394 87.309C136.483 86.4516 135.861 85.6869 135.008 85.5942C134.154 85.5016 133.386 86.1272 133.293 86.9807C133.2 87.8343 133.826 88.6028 134.679 88.6955C135.533 88.7882 136.301 88.1625 136.394 87.309ZM142.009 87.8999C142.094 87.1082 141.518 86.3976 140.727 86.3165C139.935 86.2354 139.225 86.8069 139.144 87.5987C139.062 88.3904 139.634 89.101 140.426 89.1821C141.217 89.2632 141.928 88.6916 142.009 87.8999ZM147.624 88.4908C147.701 87.7647 147.172 87.112 146.446 87.0348C145.72 86.9576 145.067 87.4867 144.99 88.2127C144.913 88.9388 145.442 89.5915 146.168 89.6687C146.894 89.746 147.547 89.2169 147.624 88.4908ZM153.239 89.0817C153.308 88.4213 152.829 87.8265 152.165 87.757C151.501 87.6875 150.91 88.1664 150.841 88.8307C150.771 89.4949 151.25 90.0858 151.914 90.1553C152.578 90.2249 153.169 89.746 153.239 89.0817ZM158.853 89.6726C158.915 89.074 158.483 88.541 157.884 88.4753C157.286 88.4097 156.753 88.8461 156.687 89.4447C156.621 90.0433 157.058 90.5763 157.656 90.642C158.255 90.7076 158.788 90.2712 158.853 89.6726ZM164.468 90.2635C164.526 89.7305 164.136 89.2516 163.603 89.1976C163.07 89.1435 162.592 89.5297 162.538 90.0627C162.483 90.5956 162.87 91.0745 163.403 91.1286C163.935 91.1827 164.414 90.7964 164.468 90.2635ZM170.083 90.8544C170.133 90.3871 169.794 89.9661 169.322 89.9159C168.851 89.8657 168.434 90.2056 168.384 90.6767C168.334 91.1479 168.674 91.565 169.145 91.6152C169.616 91.6654 170.033 91.3256 170.083 90.8544ZM175.698 91.4453C175.741 91.0398 175.447 90.6806 175.045 90.6381C174.644 90.5956 174.281 90.8891 174.238 91.2908C174.196 91.6925 174.489 92.0555 174.891 92.098C175.293 92.1404 175.656 91.8469 175.698 91.4453ZM181.313 92.0362C181.348 91.6963 181.104 91.3912 180.765 91.3565C180.425 91.3217 180.12 91.565 180.085 91.9049C180.05 92.2447 180.293 92.5498 180.633 92.5846C180.973 92.6193 181.278 92.376 181.313 92.0362ZM186.928 92.6271C186.955 92.3529 186.758 92.1057 186.484 92.0787C186.21 92.0516 185.962 92.2486 185.935 92.5228C185.908 92.797 186.105 93.0442 186.379 93.0712C186.654 93.0982 186.901 92.9013 186.928 92.6271ZM192.543 93.218C192.566 93.0094 192.411 92.8202 192.203 92.797C191.994 92.7738 191.805 92.9283 191.782 93.1369C191.759 93.3454 191.913 93.5347 192.122 93.5578C192.33 93.581 192.519 93.4265 192.543 93.218ZM118.542 90.2751C118.866 89.2709 118.318 88.1934 117.314 87.8652C116.31 87.5369 115.232 88.0891 114.904 89.0933C114.576 90.0974 115.128 91.1749 116.132 91.5032C117.136 91.8315 118.213 91.2792 118.542 90.2751ZM123.909 92.0207C124.214 91.0784 123.701 90.0665 122.758 89.7614C121.816 89.4563 120.804 89.97 120.499 90.9123C120.194 91.8547 120.708 92.8665 121.65 93.1716C122.592 93.4767 123.604 92.9631 123.909 92.0207ZM129.277 93.7664C129.563 92.8858 129.08 91.9396 128.2 91.6538C127.319 91.368 126.373 91.8508 126.087 92.7313C125.801 93.6119 126.284 94.5581 127.165 94.8439C128.045 95.1297 128.991 94.6469 129.277 93.7664ZM134.645 95.512C134.911 94.6933 134.463 93.8127 133.645 93.5462C132.826 93.2798 131.945 93.7278 131.679 94.5465C131.412 95.3653 131.86 96.2458 132.679 96.5123C133.498 96.7788 134.378 96.3308 134.645 95.512ZM140.012 97.2577C140.26 96.5007 139.842 95.6897 139.086 95.4425C138.329 95.1954 137.518 95.6125 137.271 96.3694C137.023 97.1264 137.441 97.9374 138.197 98.1846C138.954 98.4318 139.765 98.0147 140.012 97.2577ZM145.38 99.0033C145.604 98.3082 145.226 97.5628 144.531 97.3349C143.835 97.1071 143.09 97.4894 142.862 98.1846C142.634 98.8798 143.017 99.6251 143.712 99.853C144.407 100.081 145.152 99.6985 145.38 99.0033ZM150.748 100.749C150.953 100.116 150.609 99.4359 149.976 99.2312C149.342 99.0265 148.663 99.3702 148.458 100.004C148.253 100.637 148.597 101.317 149.23 101.521C149.864 101.726 150.543 101.382 150.748 100.749ZM156.116 102.495C156.301 101.923 155.988 101.309 155.417 101.124C154.845 100.938 154.231 101.251 154.046 101.823C153.86 102.394 154.173 103.008 154.745 103.194C155.316 103.379 155.93 103.066 156.116 102.495ZM161.483 104.24C161.649 103.731 161.371 103.182 160.862 103.016C160.352 102.85 159.803 103.128 159.637 103.638C159.471 104.148 159.749 104.696 160.259 104.862C160.769 105.028 161.317 104.75 161.483 104.24ZM166.851 105.986C166.998 105.538 166.751 105.055 166.303 104.912C165.855 104.769 165.372 105.013 165.229 105.461C165.086 105.909 165.329 106.391 165.777 106.534C166.225 106.677 166.708 106.434 166.851 105.986ZM172.219 107.732C172.342 107.345 172.134 106.932 171.748 106.805C171.361 106.677 170.948 106.89 170.821 107.276C170.693 107.662 170.906 108.075 171.292 108.203C171.678 108.33 172.091 108.118 172.219 107.732ZM177.586 109.477C177.691 109.153 177.513 108.805 177.189 108.701C176.864 108.597 176.517 108.774 176.412 109.099C176.308 109.423 176.486 109.771 176.81 109.875C177.135 109.979 177.482 109.802 177.586 109.477ZM182.954 111.223C183.039 110.96 182.896 110.678 182.634 110.593C182.371 110.508 182.089 110.651 182.004 110.914C181.919 111.177 182.062 111.459 182.325 111.543C182.587 111.628 182.869 111.486 182.954 111.223ZM188.322 112.969C188.388 112.768 188.276 112.551 188.075 112.486C187.874 112.42 187.658 112.532 187.592 112.733C187.526 112.934 187.638 113.15 187.839 113.216C188.04 113.281 188.256 113.169 188.322 112.969ZM116.549 94.701C117.078 93.7857 116.765 92.6194 115.85 92.0903C114.935 91.5611 113.769 91.874 113.239 92.7893C112.71 93.7046 113.023 94.8709 113.938 95.4C114.854 95.9292 116.02 95.6163 116.549 94.701ZM121.438 97.5242C121.932 96.6668 121.639 95.57 120.781 95.0718C119.924 94.5736 118.827 94.8709 118.329 95.7283C117.831 96.5857 118.128 97.6825 118.986 98.1807C119.843 98.6789 120.94 98.3816 121.438 97.5242ZM126.327 100.347C126.79 99.544 126.516 98.5206 125.713 98.0572C124.909 97.5937 123.886 97.8679 123.423 98.6712C122.959 99.4745 123.233 100.498 124.037 100.961C124.84 101.425 125.863 101.151 126.327 100.347ZM131.216 103.171C131.644 102.425 131.389 101.471 130.644 101.043C129.899 100.614 128.945 100.869 128.516 101.614C128.088 102.359 128.342 103.313 129.088 103.742C129.833 104.171 130.787 103.916 131.216 103.171ZM136.104 105.994C136.502 105.306 136.267 104.422 135.575 104.024C134.884 103.626 134.004 103.862 133.606 104.553C133.208 105.244 133.444 106.125 134.135 106.523C134.826 106.921 135.707 106.685 136.104 105.994ZM140.993 108.817C141.36 108.183 141.14 107.376 140.511 107.009C139.881 106.643 139.07 106.863 138.703 107.492C138.336 108.122 138.557 108.933 139.186 109.3C139.815 109.667 140.626 109.446 140.993 108.817ZM145.882 111.64C146.214 111.065 146.017 110.327 145.442 109.995C144.867 109.663 144.129 109.86 143.797 110.435C143.465 111.011 143.662 111.748 144.237 112.08C144.812 112.412 145.55 112.215 145.882 111.64ZM150.771 114.463C151.072 113.942 150.895 113.278 150.373 112.976C149.852 112.675 149.188 112.853 148.887 113.374C148.585 113.895 148.763 114.56 149.284 114.861C149.806 115.162 150.47 114.985 150.771 114.463ZM155.66 117.286C155.926 116.823 155.768 116.228 155.305 115.962C154.841 115.695 154.247 115.854 153.98 116.317C153.714 116.78 153.872 117.375 154.335 117.642C154.799 117.908 155.393 117.75 155.66 117.286ZM160.549 120.11C160.784 119.7 160.645 119.179 160.236 118.943C159.827 118.708 159.305 118.847 159.07 119.256C158.834 119.665 158.973 120.187 159.383 120.422C159.792 120.658 160.313 120.519 160.549 120.11ZM165.438 122.933C165.642 122.581 165.519 122.133 165.167 121.929C164.816 121.724 164.368 121.847 164.163 122.199C163.959 122.55 164.082 122.998 164.434 123.203C164.785 123.408 165.233 123.284 165.438 122.933ZM170.326 125.756C170.496 125.462 170.396 125.084 170.099 124.914C169.801 124.744 169.427 124.844 169.257 125.142C169.087 125.439 169.187 125.814 169.485 125.984C169.782 126.154 170.157 126.053 170.326 125.756ZM175.215 128.579C175.354 128.34 175.273 128.035 175.034 127.895C174.794 127.756 174.489 127.838 174.35 128.077C174.211 128.316 174.292 128.622 174.532 128.761C174.771 128.9 175.076 128.819 175.215 128.579ZM180.104 131.402C180.208 131.221 180.147 130.985 179.965 130.881C179.784 130.777 179.548 130.838 179.444 131.02C179.34 131.201 179.401 131.437 179.583 131.541C179.764 131.646 180 131.584 180.104 131.402ZM113.699 98.6133C114.406 97.8293 114.344 96.6204 113.556 95.9137C112.768 95.2069 111.564 95.2687 110.857 96.0566C110.15 96.8444 110.212 98.0494 111 98.7562C111.787 99.4629 112.992 99.4012 113.699 98.6133ZM117.897 102.39C118.561 101.653 118.499 100.521 117.765 99.8569C117.032 99.1926 115.896 99.2544 115.232 99.9882C114.568 100.722 114.63 101.857 115.363 102.522C116.097 103.186 117.232 103.124 117.897 102.39ZM122.094 106.167C122.712 105.48 122.658 104.418 121.971 103.8C121.283 103.182 120.221 103.236 119.604 103.924C118.986 104.611 119.04 105.673 119.727 106.291C120.414 106.909 121.476 106.855 122.094 106.167ZM126.292 109.945C126.867 109.303 126.817 108.319 126.176 107.743C125.535 107.168 124.55 107.218 123.975 107.859C123.4 108.5 123.45 109.485 124.091 110.06C124.732 110.636 125.717 110.586 126.292 109.945ZM130.49 113.722C131.022 113.131 130.976 112.219 130.381 111.686C129.787 111.153 128.879 111.2 128.346 111.795C127.813 112.389 127.86 113.297 128.454 113.83C129.049 114.363 129.957 114.316 130.49 113.722ZM134.687 117.499C135.178 116.954 135.131 116.12 134.591 115.63C134.05 115.139 133.212 115.185 132.722 115.726C132.231 116.267 132.277 117.105 132.818 117.595C133.359 118.086 134.197 118.039 134.687 117.499ZM138.885 121.276C139.329 120.782 139.29 120.017 138.796 119.573C138.302 119.129 137.537 119.167 137.093 119.662C136.649 120.156 136.688 120.921 137.182 121.365C137.676 121.809 138.441 121.77 138.885 121.276ZM143.082 125.053C143.484 124.605 143.449 123.918 143.001 123.516C142.553 123.114 141.866 123.149 141.464 123.597C141.063 124.045 141.098 124.732 141.546 125.134C141.993 125.536 142.681 125.501 143.082 125.053ZM147.28 128.83C147.639 128.432 147.608 127.818 147.207 127.459C146.805 127.1 146.195 127.131 145.836 127.532C145.477 127.934 145.508 128.544 145.909 128.904C146.311 129.263 146.921 129.232 147.28 128.83ZM151.478 132.607C151.794 132.256 151.763 131.719 151.416 131.402C151.068 131.086 150.528 131.116 150.211 131.464C149.894 131.812 149.925 132.352 150.273 132.669C150.62 132.986 151.161 132.955 151.478 132.607ZM155.675 136.384C155.946 136.083 155.922 135.616 155.621 135.345C155.32 135.075 154.853 135.098 154.582 135.4C154.312 135.701 154.335 136.168 154.637 136.438C154.938 136.709 155.405 136.686 155.675 136.384ZM159.873 140.161C160.101 139.907 160.081 139.516 159.827 139.289C159.572 139.061 159.182 139.08 158.954 139.335C158.726 139.59 158.745 139.98 159 140.208C159.255 140.436 159.645 140.416 159.873 140.161ZM164.071 143.939C164.256 143.734 164.24 143.417 164.032 143.232C163.823 143.046 163.511 143.062 163.325 143.27C163.14 143.479 163.155 143.792 163.364 143.977C163.572 144.163 163.885 144.147 164.071 143.939ZM168.268 147.716C168.411 147.557 168.396 147.318 168.241 147.175C168.087 147.032 167.843 147.048 167.701 147.202C167.558 147.356 167.573 147.6 167.728 147.743C167.882 147.886 168.125 147.87 168.268 147.716ZM110.131 101.834C110.984 101.212 111.173 100.019 110.556 99.1656C109.938 98.312 108.741 98.1228 107.887 98.7407C107.034 99.3587 106.845 100.556 107.462 101.409C108.08 102.263 109.277 102.452 110.131 101.834ZM113.448 106.403C114.251 105.82 114.429 104.7 113.846 103.897C113.263 103.093 112.143 102.916 111.34 103.499C110.536 104.082 110.359 105.202 110.942 106.005C111.525 106.809 112.645 106.986 113.448 106.403ZM116.765 110.972C117.514 110.427 117.68 109.381 117.136 108.632C116.591 107.882 115.545 107.716 114.796 108.261C114.047 108.805 113.881 109.852 114.425 110.601C114.97 111.35 116.016 111.516 116.765 110.972ZM120.082 115.541C120.777 115.035 120.932 114.062 120.426 113.363C119.92 112.663 118.947 112.513 118.248 113.019C117.549 113.525 117.398 114.498 117.904 115.197C118.41 115.896 119.383 116.047 120.082 115.541ZM123.4 120.11C124.044 119.642 124.187 118.742 123.72 118.097C123.253 117.452 122.353 117.31 121.708 117.777C121.063 118.244 120.92 119.144 121.388 119.789C121.855 120.434 122.755 120.577 123.4 120.11ZM126.717 124.678C127.308 124.25 127.439 123.419 127.01 122.828C126.582 122.238 125.751 122.106 125.16 122.535C124.57 122.964 124.438 123.794 124.867 124.385C125.296 124.976 126.126 125.107 126.717 124.678ZM130.034 129.247C130.571 128.857 130.69 128.1 130.3 127.563C129.91 127.027 129.153 126.907 128.617 127.297C128.08 127.687 127.96 128.444 128.35 128.981C128.74 129.518 129.497 129.637 130.034 129.247ZM133.351 133.816C133.838 133.465 133.946 132.781 133.59 132.294C133.235 131.808 132.556 131.7 132.069 132.055C131.582 132.41 131.474 133.09 131.83 133.577C132.185 134.063 132.864 134.171 133.351 133.816ZM136.668 138.385C137.101 138.068 137.197 137.462 136.884 137.029C136.572 136.597 135.962 136.5 135.529 136.813C135.097 137.126 135 137.736 135.313 138.169C135.626 138.601 136.236 138.698 136.668 138.385ZM139.985 142.954C140.368 142.676 140.453 142.143 140.175 141.764C139.897 141.386 139.364 141.297 138.985 141.575C138.607 141.853 138.518 142.386 138.796 142.764C139.074 143.143 139.607 143.232 139.985 142.954ZM143.303 147.523C143.631 147.283 143.704 146.823 143.465 146.495C143.225 146.167 142.766 146.094 142.438 146.333C142.109 146.572 142.036 147.032 142.275 147.36C142.515 147.689 142.974 147.762 143.303 147.523ZM146.62 152.091C146.894 151.891 146.956 151.504 146.755 151.23C146.554 150.956 146.168 150.894 145.894 151.095C145.62 151.296 145.558 151.682 145.759 151.956C145.959 152.23 146.346 152.292 146.62 152.091ZM149.937 156.66C150.161 156.498 150.211 156.185 150.049 155.961C149.887 155.737 149.574 155.687 149.35 155.849C149.126 156.011 149.076 156.324 149.238 156.548C149.4 156.772 149.713 156.822 149.937 156.66ZM153.254 161.229C153.424 161.105 153.463 160.866 153.339 160.696C153.215 160.526 152.976 160.487 152.806 160.611C152.636 160.735 152.598 160.974 152.721 161.144C152.845 161.314 153.084 161.353 153.254 161.229ZM105.925 104.26C106.891 103.831 107.323 102.699 106.895 101.738C106.466 100.776 105.335 100.34 104.373 100.768C103.412 101.197 102.975 102.329 103.404 103.29C103.832 104.252 104.964 104.688 105.925 104.26ZM108.223 109.419C109.127 109.018 109.536 107.956 109.131 107.052C108.725 106.148 107.667 105.739 106.763 106.144C105.86 106.55 105.451 107.608 105.856 108.512C106.261 109.415 107.32 109.825 108.223 109.419ZM110.521 114.579C111.367 114.201 111.745 113.212 111.37 112.366C110.996 111.52 110.003 111.142 109.158 111.516C108.312 111.891 107.934 112.884 108.308 113.729C108.683 114.575 109.675 114.954 110.521 114.579ZM112.819 119.739C113.606 119.387 113.958 118.468 113.61 117.68C113.263 116.892 112.34 116.541 111.552 116.889C110.764 117.236 110.413 118.159 110.76 118.947C111.108 119.735 112.031 120.086 112.819 119.739ZM115.116 124.899C115.842 124.574 116.17 123.724 115.846 122.995C115.522 122.265 114.672 121.94 113.942 122.265C113.212 122.589 112.888 123.439 113.212 124.169C113.537 124.899 114.386 125.223 115.116 124.899ZM117.414 130.058C118.082 129.761 118.383 128.977 118.086 128.313C117.789 127.648 117.005 127.343 116.34 127.641C115.676 127.938 115.371 128.722 115.668 129.386C115.966 130.051 116.75 130.356 117.414 130.058ZM119.712 135.218C120.322 134.948 120.592 134.233 120.322 133.627C120.051 133.02 119.337 132.746 118.731 133.017C118.124 133.287 117.85 134.001 118.121 134.608C118.391 135.214 119.105 135.488 119.712 135.218ZM122.009 140.378C122.558 140.134 122.805 139.489 122.562 138.941C122.318 138.393 121.673 138.145 121.125 138.389C120.577 138.632 120.33 139.277 120.573 139.825C120.816 140.374 121.461 140.621 122.009 140.378ZM124.307 145.537C124.797 145.321 125.018 144.746 124.797 144.255C124.577 143.765 124.006 143.545 123.515 143.765C123.025 143.985 122.805 144.556 123.025 145.047C123.245 145.537 123.817 145.758 124.307 145.537ZM126.605 150.697C127.033 150.504 127.23 150.002 127.037 149.569C126.844 149.137 126.342 148.944 125.91 149.137C125.477 149.33 125.284 149.832 125.477 150.265C125.67 150.697 126.172 150.89 126.605 150.697ZM128.902 155.857C129.273 155.691 129.439 155.258 129.273 154.887C129.107 154.517 128.675 154.351 128.304 154.517C127.933 154.683 127.767 155.115 127.933 155.486C128.099 155.857 128.532 156.023 128.902 155.857ZM131.2 161.017C131.513 160.878 131.652 160.515 131.513 160.202C131.374 159.889 131.011 159.75 130.698 159.889C130.385 160.028 130.246 160.391 130.385 160.704C130.524 161.017 130.887 161.156 131.2 161.017ZM133.498 166.176C133.749 166.064 133.865 165.767 133.753 165.516C133.641 165.265 133.343 165.149 133.092 165.261C132.841 165.373 132.725 165.67 132.837 165.921C132.949 166.172 133.247 166.288 133.498 166.176ZM135.795 171.336C135.989 171.251 136.074 171.023 135.989 170.83C135.904 170.637 135.676 170.552 135.483 170.637C135.29 170.722 135.205 170.95 135.29 171.143C135.375 171.336 135.602 171.421 135.795 171.336ZM101.346 105.774C102.377 105.553 103.037 104.538 102.817 103.507C102.597 102.475 101.581 101.815 100.55 102.035C99.519 102.255 98.8586 103.271 99.0788 104.302C99.2989 105.333 100.314 105.994 101.346 105.774ZM102.52 111.296C103.489 111.092 104.107 110.138 103.902 109.168C103.697 108.199 102.743 107.581 101.774 107.786C100.805 107.99 100.187 108.944 100.392 109.914C100.596 110.883 101.55 111.501 102.52 111.296ZM103.693 116.819C104.597 116.626 105.176 115.738 104.983 114.83C104.79 113.923 103.902 113.347 102.994 113.54C102.087 113.733 101.512 114.622 101.705 115.529C101.898 116.437 102.786 117.012 103.693 116.819ZM104.867 122.342C105.709 122.164 106.246 121.334 106.068 120.492C105.891 119.65 105.06 119.113 104.219 119.291C103.377 119.468 102.84 120.299 103.018 121.141C103.195 121.983 104.026 122.52 104.867 122.342ZM106.041 127.865C106.821 127.699 107.316 126.934 107.15 126.154C106.984 125.374 106.219 124.879 105.439 125.045C104.659 125.211 104.165 125.976 104.331 126.756C104.497 127.536 105.261 128.031 106.041 127.865ZM107.215 133.387C107.93 133.237 108.385 132.534 108.235 131.819C108.084 131.105 107.381 130.649 106.667 130.8C105.953 130.95 105.497 131.653 105.647 132.368C105.798 133.082 106.501 133.538 107.215 133.387ZM108.389 138.91C109.042 138.771 109.455 138.13 109.316 137.481C109.177 136.832 108.536 136.415 107.887 136.554C107.238 136.693 106.821 137.334 106.96 137.983C107.099 138.632 107.74 139.049 108.389 138.91ZM109.563 144.433C110.15 144.309 110.525 143.73 110.401 143.143C110.278 142.556 109.698 142.181 109.111 142.305C108.524 142.428 108.15 143.008 108.273 143.595C108.397 144.182 108.976 144.556 109.563 144.433ZM110.737 149.956C111.262 149.844 111.594 149.33 111.486 148.805C111.378 148.279 110.861 147.947 110.336 148.055C109.81 148.164 109.478 148.681 109.586 149.206C109.694 149.732 110.212 150.064 110.737 149.956ZM111.911 155.478C112.371 155.382 112.664 154.926 112.568 154.467C112.471 154.007 112.015 153.713 111.556 153.81C111.096 153.907 110.803 154.362 110.899 154.822C110.996 155.281 111.452 155.575 111.911 155.478ZM113.085 161.001C113.483 160.916 113.734 160.526 113.653 160.128C113.572 159.731 113.178 159.479 112.78 159.561C112.382 159.642 112.131 160.036 112.212 160.433C112.293 160.831 112.687 161.082 113.085 161.001ZM114.259 166.524C114.591 166.454 114.807 166.126 114.734 165.79C114.661 165.454 114.336 165.242 114 165.315C113.664 165.388 113.452 165.713 113.525 166.049C113.599 166.385 113.923 166.597 114.259 166.524ZM115.433 172.047C115.703 171.989 115.877 171.722 115.819 171.452C115.761 171.182 115.495 171.008 115.224 171.066C114.954 171.124 114.78 171.39 114.838 171.66C114.896 171.931 115.163 172.105 115.433 172.047ZM116.607 177.569C116.812 177.527 116.947 177.322 116.9 177.118C116.854 176.913 116.653 176.778 116.449 176.824C116.244 176.87 116.109 177.071 116.155 177.276C116.201 177.481 116.402 177.616 116.607 177.569Z" fill="url(#paint0_radial_14026_92089)"/>
</g>
<defs>
<radialGradient id="paint0_radial_14026_92089" cx="0" cy="0" r="1" gradientUnits="userSpaceOnUse" gradientTransform="translate(96.5494 83.1434) scale(95.9956 96.5347)">
<stop stop-color="white"/>
<stop offset="0.08" stop-color="white" stop-opacity="0.96"/>
<stop offset="0.22" stop-color="white" stop-opacity="0.87"/>
<stop offset="0.4" stop-color="white" stop-opacity="0.71"/>
<stop offset="0.6" stop-color="white" stop-opacity="0.5"/>
<stop offset="0.83" stop-color="white" stop-opacity="0.22"/>
<stop offset="1" stop-color="white" stop-opacity="0"/>
</radialGradient>
<clipPath id="clip0_14026_92089">
<rect width="193.083" height="112" fill="white" transform="translate(0 -28)"/>
</clipPath>
</defs>
</svg>
