<svg width="193" height="193" viewBox="0 0 193 193" fill="none" xmlns="http://www.w3.org/2000/svg">
<g id="Tablet1Artboard 28 copy 2" opacity="0.75" clip-path="url(#clip0_14392_365241)">
<path id="Vector" d="M94.6301 117.751C94.6301 116.696 95.4874 115.839 96.5416 115.839C97.5959 115.839 98.4532 116.696 98.4532 117.751C98.4532 118.805 97.5959 119.662 96.5416 119.662C95.4874 119.662 94.6301 118.805 94.6301 117.751ZM96.5416 125.309C97.5341 125.309 98.3373 124.505 98.3373 123.513C98.3373 122.52 97.5341 121.717 96.5416 121.717C95.5492 121.717 94.746 122.52 94.746 123.513C94.746 124.505 95.5492 125.309 96.5416 125.309ZM96.5416 130.955C97.4684 130.955 98.2176 130.206 98.2176 129.279C98.2176 128.352 97.4684 127.603 96.5416 127.603C95.6148 127.603 94.8657 128.352 94.8657 129.279C94.8657 130.206 95.6148 130.955 96.5416 130.955ZM96.5416 136.601C97.4028 136.601 98.1017 135.902 98.1017 135.041C98.1017 134.18 97.4028 133.481 96.5416 133.481C95.6805 133.481 94.9815 134.18 94.9815 135.041C94.9815 135.902 95.6805 136.601 96.5416 136.601ZM96.5416 142.248C97.3371 142.248 97.982 141.603 97.982 140.807C97.982 140.012 97.3371 139.367 96.5416 139.367C95.7461 139.367 95.1012 140.012 95.1012 140.807C95.1012 141.603 95.7461 142.248 96.5416 142.248ZM96.5416 147.894C97.2715 147.894 97.8662 147.303 97.8662 146.569C97.8662 145.836 97.2753 145.245 96.5416 145.245C95.8079 145.245 95.2171 145.836 95.2171 146.569C95.2171 147.303 95.8079 147.894 96.5416 147.894ZM96.5416 153.54C97.2058 153.54 97.7465 153 97.7465 152.335C97.7465 151.671 97.2058 151.13 96.5416 151.13C95.8774 151.13 95.3368 151.671 95.3368 152.335C95.3368 153 95.8774 153.54 96.5416 153.54ZM96.5416 159.187C97.1441 159.187 97.6306 158.7 97.6306 158.098C97.6306 157.495 97.1441 157.009 96.5416 157.009C95.9392 157.009 95.4526 157.495 95.4526 158.098C95.4526 158.7 95.9392 159.187 96.5416 159.187ZM96.5416 164.833C97.0784 164.833 97.5109 164.397 97.5109 163.864C97.5109 163.331 97.0745 162.894 96.5416 162.894C96.0087 162.894 95.5724 163.331 95.5724 163.864C95.5724 164.397 96.0087 164.833 96.5416 164.833ZM96.5416 170.479C97.0128 170.479 97.3951 170.097 97.3951 169.626C97.3951 169.155 97.0128 168.772 96.5416 168.772C96.0705 168.772 95.6882 169.155 95.6882 169.626C95.6882 170.097 96.0705 170.479 96.5416 170.479ZM96.5416 176.126C96.9471 176.126 97.2753 175.798 97.2753 175.392C97.2753 174.986 96.9471 174.658 96.5416 174.658C96.1362 174.658 95.8079 174.986 95.8079 175.392C95.8079 175.798 96.1362 176.126 96.5416 176.126ZM96.5416 181.772C96.8815 181.772 97.1595 181.494 97.1595 181.154C97.1595 180.814 96.8815 180.536 96.5416 180.536C96.2018 180.536 95.9238 180.814 95.9238 181.154C95.9238 181.494 96.2018 181.772 96.5416 181.772ZM96.5416 187.418C96.8158 187.418 97.0398 187.194 97.0398 186.92C97.0398 186.646 96.8158 186.422 96.5416 186.422C96.2675 186.422 96.0435 186.646 96.0435 186.92C96.0435 187.194 96.2675 187.418 96.5416 187.418ZM96.5416 193.065C96.754 193.065 96.9239 192.895 96.9239 192.682C96.9239 192.47 96.754 192.3 96.5416 192.3C96.3292 192.3 96.1593 192.47 96.1593 192.682C96.1593 192.895 96.3292 193.065 96.5416 193.065ZM91.7339 119.156C92.7649 119.377 93.7805 118.716 94.0007 117.685C94.2208 116.654 93.5604 115.638 92.5294 115.418C91.4983 115.198 90.4827 115.858 90.2626 116.889C90.0424 117.921 90.7028 118.936 91.7339 119.156ZM90.5599 124.679C91.5292 124.884 92.483 124.266 92.6877 123.297C92.8924 122.327 92.2745 121.373 91.3052 121.169C90.3359 120.964 89.3821 121.582 89.1774 122.551C88.9728 123.521 89.5906 124.474 90.5599 124.679ZM89.386 130.202C90.2896 130.395 91.1816 129.816 91.3747 128.912C91.5678 128.008 90.9886 127.116 90.0849 126.923C89.1813 126.73 88.2893 127.309 88.0962 128.213C87.9031 129.117 88.4823 130.009 89.386 130.202ZM88.212 135.725C89.0539 135.902 89.8803 135.366 90.0618 134.524C90.2433 133.682 89.7026 132.855 88.8608 132.674C88.0189 132.492 87.1925 133.033 87.011 133.875C86.8295 134.717 87.3702 135.543 88.212 135.725ZM87.0381 141.247C87.8181 141.414 88.5827 140.915 88.7488 140.139C88.9148 139.363 88.4167 138.594 87.6405 138.428C86.8643 138.262 86.0958 138.76 85.9298 139.537C85.7637 140.313 86.2619 141.081 87.0381 141.247ZM85.8641 146.77C86.5785 146.921 87.2814 146.465 87.432 145.751C87.5826 145.036 87.1269 144.333 86.4125 144.183C85.6981 144.032 84.9953 144.488 84.8447 145.202C84.694 145.917 85.1497 146.62 85.8641 146.77ZM84.6902 152.293C85.3428 152.432 85.98 152.015 86.119 151.366C86.258 150.717 85.841 150.076 85.1922 149.937C84.5434 149.798 83.9024 150.215 83.7634 150.864C83.6244 151.513 84.0414 152.154 84.6902 152.293ZM83.5162 157.816C84.1032 157.939 84.6825 157.565 84.806 156.978C84.9296 156.391 84.555 155.811 83.968 155.688C83.3811 155.564 82.8018 155.939 82.6783 156.526C82.5547 157.113 82.9293 157.692 83.5162 157.816ZM82.3423 163.338C82.8675 163.45 83.3811 163.114 83.4931 162.589C83.6051 162.064 83.2691 161.55 82.7439 161.438C82.2187 161.326 81.7051 161.662 81.5931 162.188C81.4811 162.713 81.8171 163.226 82.3423 163.338ZM81.1683 168.861C81.6279 168.958 82.0835 168.664 82.1801 168.205C82.2766 167.745 81.9832 167.289 81.5236 167.193C81.0641 167.096 80.6084 167.39 80.5119 167.849C80.4153 168.309 80.7088 168.765 81.1683 168.861ZM79.9944 174.384C80.3921 174.469 80.7822 174.214 80.8671 173.816C80.9521 173.418 80.6972 173.028 80.2995 172.943C79.9017 172.858 79.5117 173.113 79.4267 173.511C79.3418 173.909 79.5966 174.299 79.9944 174.384ZM78.8204 179.907C79.1525 179.976 79.4808 179.764 79.5542 179.432C79.6275 179.1 79.4113 178.771 79.0792 178.698C78.7471 178.625 78.4188 178.841 78.3455 179.173C78.2721 179.505 78.4883 179.833 78.8204 179.907ZM77.6465 185.43C77.9168 185.487 78.1833 185.314 78.2412 185.043C78.2991 184.773 78.1253 184.506 77.855 184.449C77.5847 184.391 77.3183 184.564 77.2603 184.835C77.2024 185.105 77.3762 185.372 77.6465 185.43ZM76.4725 190.952C76.6772 190.995 76.8819 190.863 76.9244 190.659C76.9668 190.454 76.8355 190.249 76.6309 190.207C76.4262 190.164 76.2215 190.296 76.1791 190.5C76.1366 190.705 76.2679 190.91 76.4725 190.952ZM87.1346 117.658C88.1 118.087 89.2276 117.654 89.6563 116.689C90.0849 115.723 89.6524 114.595 88.687 114.167C87.7216 113.738 86.594 114.17 86.1653 115.136C85.7367 116.102 86.1692 117.229 87.1346 117.658ZM84.8369 122.818C85.7406 123.219 86.8025 122.814 87.2041 121.91C87.6057 121.006 87.2003 119.944 86.2966 119.543C85.393 119.141 84.331 119.546 83.9294 120.45C83.5278 121.354 83.9333 122.416 84.8369 122.818ZM82.5392 127.977C83.3849 128.356 84.3774 127.977 84.752 127.128C85.1265 126.278 84.752 125.289 83.9024 124.915C83.0528 124.54 82.0642 124.915 81.6897 125.764C81.3151 126.614 81.6897 127.603 82.5392 127.977ZM80.2415 133.137C81.0293 133.489 81.9484 133.137 82.2998 132.345C82.6512 131.554 82.2998 130.638 81.5082 130.287C80.7165 129.935 79.8013 130.287 79.4499 131.079C79.0985 131.87 79.4499 132.786 80.2415 133.137ZM77.9438 138.297C78.6698 138.621 79.5233 138.297 79.8476 137.567C80.172 136.837 79.8476 135.987 79.1178 135.663C78.3879 135.338 77.5384 135.663 77.214 136.393C76.8896 137.123 77.214 137.972 77.9438 138.297ZM75.6462 143.457C76.3142 143.754 77.0943 143.457 77.3916 142.785C77.689 142.113 77.3916 141.336 76.7197 141.039C76.0478 140.742 75.2716 141.039 74.9742 141.711C74.6769 142.383 74.9742 143.159 75.6462 143.457ZM73.3485 148.616C73.9586 148.887 74.6692 148.616 74.9395 148.006C75.2098 147.396 74.9395 146.685 74.3293 146.415C73.7192 146.145 73.0086 146.415 72.7383 147.025C72.468 147.635 72.7383 148.346 73.3485 148.616ZM71.0508 153.776C71.5991 154.019 72.244 153.776 72.4873 153.224C72.7306 152.671 72.4873 152.03 71.9351 151.787C71.3829 151.544 70.7418 151.787 70.4986 152.339C70.2553 152.892 70.4986 153.533 71.0508 153.776ZM68.7531 158.936C69.2435 159.152 69.815 158.936 70.0352 158.445C70.2553 157.955 70.0352 157.383 69.5447 157.163C69.0543 156.943 68.4828 157.163 68.2626 157.654C68.0425 158.144 68.2626 158.716 68.7531 158.936ZM66.4554 164.095C66.884 164.289 67.3899 164.095 67.583 163.663C67.7761 163.23 67.583 162.728 67.1505 162.535C66.718 162.342 66.216 162.535 66.0229 162.968C65.8298 163.4 66.0229 163.902 66.4554 164.095ZM64.1577 169.255C64.5284 169.421 64.9648 169.255 65.127 168.884C65.2892 168.514 65.127 168.077 64.7563 167.915C64.3855 167.753 63.9492 167.915 63.787 168.286C63.6248 168.657 63.787 169.093 64.1577 169.255ZM61.86 174.415C62.1728 174.554 62.5358 174.415 62.6748 174.102C62.8138 173.789 62.6748 173.426 62.362 173.287C62.0492 173.148 61.6862 173.287 61.5472 173.6C61.4082 173.913 61.5472 174.276 61.86 174.415ZM59.5623 179.575C59.8133 179.687 60.1107 179.575 60.2227 179.32C60.3346 179.065 60.2227 178.771 59.9678 178.659C59.7129 178.547 59.4194 178.659 59.3074 178.914C59.1955 179.169 59.3074 179.463 59.5623 179.575ZM57.2646 184.734C57.4577 184.819 57.6817 184.734 57.7705 184.541C57.8593 184.348 57.7705 184.124 57.5774 184.035C57.3843 183.946 57.1604 184.035 57.0715 184.228C56.9827 184.422 57.0715 184.646 57.2646 184.734ZM82.9293 115.26C83.7827 115.881 84.9798 115.692 85.5977 114.835C86.2155 113.977 86.0302 112.784 85.1729 112.166C84.3156 111.548 83.1223 111.734 82.5045 112.591C81.8866 113.448 82.072 114.642 82.9293 115.26ZM79.6121 119.828C80.4153 120.412 81.5352 120.234 82.1183 119.431C82.7014 118.627 82.5238 117.507 81.7206 116.924C80.9173 116.341 79.7974 116.519 79.2143 117.322C78.6312 118.125 78.8089 119.245 79.6121 119.828ZM76.2949 124.397C77.0441 124.942 78.0906 124.776 78.6351 124.026C79.1796 123.277 79.0135 122.231 78.2644 121.686C77.5152 121.142 76.4687 121.308 75.9242 122.057C75.3797 122.806 75.5458 123.853 76.2949 124.397ZM72.9777 128.966C73.6728 129.472 74.6498 129.318 75.1557 128.622C75.6616 127.927 75.5071 126.95 74.812 126.444C74.1169 125.938 73.1399 126.093 72.6341 126.788C72.1282 127.483 72.2826 128.46 72.9777 128.966ZM69.6606 133.535C70.3055 134.002 71.2052 133.859 71.6725 133.214C72.1398 132.569 71.9969 131.67 71.352 131.202C70.7071 130.735 69.8073 130.878 69.3401 131.523C68.8728 132.168 69.0157 133.068 69.6606 133.535ZM66.3434 138.104C66.9342 138.532 67.7606 138.401 68.1931 137.81C68.6256 137.219 68.4905 136.393 67.8997 135.96C67.3088 135.528 66.4824 135.663 66.0499 136.254C65.6174 136.845 65.7526 137.671 66.3434 138.104ZM63.0262 142.673C63.563 143.063 64.3199 142.943 64.7099 142.406C65.1 141.869 64.9802 141.112 64.4435 140.722C63.9067 140.332 63.1498 140.452 62.7598 140.989C62.3698 141.526 62.4895 142.282 63.0262 142.673ZM59.7091 147.241C60.1956 147.593 60.8753 147.489 61.2306 147.002C61.5858 146.515 61.4777 145.836 60.9911 145.48C60.5046 145.125 59.8249 145.233 59.4696 145.72C59.1144 146.206 59.2225 146.886 59.7091 147.241ZM56.3919 151.81C56.8244 152.127 57.4307 152.03 57.7473 151.594C58.064 151.158 57.9674 150.555 57.5311 150.238C57.0947 149.922 56.4923 150.018 56.1756 150.455C55.859 150.891 55.9555 151.494 56.3919 151.81ZM53.0747 156.379C53.457 156.657 53.9899 156.572 54.2641 156.19C54.5383 155.807 54.4572 155.274 54.0749 155C53.6926 154.726 53.1597 154.807 52.8855 155.19C52.6113 155.572 52.6924 156.105 53.0747 156.379ZM49.7575 160.948C50.0858 161.187 50.5453 161.114 50.7847 160.786C51.0242 160.457 50.9508 159.998 50.6226 159.758C50.2943 159.519 49.8348 159.592 49.5954 159.921C49.3559 160.249 49.4293 160.708 49.7575 160.948ZM46.4404 165.517C46.7146 165.718 47.1007 165.656 47.3015 165.382C47.5023 165.107 47.4405 164.721 47.1664 164.52C46.8922 164.319 46.506 164.381 46.3052 164.655C46.1044 164.93 46.1662 165.316 46.4404 165.517ZM43.1232 170.086C43.3472 170.248 43.66 170.198 43.8222 169.974C43.9844 169.75 43.9342 169.437 43.7102 169.274C43.4862 169.112 43.1734 169.162 43.0112 169.386C42.849 169.61 42.8992 169.923 43.1232 170.086ZM39.806 174.654C39.9759 174.778 40.2154 174.739 40.3389 174.569C40.4625 174.399 40.4239 174.16 40.254 174.036C40.0841 173.913 39.8447 173.951 39.7211 174.121C39.5975 174.291 39.6361 174.531 39.806 174.654ZM79.3534 112.035C80.06 112.819 81.2687 112.884 82.0527 112.178C82.8366 111.471 82.9022 110.262 82.1955 109.478C81.4889 108.694 80.2802 108.628 79.4962 109.335C78.7123 110.042 78.6467 111.251 79.3534 112.035ZM75.1557 115.812C75.8199 116.55 76.9514 116.607 77.689 115.943C78.4266 115.279 78.4845 114.147 77.8203 113.41C77.1561 112.672 76.0246 112.614 75.287 113.278C74.5494 113.943 74.4915 115.074 75.1557 115.812ZM70.9581 119.589C71.576 120.276 72.6379 120.334 73.3253 119.713C74.0127 119.091 74.0706 118.033 73.4489 117.345C72.8271 116.658 71.7691 116.6 71.0817 117.222C70.3943 117.843 70.3364 118.902 70.9581 119.589ZM66.7605 123.366C67.3359 124.007 68.3206 124.057 68.9616 123.482C69.6027 122.906 69.6529 121.922 69.0775 121.281C68.5021 120.639 67.5173 120.589 66.8763 121.165C66.2353 121.74 66.1851 122.725 66.7605 123.366ZM62.5628 127.143C63.0957 127.734 64.0071 127.784 64.5979 127.251C65.1888 126.718 65.239 125.807 64.7061 125.216C64.1731 124.625 63.2618 124.575 62.671 125.108C62.0801 125.641 62.0299 126.552 62.5628 127.143ZM58.3652 130.92C58.8556 131.465 59.6898 131.507 60.2342 131.017C60.7787 130.526 60.8212 129.692 60.3308 129.148C59.8404 128.603 59.0062 128.561 58.4617 129.051C57.9172 129.542 57.8748 130.376 58.3652 130.92ZM54.1676 134.697C54.6117 135.192 55.3763 135.23 55.8706 134.786C56.3649 134.342 56.4035 133.577 55.9594 133.083C55.5153 132.589 54.7507 132.55 54.2564 132.994C53.7621 133.438 53.7235 134.203 54.1676 134.697ZM49.9699 138.474C50.3716 138.922 51.0589 138.957 51.5069 138.556C51.9548 138.154 51.9896 137.466 51.588 137.018C51.1864 136.57 50.499 136.536 50.051 136.937C49.6031 137.339 49.5683 138.026 49.9699 138.474ZM45.7723 142.252C46.1314 142.649 46.7454 142.68 47.1432 142.325C47.541 141.97 47.5718 141.352 47.2166 140.954C46.8613 140.556 46.2434 140.525 45.8457 140.881C45.4479 141.236 45.417 141.854 45.7723 142.252ZM41.5747 146.029C41.8913 146.38 42.4281 146.407 42.7795 146.09C43.1309 145.774 43.158 145.237 42.8413 144.886C42.5246 144.534 41.9879 144.507 41.6365 144.824C41.2851 145.14 41.258 145.677 41.5747 146.029ZM37.377 149.806C37.6474 150.107 38.1146 150.13 38.4158 149.86C38.717 149.59 38.7402 149.122 38.4699 148.821C38.1996 148.52 37.7323 148.497 37.4311 148.767C37.1299 149.037 37.1067 149.505 37.377 149.806ZM33.1794 153.583C33.4073 153.838 33.7973 153.857 34.0522 153.629C34.307 153.401 34.3263 153.011 34.0985 152.756C33.8707 152.502 33.4806 152.482 33.2258 152.71C32.9709 152.938 32.9516 153.328 33.1794 153.583ZM28.9818 157.36C29.1671 157.565 29.4838 157.58 29.6885 157.399C29.8931 157.217 29.9086 156.897 29.7271 156.692C29.5456 156.487 29.2251 156.472 29.0204 156.653C28.8157 156.835 28.8003 157.155 28.9818 157.36ZM24.7842 161.137C24.927 161.295 25.1665 161.307 25.3248 161.164C25.4831 161.021 25.4947 160.782 25.3518 160.623C25.2089 160.465 24.9695 160.454 24.8112 160.596C24.6529 160.739 24.6413 160.979 24.7842 161.137ZM76.488 108.107C77.0171 109.022 78.1833 109.335 79.0985 108.806C80.0137 108.277 80.3265 107.111 79.7974 106.195C79.2684 105.28 78.1022 104.967 77.187 105.496C76.2718 106.025 75.959 107.192 76.488 108.107ZM71.5991 110.93C72.0934 111.788 73.1901 112.081 74.0513 111.587C74.9124 111.092 75.2021 109.996 74.7078 109.134C74.2135 108.273 73.1168 107.983 72.2556 108.478C71.3945 108.972 71.1048 110.069 71.5991 110.93ZM66.7103 113.753C67.1737 114.557 68.197 114.831 69.0002 114.367C69.8035 113.904 70.0776 112.881 69.6142 112.077C69.1508 111.274 68.1275 111 67.3243 111.463C66.521 111.927 66.2469 112.95 66.7103 113.753ZM61.8214 116.577C62.25 117.322 63.2039 117.577 63.9492 117.148C64.6945 116.719 64.9493 115.766 64.5207 115.02C64.0921 114.275 63.1382 114.02 62.3929 114.449C61.6476 114.877 61.3927 115.831 61.8214 116.577ZM56.9325 119.4C57.3303 120.087 58.2107 120.327 58.902 119.929C59.5932 119.531 59.8288 118.65 59.431 117.959C59.0333 117.268 58.1528 117.032 57.4616 117.43C56.7703 117.828 56.5348 118.708 56.9325 119.4ZM52.0437 122.223C52.4105 122.856 53.2176 123.073 53.8509 122.706C54.4842 122.339 54.7005 121.532 54.3336 120.898C53.9668 120.265 53.1597 120.049 52.5264 120.415C51.8931 120.782 51.6768 121.59 52.0437 122.223ZM47.1548 125.046C47.4869 125.622 48.2245 125.818 48.7999 125.486C49.3752 125.154 49.5722 124.417 49.2401 123.841C48.908 123.266 48.1704 123.069 47.595 123.401C47.0196 123.733 46.8227 124.471 47.1548 125.046ZM42.2659 127.869C42.5671 128.391 43.2313 128.568 43.7527 128.267C44.274 127.966 44.4516 127.302 44.1504 126.78C43.8492 126.259 43.185 126.081 42.6637 126.382C42.1423 126.684 41.9647 127.348 42.2659 127.869ZM37.377 130.692C37.6435 131.156 38.2382 131.314 38.7016 131.048C39.165 130.781 39.3233 130.186 39.0569 129.723C38.7904 129.26 38.1957 129.101 37.7323 129.368C37.2689 129.634 37.1106 130.229 37.377 130.692ZM32.4882 133.516C32.7237 133.925 33.2451 134.064 33.6544 133.828C34.0637 133.593 34.2028 133.071 33.9672 132.662C33.7316 132.253 33.2103 132.114 32.801 132.349C32.3916 132.585 32.2526 133.106 32.4882 133.516ZM27.5993 136.339C27.804 136.69 28.2519 136.81 28.6033 136.609C28.9548 136.408 29.0745 135.956 28.8737 135.605C28.6728 135.254 28.221 135.134 27.8696 135.335C27.5182 135.535 27.3985 135.987 27.5993 136.339ZM22.7104 139.162C22.8804 139.455 23.2588 139.56 23.5523 139.39C23.8458 139.22 23.95 138.841 23.7801 138.548C23.6102 138.254 23.2318 138.15 22.9383 138.32C22.6448 138.49 22.5405 138.868 22.7104 139.162ZM17.8216 141.985C17.9606 142.225 18.2657 142.306 18.5051 142.167C18.7445 142.028 18.8256 141.722 18.6866 141.483C18.5476 141.244 18.2425 141.162 18.0031 141.302C17.7636 141.441 17.6826 141.746 17.8216 141.985ZM12.9327 144.808C13.037 144.99 13.2725 145.055 13.454 144.947C13.6355 144.839 13.7012 144.607 13.593 144.426C13.4849 144.244 13.2532 144.179 13.0717 144.287C12.8902 144.395 12.8246 144.627 12.9327 144.808ZM74.5301 103.689C74.8545 104.693 75.9358 105.241 76.9398 104.917C77.9438 104.593 78.4922 103.511 78.1678 102.507C77.8434 101.503 76.7622 100.954 75.7581 101.279C74.7541 101.603 74.2058 102.685 74.5301 103.689ZM69.1624 105.434C69.4675 106.377 70.4792 106.894 71.4215 106.585C72.3637 106.276 72.8812 105.268 72.5723 104.326C72.2633 103.384 71.2554 102.866 70.3132 103.175C69.3709 103.484 68.8535 104.492 69.1624 105.434ZM63.7947 107.18C64.0805 108.061 65.0266 108.543 65.907 108.258C66.7875 107.972 67.2702 107.026 66.9844 106.145C66.6987 105.265 65.7526 104.782 64.8721 105.068C63.9916 105.353 63.5089 106.3 63.7947 107.18ZM58.427 108.926C58.6934 109.745 59.5739 110.193 60.3926 109.926C61.2113 109.66 61.6592 108.779 61.3927 107.96C61.1263 107.142 60.2458 106.694 59.4272 106.96C58.6085 107.226 58.1605 108.107 58.427 108.926ZM53.0593 110.671C53.3064 111.428 54.1174 111.842 54.8743 111.598C55.6311 111.355 56.0443 110.54 55.8011 109.783C55.5578 109.026 54.743 108.613 53.9861 108.856C53.2292 109.1 52.816 109.914 53.0593 110.671ZM47.6916 112.417C47.9155 113.112 48.6647 113.491 49.3598 113.267C50.0549 113.043 50.4333 112.294 50.2094 111.598C49.9854 110.903 49.2362 110.525 48.5411 110.749C47.846 110.973 47.4676 111.722 47.6916 112.417ZM42.3238 114.163C42.5285 114.796 43.2082 115.144 43.8415 114.935C44.4748 114.727 44.8223 114.051 44.6138 113.417C44.4053 112.784 43.7295 112.436 43.0962 112.645C42.4629 112.854 42.1153 113.529 42.3238 114.163ZM36.9561 115.908C37.1415 116.48 37.7555 116.793 38.327 116.607C38.8985 116.422 39.2113 115.808 39.026 115.236C38.8406 114.665 38.2266 114.352 37.6551 114.537C37.0836 114.723 36.7708 115.337 36.9561 115.908ZM31.5884 117.654C31.7545 118.164 32.3028 118.442 32.8126 118.276C33.3223 118.11 33.6003 117.561 33.4343 117.052C33.2682 116.542 32.7199 116.264 32.2101 116.43C31.7004 116.596 31.4224 117.144 31.5884 117.654ZM26.2207 119.4C26.3674 119.848 26.8463 120.091 27.2942 119.948C27.7422 119.805 27.9855 119.322 27.8426 118.874C27.6997 118.426 27.217 118.183 26.7691 118.326C26.3211 118.469 26.0778 118.952 26.2207 119.4ZM20.853 121.145C20.9766 121.532 21.3936 121.744 21.7798 121.617C22.1659 121.489 22.3783 121.076 22.2509 120.69C22.1235 120.303 21.7103 120.091 21.3241 120.218C20.9379 120.346 20.7255 120.759 20.853 121.145ZM15.4853 122.891C15.5895 123.215 15.9409 123.393 16.2615 123.289C16.582 123.185 16.7635 122.833 16.6592 122.513C16.5549 122.192 16.2035 122.01 15.883 122.115C15.5625 122.219 15.381 122.57 15.4853 122.891ZM10.1175 124.637C10.2025 124.899 10.4844 125.042 10.747 124.957C11.0096 124.872 11.1525 124.59 11.0675 124.328C10.9826 124.065 10.7007 123.922 10.4381 124.007C10.1755 124.092 10.0326 124.374 10.1175 124.637ZM4.74983 126.382C4.81548 126.583 5.03173 126.691 5.23254 126.63C5.43335 126.568 5.54147 126.348 5.47969 126.147C5.4179 125.946 5.19778 125.838 4.99698 125.9C4.79617 125.961 4.68805 126.182 4.74983 126.382ZM73.5493 98.9694C73.6613 100.02 74.5996 100.781 75.65 100.673C76.7004 100.564 77.4611 99.6221 77.353 98.5716C77.2449 97.5211 76.3026 96.7603 75.2523 96.8684C74.2019 96.9766 73.4411 97.9189 73.5493 98.9694ZM67.9344 99.5603C68.0387 100.545 68.9191 101.26 69.9077 101.155C70.8963 101.051 71.6069 100.17 71.5026 99.1818C71.3983 98.1931 70.5179 97.4825 69.5293 97.5868C68.5407 97.691 67.8301 98.5716 67.9344 99.5603ZM62.3195 100.151C62.4161 101.07 63.2425 101.738 64.1616 101.642C65.0806 101.545 65.7487 100.719 65.6522 99.7997C65.5556 98.8806 64.7292 98.2124 63.8102 98.309C62.8911 98.4055 62.223 99.232 62.3195 100.151ZM56.7047 100.742C56.7935 101.599 57.562 102.217 58.4193 102.129C59.2766 102.04 59.8944 101.271 59.8056 100.414C59.7168 99.5564 58.9483 98.9385 58.091 99.0273C57.2337 99.1161 56.6159 99.8847 56.7047 100.742ZM51.0898 101.333C51.1748 102.125 51.8815 102.7 52.6731 102.615C53.4647 102.53 54.0401 101.823 53.9552 101.032C53.8702 100.24 53.1635 99.6646 52.3719 99.7495C51.5803 99.8345 51.0049 100.541 51.0898 101.333ZM45.475 101.924C45.5522 102.65 46.201 103.179 46.9308 103.102C47.6607 103.025 48.1859 102.376 48.1086 101.646C48.0314 100.916 47.3826 100.391 46.6528 100.468C45.9229 100.545 45.3977 101.194 45.475 101.924ZM39.8601 102.515C39.9296 103.175 40.5243 103.658 41.1847 103.588C41.845 103.519 42.3277 102.924 42.2582 102.264C42.1887 101.603 41.594 101.121 40.9336 101.19C40.2733 101.26 39.7906 101.854 39.8601 102.515ZM34.2452 103.106C34.307 103.704 34.8438 104.137 35.4424 104.075C36.0409 104.013 36.4734 103.476 36.4116 102.878C36.3498 102.279 35.8131 101.847 35.2145 101.908C34.616 101.97 34.1834 102.507 34.2452 103.106ZM28.6304 103.697C28.6883 104.23 29.1633 104.616 29.6962 104.562C30.2291 104.508 30.6153 104.029 30.5612 103.496C30.5071 102.963 30.0283 102.577 29.4954 102.631C28.9625 102.685 28.5763 103.164 28.6304 103.697ZM23.0155 104.287C23.0657 104.755 23.4828 105.095 23.9539 105.048C24.425 105.002 24.761 104.581 24.7146 104.11C24.6683 103.639 24.2474 103.303 23.7763 103.349C23.3051 103.395 22.9692 103.816 23.0155 104.287ZM17.4007 104.878C17.4431 105.284 17.8061 105.574 18.2077 105.531C18.6094 105.489 18.9028 105.126 18.8604 104.724C18.8179 104.322 18.4549 104.029 18.0533 104.071C17.6517 104.114 17.3582 104.477 17.4007 104.878ZM11.7858 105.469C11.8205 105.809 12.1256 106.056 12.4654 106.018C12.8053 105.979 13.0524 105.678 13.0138 105.338C12.9752 104.998 12.674 104.751 12.3341 104.79C11.9943 104.828 11.7472 105.129 11.7858 105.469ZM6.17092 106.06C6.19796 106.334 6.4451 106.535 6.71928 106.504C6.99346 106.473 7.19427 106.23 7.16337 105.956C7.13248 105.682 6.88919 105.481 6.61502 105.512C6.34084 105.543 6.14003 105.786 6.17092 106.06ZM0.556062 106.651C0.579232 106.86 0.764592 107.014 0.976984 106.991C1.18938 106.968 1.33998 106.782 1.31681 106.57C1.29364 106.358 1.10828 106.207 0.895889 106.23C0.683497 106.253 0.532892 106.439 0.556062 106.651ZM73.5493 94.1418C73.4373 95.1923 74.2019 96.1308 75.2523 96.2428C76.3026 96.3548 77.241 95.5901 77.353 94.5396C77.465 93.4891 76.7004 92.5506 75.65 92.4386C74.5996 92.3266 73.6613 93.0913 73.5493 94.1418ZM67.9344 93.5509C67.8301 94.5357 68.5446 95.4201 69.5293 95.5244C70.514 95.6287 71.3983 94.9142 71.5026 93.9294C71.6069 92.9445 70.8924 92.0601 69.9077 91.9559C68.923 91.8516 68.0387 92.5661 67.9344 93.5509ZM62.3195 92.96C62.223 93.8792 62.8911 94.7057 63.8102 94.8022C64.7292 94.8988 65.5556 94.2306 65.6522 93.3115C65.7487 92.3923 65.0806 91.5658 64.1616 91.4692C63.2425 91.3727 62.4161 92.0408 62.3195 92.96ZM56.7047 92.3691C56.6159 93.2265 57.2376 93.9912 58.091 94.0839C58.9445 94.1766 59.7129 93.5509 59.8056 92.6974C59.8983 91.8439 59.2727 91.0753 58.4193 90.9826C57.5658 90.8899 56.7974 91.5156 56.7047 92.3691ZM51.0898 91.7782C51.0049 92.5699 51.5803 93.2805 52.3719 93.3616C53.1635 93.4428 53.8741 92.8712 53.9552 92.0795C54.0363 91.2877 53.4647 90.5771 52.6731 90.496C51.8815 90.4149 51.1709 90.9865 51.0898 91.7782ZM45.475 91.1873C45.3977 91.9134 45.9268 92.5661 46.6528 92.6433C47.3788 92.7206 48.0314 92.1915 48.1086 91.4654C48.1859 90.7393 47.6568 90.0866 46.9308 90.0094C46.2048 89.9321 45.5522 90.4613 45.475 91.1873ZM39.8601 90.5964C39.7906 91.2568 40.2694 91.8516 40.9336 91.9211C41.5978 91.9906 42.1887 91.5117 42.2582 90.8475C42.3277 90.1832 41.8489 89.5923 41.1847 89.5228C40.5204 89.4532 39.9296 89.9321 39.8601 90.5964ZM34.2452 90.0055C34.1834 90.6041 34.616 91.1371 35.2145 91.2028C35.8131 91.2684 36.346 90.832 36.4116 90.2334C36.4773 89.6348 36.0409 89.1018 35.4424 89.0361C34.8438 88.9705 34.3109 89.4069 34.2452 90.0055ZM28.6304 89.4146C28.5724 89.9476 28.9625 90.4265 29.4954 90.4806C30.0283 90.5346 30.5071 90.1484 30.5612 89.6154C30.6153 89.0825 30.2291 88.6036 29.6962 88.5495C29.1633 88.4954 28.6844 88.8817 28.6304 89.4146ZM23.0155 88.8237C22.9653 89.291 23.3051 89.712 23.7763 89.7622C24.2474 89.8124 24.6644 89.4726 24.7146 89.0014C24.7648 88.5302 24.425 88.1131 23.9539 88.0629C23.4828 88.0127 23.0657 88.3525 23.0155 88.8237ZM17.4007 88.2328C17.3582 88.6383 17.6517 88.9975 18.0533 89.04C18.4549 89.0825 18.8179 88.789 18.8604 88.3873C18.9028 87.9857 18.6094 87.6226 18.2077 87.5801C17.8061 87.5377 17.4431 87.8312 17.4007 88.2328ZM11.7858 87.6419C11.751 87.9818 11.9943 88.2869 12.3341 88.3217C12.674 88.3564 12.979 88.1131 13.0138 87.7732C13.0486 87.4334 12.8053 87.1283 12.4654 87.0935C12.1256 87.0588 11.8205 87.3021 11.7858 87.6419ZM6.17092 87.051C6.14389 87.3252 6.34084 87.5724 6.61502 87.5994C6.88919 87.6265 7.13634 87.4295 7.16337 87.1553C7.1904 86.8811 6.99346 86.6339 6.71928 86.6069C6.4451 86.5799 6.19796 86.7768 6.17092 87.051ZM0.556062 86.4601C0.532892 86.6687 0.687359 86.8579 0.895889 86.8811C1.10442 86.9043 1.29364 86.7498 1.31681 86.5412C1.33998 86.3327 1.18551 86.1434 0.976984 86.1203C0.768454 86.0971 0.579232 86.2516 0.556062 86.4601ZM74.5572 89.403C74.2328 90.4072 74.7811 91.4847 75.7852 91.813C76.7892 92.1412 77.8666 91.589 78.1949 90.5848C78.5231 89.5807 77.9709 88.5032 76.9668 88.1749C75.9628 87.8466 74.8854 88.3989 74.5572 89.403ZM69.1895 87.6574C68.8844 88.5997 69.398 89.6116 70.3402 89.9167C71.2825 90.2218 72.2942 89.7081 72.5993 88.7658C72.9044 87.8234 72.3908 86.8116 71.4485 86.5065C70.5063 86.2014 69.4945 86.715 69.1895 87.6574ZM63.8217 85.9117C63.536 86.7923 64.0187 87.7385 64.8991 88.0243C65.7796 88.3101 66.7257 87.8273 67.0115 86.9468C67.2972 86.0662 66.8145 85.12 65.9341 84.8342C65.0536 84.5484 64.1075 85.0312 63.8217 85.9117ZM58.454 84.1661C58.1876 84.9848 58.6355 85.8654 59.4542 86.1319C60.2729 86.3983 61.1533 85.9503 61.4198 85.1316C61.6862 84.3128 61.2383 83.4323 60.4196 83.1658C59.6009 82.8993 58.7205 83.3473 58.454 84.1661ZM53.0863 82.4204C52.8392 83.1774 53.2562 83.9884 54.0131 84.2356C54.77 84.4828 55.5809 84.0657 55.8281 83.3087C56.0752 82.5517 55.6582 81.7407 54.9013 81.4935C54.1444 81.2463 53.3335 81.6635 53.0863 82.4204ZM47.7186 80.6748C47.4946 81.3699 47.8731 82.1153 48.5682 82.3432C49.2633 82.571 50.0086 82.1887 50.2364 81.4935C50.4642 80.7983 50.0819 80.053 49.3868 79.8251C48.6917 79.5972 47.9464 79.9796 47.7186 80.6748ZM42.3509 78.9291C42.1462 79.5625 42.4899 80.2422 43.1232 80.4469C43.7565 80.6516 44.4362 80.3079 44.6408 79.6745C44.8455 79.0411 44.5018 78.3614 43.8685 78.1567C43.2352 77.952 42.5555 78.2957 42.3509 78.9291ZM36.9832 77.1834C36.7978 77.755 37.1106 78.3691 37.6821 78.5545C38.2536 78.7399 38.8676 78.427 39.053 77.8554C39.2384 77.2839 38.9256 76.6698 38.354 76.4844C37.7825 76.299 37.1685 76.6119 36.9832 77.1834ZM31.6154 75.4378C31.4494 75.9476 31.7274 76.496 32.2372 76.6621C32.7469 76.8281 33.2953 76.5501 33.4613 76.0403C33.6274 75.5305 33.3493 74.9821 32.8396 74.816C32.3298 74.6499 31.7815 74.928 31.6154 75.4378ZM26.2477 73.6921C26.101 74.1401 26.3481 74.6229 26.7961 74.7658C27.244 74.9087 27.7267 74.6654 27.8696 74.2174C28.0125 73.7694 27.7692 73.2866 27.3213 73.1437C26.8733 73.0008 26.3906 73.2441 26.2477 73.6921ZM20.88 71.9465C20.7564 72.3327 20.965 72.7459 21.3511 72.8734C21.7373 73.0008 22.1505 72.7884 22.2779 72.4022C22.4054 72.016 22.193 71.6028 21.8068 71.4753C21.4206 71.3479 21.0074 71.5603 20.88 71.9465ZM15.5123 70.2008C15.408 70.5252 15.5857 70.8728 15.91 70.9771C16.2344 71.0814 16.582 70.9037 16.6862 70.5793C16.7905 70.2549 16.6129 69.9073 16.2885 69.803C15.9641 69.6988 15.6166 69.8764 15.5123 70.2008ZM10.1446 68.4552C10.0596 68.7178 10.2025 68.9997 10.4651 69.0847C10.7277 69.1697 11.0096 69.0268 11.0945 68.7641C11.1795 68.5015 11.0366 68.2196 10.774 68.1346C10.5114 68.0497 10.2295 68.1926 10.1446 68.4552ZM4.77686 66.7095C4.71121 66.9103 4.8232 67.1266 5.02401 67.1923C5.22482 67.2579 5.44107 67.1459 5.50672 66.9451C5.57237 66.7443 5.46038 66.528 5.25957 66.4623C5.05876 66.3967 4.84251 66.5087 4.77686 66.7095ZM76.5459 84.9771C76.0169 85.8924 76.3297 87.0588 77.2449 87.5879C78.1601 88.117 79.3263 87.8041 79.8554 86.8888C80.3844 85.9735 80.0716 84.8072 79.1564 84.2781C78.2412 83.749 77.075 84.0618 76.5459 84.9771ZM71.6571 82.1539C71.1628 83.0113 71.4562 84.1081 72.3135 84.6063C73.1708 85.1046 74.2675 84.8072 74.7657 83.9498C75.2639 83.0924 74.9665 81.9956 74.1092 81.4974C73.2519 80.9992 72.1552 81.2966 71.6571 82.1539ZM66.7682 79.3308C66.3048 80.1341 66.579 81.1575 67.3822 81.621C68.1854 82.0844 69.2088 81.8102 69.6722 81.0069C70.1356 80.2036 69.8614 79.1801 69.0582 78.7167C68.2549 78.2532 67.2316 78.5275 66.7682 79.3308ZM61.8793 76.5076C61.4507 77.253 61.7055 78.2069 62.4508 78.6356C63.1961 79.0643 64.15 78.8094 64.5786 78.064C65.0073 77.3186 64.7524 76.3647 64.0071 75.936C63.2618 75.5073 62.308 75.7622 61.8793 76.5076ZM56.9904 73.6844C56.5927 74.3719 56.8283 75.2563 57.5195 75.6541C58.2107 76.0519 59.0912 75.8163 59.4889 75.125C59.8867 74.4336 59.6511 73.5531 58.9599 73.1553C58.2687 72.7575 57.3882 72.9931 56.9904 73.6844ZM52.1016 70.8612C51.7347 71.4946 51.9548 72.3018 52.5843 72.6687C53.2137 73.0356 54.0247 72.8155 54.3915 72.1859C54.7584 71.5564 54.5383 70.7454 53.9088 70.3785C53.2794 70.0116 52.4684 70.2317 52.1016 70.8612ZM47.2127 68.0381C46.8806 68.6135 47.0776 69.3512 47.6529 69.6833C48.2283 70.0154 48.9659 69.8185 49.298 69.243C49.6301 68.6676 49.4332 67.9299 48.8578 67.5978C48.2824 67.2657 47.5448 67.4626 47.2127 68.0381ZM42.3238 65.2149C42.0226 65.7363 42.2003 66.4006 42.7216 66.7018C43.2429 67.003 43.9071 66.8254 44.2083 66.304C44.5095 65.7826 44.3319 65.1184 43.8106 64.8171C43.2893 64.5159 42.625 64.6935 42.3238 65.2149ZM37.435 62.3917C37.1685 62.8552 37.3268 63.4499 37.7902 63.7164C38.2536 63.9829 38.8483 63.8246 39.1148 63.3611C39.3813 62.8977 39.2229 62.3029 38.7595 62.0364C38.2961 61.7699 37.7014 61.9283 37.435 62.3917ZM32.5461 59.5685C32.3105 59.9779 32.4496 60.4993 32.8589 60.7349C33.2682 60.9705 33.7896 60.8315 34.0251 60.4221C34.2607 60.0127 34.1217 59.4913 33.7123 59.2557C33.303 59.0201 32.7817 59.1592 32.5461 59.5685ZM27.6572 56.7454C27.4526 57.0968 27.5761 57.5448 27.9275 57.7495C28.279 57.9542 28.7269 57.8306 28.9316 57.4792C29.1363 57.1277 29.0127 56.6797 28.6613 56.475C28.3099 56.2703 27.8619 56.3939 27.6572 56.7454ZM22.7684 53.9222C22.5985 54.2157 22.6989 54.5942 22.9962 54.7641C23.2936 54.9341 23.6681 54.8337 23.838 54.5363C24.008 54.2389 23.9076 53.8643 23.6102 53.6943C23.3129 53.5244 22.9383 53.6248 22.7684 53.9222ZM17.8795 51.099C17.7405 51.3385 17.8216 51.6436 18.061 51.7826C18.3004 51.9217 18.6055 51.8406 18.7445 51.6011C18.8835 51.3617 18.8024 51.0565 18.563 50.9175C18.3236 50.7785 18.0185 50.8596 17.8795 51.099ZM12.9906 48.2759C12.8864 48.4574 12.9481 48.693 13.1296 48.7972C13.3111 48.9015 13.5467 48.8397 13.651 48.6582C13.7552 48.4767 13.6935 48.2411 13.512 48.1368C13.3305 48.0326 13.0949 48.0943 12.9906 48.2759ZM79.3958 81.0648C78.6892 81.8488 78.7509 83.0577 79.5387 83.7644C80.3265 84.4712 81.5313 84.4094 82.238 83.6215C82.9447 82.8336 82.8829 81.6287 82.0951 80.9219C81.3074 80.2152 80.1025 80.277 79.3958 81.0648ZM75.1982 77.2877C74.534 78.0254 74.5958 79.157 75.3295 79.8212C76.0632 80.4855 77.1985 80.4237 77.8628 79.6899C78.527 78.9561 78.4652 77.8207 77.7315 77.1564C76.9977 76.4921 75.8624 76.5539 75.1982 77.2877ZM71.0006 73.5106C70.3827 74.1981 70.4368 75.2601 71.1241 75.8781C71.8115 76.496 72.8735 76.4419 73.4913 75.7545C74.1092 75.067 74.0552 74.005 73.3678 73.387C72.6804 72.7691 71.6184 72.8232 71.0006 73.5106ZM66.8029 69.7335C66.2276 70.3746 66.2778 71.3595 66.9188 71.9349C67.5598 72.5103 68.5446 72.4601 69.1199 71.819C69.6953 71.1779 69.6451 70.1931 69.0041 69.6177C68.3631 69.0422 67.3783 69.0924 66.8029 69.7335ZM62.6053 65.9564C62.0724 66.5473 62.1187 67.4588 62.7134 67.9917C63.3081 68.5247 64.2156 68.4783 64.7485 67.8836C65.2814 67.2888 65.2351 66.3812 64.6404 65.8483C64.0457 65.3153 63.1382 65.3617 62.6053 65.9564ZM58.4077 62.1793C57.9172 62.7239 57.9636 63.5581 58.5042 64.0486C59.0449 64.539 59.8828 64.4927 60.3733 63.952C60.8637 63.4113 60.8174 62.5732 60.2767 62.0828C59.7361 61.5923 58.8981 61.6386 58.4077 62.1793ZM54.2101 58.4022C53.766 58.8966 53.8046 59.6612 54.2989 60.1054C54.7932 60.5495 55.5578 60.5109 56.0019 60.0165C56.446 59.5222 56.4073 58.7575 55.913 58.3134C55.4187 57.8692 54.6541 57.9079 54.2101 58.4022ZM50.0124 54.6251C49.6108 55.0731 49.6456 55.7606 50.0935 56.1622C50.5415 56.5639 51.2288 56.5291 51.6305 56.0811C52.0321 55.6331 51.9973 54.9457 51.5494 54.544C51.1014 54.1423 50.414 54.1771 50.0124 54.6251ZM45.8148 50.848C45.4557 51.2458 45.4865 51.8599 45.8882 52.219C46.2898 52.5782 46.8999 52.5473 47.259 52.1456C47.6182 51.744 47.5873 51.1338 47.1857 50.7746C46.7841 50.4154 46.1739 50.4463 45.8148 50.848ZM41.6172 47.0709C41.3005 47.4223 41.3314 47.9592 41.6789 48.2759C42.0265 48.5926 42.5671 48.5617 42.8838 48.2141C43.2004 47.8665 43.1695 47.3258 42.822 47.0091C42.4744 46.6924 41.9338 46.7233 41.6172 47.0709ZM37.4195 43.2938C37.1492 43.595 37.1724 44.0623 37.4736 44.3327C37.7748 44.603 38.2421 44.5799 38.5124 44.2786C38.7827 43.9774 38.7595 43.5101 38.4583 43.2397C38.1571 42.9694 37.6898 42.9926 37.4195 43.2938ZM33.2219 39.5167C32.9941 39.7716 33.0134 40.1617 33.2682 40.3895C33.5231 40.6174 33.9131 40.5981 34.141 40.3432C34.3688 40.0883 34.3495 39.6982 34.0946 39.4703C33.8398 39.2425 33.4497 39.2618 33.2219 39.5167ZM29.0243 35.7396C28.8389 35.9443 28.8544 36.261 29.0629 36.4463C29.2714 36.6317 29.5842 36.6163 29.7696 36.4077C29.9549 36.1992 29.9395 35.8863 29.7309 35.701C29.5224 35.5156 29.2096 35.531 29.0243 35.7396ZM24.8266 31.9625C24.6838 32.1208 24.6992 32.3603 24.8537 32.5032C25.0081 32.6461 25.2514 32.6306 25.3943 32.4761C25.5372 32.3217 25.5217 32.0783 25.3673 31.9354C25.2128 31.7926 24.9695 31.808 24.8266 31.9625ZM82.964 77.8439C82.1106 78.4657 81.9214 79.659 82.5392 80.5126C83.1571 81.3661 84.3542 81.5553 85.2076 80.9374C86.0611 80.3195 86.2503 79.1222 85.6324 78.2687C85.0146 77.4152 83.8174 77.2259 82.964 77.8439ZM79.6468 73.275C78.8436 73.8582 78.666 74.9782 79.2491 75.7815C79.8322 76.5848 80.9521 76.7625 81.7553 76.1793C82.5585 75.5961 82.7362 74.4761 82.1531 73.6728C81.57 72.8695 80.4501 72.6919 79.6468 73.275ZM76.3297 68.7062C75.5805 69.2508 75.4145 70.2974 75.959 71.0466C76.5034 71.7959 77.55 71.9619 78.2991 71.4174C79.0483 70.8728 79.2143 69.8262 78.6698 69.077C78.1253 68.3277 77.0788 68.1617 76.3297 68.7062ZM73.0125 64.1374C72.3174 64.6433 72.1629 65.6165 72.6688 66.3156C73.1747 67.0146 74.1478 67.1652 74.8468 66.6593C75.5458 66.1534 75.6964 65.1801 75.1905 64.4811C74.6846 63.7821 73.7115 63.6315 73.0125 64.1374ZM69.6953 59.5685C69.0504 60.0359 68.9075 60.9357 69.3748 61.5807C69.8421 62.2257 70.7418 62.3685 71.3867 61.9012C72.0316 61.4339 72.1745 60.5341 71.7073 59.8891C71.24 59.2441 70.3402 59.1012 69.6953 59.5685ZM66.3782 54.9997C65.7873 55.4284 65.656 56.2588 66.0847 56.8497C66.5133 57.4406 67.3436 57.5719 67.9344 57.1432C68.5252 56.7145 68.6565 55.8841 68.2279 55.2932C67.7992 54.7024 66.969 54.571 66.3782 54.9997ZM63.061 50.4309C62.5242 50.821 62.4045 51.5779 62.7945 52.1148C63.1846 52.6516 63.9414 52.7713 64.4782 52.3812C65.015 51.9912 65.1347 51.2342 64.7447 50.6974C64.3546 50.1605 63.5978 50.0408 63.061 50.4309ZM59.7438 45.8621C59.2572 46.2135 59.1491 46.8971 59.5044 47.3837C59.8597 47.8703 60.5393 47.9785 61.0259 47.6232C61.5125 47.2679 61.6206 46.5881 61.2653 46.1015C60.91 45.6149 60.2304 45.5068 59.7438 45.8621ZM56.4266 41.2932C55.9941 41.6099 55.8976 42.2163 56.2104 42.6488C56.5232 43.0814 57.1333 43.1779 57.5658 42.8651C57.9983 42.5523 58.0949 41.9421 57.7821 41.5095C57.4693 41.077 56.8591 40.9804 56.4266 41.2932ZM53.1095 36.7244C52.7272 37.0025 52.6422 37.5355 52.9202 37.9139C53.1983 38.2924 53.7312 38.3812 54.1096 38.1032C54.4881 37.8251 54.5769 37.2921 54.2989 36.9137C54.0208 36.5352 53.4879 36.4463 53.1095 36.7244ZM49.7923 32.1556C49.4641 32.395 49.3907 32.8546 49.6301 33.1829C49.8695 33.5112 50.3291 33.5845 50.6573 33.3451C50.9856 33.1057 51.0589 32.6461 50.8195 32.3178C50.5801 31.9895 50.1205 31.9161 49.7923 32.1556ZM46.4751 27.5868C46.201 27.7876 46.1392 28.1738 46.34 28.448C46.5408 28.7222 46.9269 28.784 47.2011 28.5832C47.4753 28.3823 47.5371 27.9961 47.3363 27.7219C47.1355 27.4477 46.7493 27.3859 46.4751 27.5868ZM43.158 23.0179C42.934 23.1801 42.8838 23.493 43.046 23.717C43.2082 23.941 43.521 23.9912 43.7449 23.829C43.9689 23.6668 44.0191 23.3539 43.8569 23.1299C43.6947 22.9059 43.3819 22.8557 43.158 23.0179ZM39.8408 18.4491C39.6709 18.5727 39.6323 18.8121 39.7558 18.9821C39.8794 19.152 40.1188 19.1906 40.2887 19.067C40.4587 18.9434 40.4973 18.704 40.3737 18.5341C40.2501 18.3641 40.0107 18.3255 39.8408 18.4491ZM87.1694 75.4185C86.2039 75.8472 85.7714 76.9788 86.2001 77.9404C86.6287 78.9021 87.7602 79.3385 88.7218 78.9098C89.6833 78.4811 90.1197 77.3495 89.691 76.3879C89.2624 75.4262 88.1309 74.9898 87.1694 75.4185ZM84.8717 70.2588C83.968 70.6604 83.5587 71.7225 83.9642 72.6262C84.3697 73.5299 85.4278 73.9393 86.3314 73.5338C87.235 73.1283 87.6444 72.0701 87.2389 71.1663C86.8334 70.2626 85.7753 69.8532 84.8717 70.2588ZM82.574 65.099C81.7283 65.4775 81.3498 66.4662 81.7244 67.312C82.099 68.1578 83.0914 68.5363 83.9372 68.1617C84.7829 67.787 85.1613 66.7945 84.7867 65.9487C84.4121 65.1029 83.4197 64.7244 82.574 65.099ZM80.2763 59.9393C79.4885 60.2908 79.1371 61.2099 79.4847 61.9978C79.8322 62.7857 80.7551 63.1371 81.5429 62.7895C82.3307 62.4419 82.6821 61.5189 82.3346 60.731C81.987 59.9432 81.0641 59.5917 80.2763 59.9393ZM77.9786 54.7796C77.2526 55.104 76.9244 55.9537 77.2487 56.6836C77.5731 57.4135 78.4227 57.7379 79.1525 57.4135C79.8824 57.0891 80.2068 56.2395 79.8824 55.5095C79.558 54.7796 78.7085 54.4552 77.9786 54.7796ZM75.6809 49.6199C75.0128 49.9172 74.7116 50.7012 75.009 51.3655C75.3063 52.0298 76.0902 52.3349 76.7545 52.0375C77.4187 51.7401 77.7237 50.9561 77.4264 50.2919C77.129 49.6276 76.3451 49.3225 75.6809 49.6199ZM73.3832 44.4601C72.7731 44.7305 72.5028 45.445 72.7731 46.0513C73.0434 46.6576 73.7578 46.9319 74.3641 46.6615C74.9704 46.3912 75.2445 45.6767 74.9742 45.0704C74.7039 44.464 73.9895 44.1898 73.3832 44.4601ZM71.0855 39.3004C70.5372 39.5437 70.29 40.1887 70.5333 40.7371C70.7766 41.2855 71.4215 41.5327 71.9698 41.2894C72.5182 41.0461 72.7654 40.4011 72.5221 39.8527C72.2788 39.3043 71.6339 39.0571 71.0855 39.3004ZM68.7878 34.1407C68.2974 34.357 68.0773 34.9324 68.2974 35.4229C68.5175 35.9134 69.089 36.1335 69.5795 35.9134C70.0699 35.6932 70.29 35.1217 70.0699 34.6312C69.8498 34.1407 69.2783 33.9205 68.7878 34.1407ZM66.4901 28.981C66.0615 29.1741 65.8646 29.6761 66.0576 30.1087C66.2507 30.5412 66.7527 30.7344 67.1852 30.5412C67.6178 30.3481 67.8108 29.8461 67.6178 29.4135C67.4247 28.981 66.9227 28.7879 66.4901 28.981ZM64.1925 23.8212C63.8217 23.9873 63.6557 24.4199 63.8217 24.7906C63.9878 25.1614 64.4203 25.3274 64.791 25.1614C65.1617 24.9953 65.3278 24.5628 65.1617 24.192C64.9957 23.8212 64.5632 23.6552 64.1925 23.8212ZM61.8948 18.6615C61.582 18.8006 61.443 19.1636 61.582 19.4764C61.721 19.7892 62.084 19.9283 62.3968 19.7892C62.7096 19.6502 62.8486 19.2872 62.7096 18.9743C62.5706 18.6615 62.2076 18.5225 61.8948 18.6615ZM59.5971 13.5018C59.3461 13.6138 59.2302 13.9112 59.3422 14.1622C59.4542 14.4132 59.7515 14.5291 60.0025 14.4171C60.2536 14.3051 60.3694 14.0077 60.2574 13.7567C60.1454 13.5057 59.8481 13.3898 59.5971 13.5018ZM57.2994 8.34207C57.1063 8.42704 57.0213 8.6549 57.1063 8.848C57.1913 9.04111 57.4191 9.12607 57.6122 9.04111C57.8053 8.95614 57.8902 8.72828 57.8053 8.53517C57.7203 8.34207 57.4925 8.25711 57.2994 8.34207ZM91.7493 73.9046C90.7182 74.1247 90.0579 75.1404 90.278 76.1716C90.4981 77.2028 91.5137 77.8632 92.5448 77.643C93.5759 77.4229 94.2362 76.4072 94.0161 75.376C93.796 74.3448 92.7804 73.6844 91.7493 73.9046ZM90.5754 68.3818C89.6061 68.5865 88.9882 69.5404 89.1929 70.5098C89.3976 71.4792 90.3514 72.0971 91.3207 71.8924C92.2899 71.6877 92.9078 70.7338 92.7031 69.7644C92.4985 68.795 91.5446 68.1771 90.5754 68.3818ZM89.4014 62.859C88.4978 63.0521 87.9185 63.9404 88.1116 64.848C88.3047 65.7556 89.1929 66.331 90.1004 66.1379C91.0079 65.9448 91.5833 65.0566 91.3902 64.149C91.1971 63.2414 90.3089 62.6659 89.4014 62.859ZM88.2275 57.3363C87.3856 57.5139 86.8489 58.3443 87.0265 59.1862C87.2041 60.0281 88.0344 60.565 88.8762 60.3873C89.7181 60.2097 90.2548 59.3793 90.0772 58.5374C89.8996 57.6954 89.0693 57.1586 88.2275 57.3363ZM87.0535 51.8135C86.2735 51.9796 85.7792 52.7443 85.9452 53.5244C86.1113 54.3046 86.8759 54.7989 87.6559 54.6328C88.436 54.4668 88.9303 53.7021 88.7642 52.9219C88.5982 52.1418 87.8336 51.6474 87.0535 51.8135ZM85.8796 46.2908C85.1652 46.4414 84.7095 47.1443 84.8601 47.8588C85.0107 48.5732 85.7135 49.029 86.4279 48.8783C87.1423 48.7277 87.598 48.0248 87.4474 47.3103C87.2968 46.5959 86.594 46.1401 85.8796 46.2908ZM84.7056 40.768C84.053 40.907 83.6398 41.5481 83.7788 42.197C83.9178 42.8458 84.5589 43.2629 85.2076 43.1239C85.8564 42.9848 86.2735 42.3437 86.1344 41.6949C85.9954 41.0461 85.3544 40.629 84.7056 40.768ZM83.5317 35.2452C82.9447 35.3688 82.5701 35.9481 82.6937 36.5352C82.8173 37.1222 83.3965 37.4968 83.9835 37.3732C84.5705 37.2496 84.945 36.6703 84.8215 36.0833C84.6979 35.4963 84.1187 35.1217 83.5317 35.2452ZM82.3577 29.7225C81.8326 29.8345 81.5004 30.3481 81.6086 30.8734C81.7167 31.3986 82.2342 31.7308 82.7593 31.6226C83.2845 31.5145 83.6166 30.997 83.5085 30.4717C83.4004 29.9465 82.8829 29.6143 82.3577 29.7225ZM81.1838 24.1997C80.7242 24.2963 80.4308 24.752 80.5273 25.2116C80.6238 25.6712 81.0795 25.9647 81.5391 25.8681C81.9986 25.7716 82.2921 25.3159 82.1955 24.8563C82.099 24.3967 81.6433 24.1032 81.1838 24.1997ZM80.0098 18.677C79.6121 18.7619 79.3611 19.152 79.4422 19.5498C79.5233 19.9476 79.9172 20.1986 80.3149 20.1175C80.7127 20.0364 80.9637 19.6425 80.8826 19.2447C80.8015 18.8469 80.4076 18.5959 80.0098 18.677ZM78.8359 13.1542C78.5038 13.2237 78.2875 13.552 78.3609 13.888C78.4343 14.224 78.7587 14.4364 79.0946 14.363C79.4306 14.2897 79.643 13.9652 79.5696 13.6292C79.4962 13.2932 79.1719 13.0808 78.8359 13.1542ZM77.6619 7.63145C77.3916 7.68938 77.2179 7.95587 77.2758 8.22621C77.3337 8.49656 77.6002 8.67035 77.8705 8.61242C78.1408 8.55449 78.3146 8.288 78.2566 8.01766C78.1987 7.74731 77.9323 7.57352 77.6619 7.63145ZM76.488 2.10869C76.2833 2.15118 76.1482 2.35586 76.1945 2.56055C76.2409 2.76524 76.4417 2.90041 76.6463 2.85407C76.851 2.80772 76.9862 2.6069 76.9398 2.40221C76.8935 2.19752 76.6927 2.06235 76.488 2.10869ZM96.5571 73.4025C95.5028 73.4025 94.6456 74.2599 94.6456 75.3142C94.6456 76.3686 95.5028 77.2259 96.5571 77.2259C97.6113 77.2259 98.4686 76.3686 98.4686 75.3142C98.4686 74.2599 97.6113 73.4025 96.5571 73.4025ZM96.5571 67.7561C95.5646 67.7561 94.7614 68.5594 94.7614 69.552C94.7614 70.5445 95.5646 71.3479 96.5571 71.3479C97.5495 71.3479 98.3528 70.5445 98.3528 69.552C98.3528 68.5594 97.5495 67.7561 96.5571 67.7561ZM96.5571 62.1098C95.6303 62.1098 94.8811 62.859 94.8811 63.7859C94.8811 64.7128 95.6303 65.4621 96.5571 65.4621C97.4839 65.4621 98.233 64.7128 98.233 63.7859C98.233 62.859 97.4839 62.1098 96.5571 62.1098ZM96.5571 56.4635C95.6959 56.4635 94.997 57.1625 94.997 58.0237C94.997 58.885 95.6959 59.584 96.5571 59.584C97.4182 59.584 98.1172 58.885 98.1172 58.0237C98.1172 57.1625 97.4182 56.4635 96.5571 56.4635ZM96.5571 50.8171C95.7616 50.8171 95.1167 51.4621 95.1167 52.2577C95.1167 53.0532 95.7616 53.6982 96.5571 53.6982C97.3526 53.6982 97.9975 53.0532 97.9975 52.2577C97.9975 51.4621 97.3526 50.8171 96.5571 50.8171ZM96.5571 45.1708C95.8272 45.1708 95.2325 45.7617 95.2325 46.4955C95.2325 47.2292 95.8234 47.8201 96.5571 47.8201C97.2908 47.8201 97.8816 47.2292 97.8816 46.4955C97.8816 45.7617 97.2908 45.1708 96.5571 45.1708ZM96.5571 39.5244C95.8929 39.5244 95.3522 40.0651 95.3522 40.7294C95.3522 41.3937 95.8929 41.9344 96.5571 41.9344C97.2213 41.9344 97.7619 41.3937 97.7619 40.7294C97.7619 40.0651 97.2213 39.5244 96.5571 39.5244ZM96.5571 33.8781C95.9547 33.8781 95.4681 34.3647 95.4681 34.9672C95.4681 35.5697 95.9547 36.0563 96.5571 36.0563C97.1595 36.0563 97.6461 35.5697 97.6461 34.9672C97.6461 34.3647 97.1595 33.8781 96.5571 33.8781ZM96.5571 28.2317C96.0203 28.2317 95.5878 28.6681 95.5878 29.2011C95.5878 29.7341 96.0242 30.1705 96.5571 30.1705C97.09 30.1705 97.5264 29.7341 97.5264 29.2011C97.5264 28.6681 97.09 28.2317 96.5571 28.2317ZM96.5571 22.5854C96.086 22.5854 95.7037 22.9677 95.7037 23.4389C95.7037 23.9101 96.086 24.2924 96.5571 24.2924C97.0282 24.2924 97.4105 23.9101 97.4105 23.4389C97.4105 22.9677 97.0282 22.5854 96.5571 22.5854ZM96.5571 16.939C96.1516 16.939 95.8234 17.2673 95.8234 17.6728C95.8234 18.0783 96.1516 18.4066 96.5571 18.4066C96.9625 18.4066 97.2908 18.0783 97.2908 17.6728C97.2908 17.2673 96.9625 16.939 96.5571 16.939ZM96.5571 11.2927C96.2172 11.2927 95.9392 11.5708 95.9392 11.9106C95.9392 12.2505 96.2172 12.5286 96.5571 12.5286C96.8969 12.5286 97.1749 12.2505 97.1749 11.9106C97.1749 11.5708 96.8969 11.2927 96.5571 11.2927ZM96.5571 5.64634C96.2829 5.64634 96.0589 5.87035 96.0589 6.14455C96.0589 6.41876 96.2829 6.64276 96.5571 6.64276C96.8313 6.64276 97.0552 6.41876 97.0552 6.14455C97.0552 5.87035 96.8313 5.64634 96.5571 5.64634ZM96.5571 0C96.3447 0 96.1748 0.169933 96.1748 0.382347C96.1748 0.594761 96.3447 0.764694 96.5571 0.764694C96.7695 0.764694 96.9394 0.594761 96.9394 0.382347C96.9394 0.169933 96.7695 0 96.5571 0ZM101.365 73.9084C100.334 73.6883 99.3182 74.3487 99.0981 75.3799C98.8779 76.411 99.5383 77.4268 100.569 77.6469C101.6 77.867 102.616 77.2066 102.836 76.1754C103.056 75.1443 102.396 74.1285 101.365 73.9084ZM102.539 68.3857C101.57 68.181 100.616 68.7989 100.411 69.7683C100.206 70.7377 100.824 71.6916 101.794 71.8963C102.763 72.101 103.717 71.483 103.921 70.5137C104.126 69.5443 103.508 68.5903 102.539 68.3857ZM103.713 62.8629C102.809 62.6698 101.917 63.2491 101.724 64.1528C101.531 65.0566 102.11 65.9487 103.014 66.1418C103.917 66.3349 104.809 65.7556 105.003 64.8519C105.196 63.9481 104.616 63.056 103.713 62.8629ZM104.887 57.3401C104.045 57.1625 103.218 57.6993 103.037 58.5412C102.855 59.3832 103.396 60.2097 104.238 60.3912C105.08 60.5727 105.906 60.032 106.088 59.1901C106.269 58.3481 105.729 57.5217 104.887 57.3401ZM106.061 51.8174C105.281 51.6513 104.516 52.1495 104.35 52.9258C104.184 53.7021 104.682 54.4706 105.458 54.6367C106.234 54.8028 107.003 54.3046 107.169 53.5283C107.335 52.752 106.837 51.9835 106.061 51.8174ZM107.235 46.2946C106.52 46.144 105.817 46.5997 105.667 47.3142C105.516 48.0287 105.972 48.7316 106.686 48.8822C107.401 49.0328 108.103 48.5771 108.254 47.8626C108.405 47.1481 107.949 46.4452 107.235 46.2946ZM108.409 40.7719C107.756 40.6328 107.119 41.0499 106.98 41.6988C106.841 42.3476 107.258 42.9887 107.907 43.1277C108.555 43.2668 109.196 42.8497 109.335 42.2008C109.474 41.552 109.057 40.9109 108.409 40.7719ZM109.582 35.2491C108.996 35.1255 108.416 35.5001 108.293 36.0872C108.169 36.6742 108.544 37.2535 109.131 37.3771C109.718 37.5007 110.297 37.1261 110.42 36.539C110.544 35.952 110.169 35.3727 109.582 35.2491ZM110.756 29.7263C110.231 29.6143 109.718 29.9503 109.606 30.4756C109.494 31.0008 109.83 31.5145 110.355 31.6265C110.88 31.7385 111.394 31.4025 111.506 30.8772C111.618 30.352 111.282 29.8383 110.756 29.7263ZM111.93 24.2036C111.471 24.107 111.015 24.4005 110.919 24.8601C110.822 25.3197 111.116 25.7754 111.575 25.872C112.035 25.9685 112.49 25.675 112.587 25.2155C112.683 24.7559 112.39 24.3001 111.93 24.2036ZM113.104 18.6808C112.707 18.5959 112.317 18.8508 112.232 19.2486C112.147 19.6463 112.402 20.0364 112.799 20.1214C113.197 20.2063 113.587 19.9515 113.672 19.5537C113.757 19.1559 113.502 18.7658 113.104 18.6808ZM114.278 13.1581C113.946 13.0886 113.618 13.301 113.545 13.6331C113.471 13.9652 113.687 14.2935 114.02 14.3669C114.352 14.4403 114.68 14.224 114.753 13.8919C114.827 13.5597 114.61 13.2315 114.278 13.1581ZM115.452 7.63531C115.182 7.57737 114.915 7.75117 114.858 8.02151C114.8 8.29186 114.973 8.55834 115.244 8.61627C115.514 8.67421 115.78 8.50041 115.838 8.23007C115.896 7.95972 115.723 7.69324 115.452 7.63531ZM116.626 2.11255C116.422 2.07007 116.217 2.20138 116.174 2.40607C116.132 2.61076 116.263 2.81545 116.468 2.85793C116.673 2.90042 116.877 2.7691 116.92 2.56441C116.962 2.35972 116.831 2.15504 116.626 2.11255ZM105.964 75.4069C104.999 74.9782 103.871 75.4108 103.442 76.3763C103.014 77.3418 103.446 78.4695 104.412 78.8982C105.377 79.3269 106.505 78.8943 106.933 77.9288C107.362 76.9633 106.93 75.8356 105.964 75.4069ZM108.262 70.2472C107.358 69.8455 106.296 70.251 105.895 71.1548C105.493 72.0585 105.898 73.1206 106.802 73.5222C107.706 73.9239 108.768 73.5183 109.169 72.6146C109.571 71.7109 109.165 70.6488 108.262 70.2472ZM110.559 65.0874C109.714 64.709 108.721 65.0875 108.347 65.9371C107.972 66.7868 108.347 67.7754 109.196 68.1501C110.046 68.5247 111.034 68.1501 111.409 67.3004C111.784 66.4508 111.409 65.4621 110.559 65.0874ZM112.857 59.9277C112.069 59.5763 111.15 59.9277 110.799 60.7194C110.448 61.5112 110.799 62.4265 111.591 62.7779C112.382 63.1294 113.297 62.7779 113.649 61.9862C114 61.1945 113.649 60.2792 112.857 59.9277ZM115.155 54.768C114.429 54.4436 113.575 54.768 113.251 55.4979C112.927 56.2279 113.251 57.0775 113.981 57.4019C114.711 57.7263 115.56 57.4019 115.885 56.672C116.209 55.9421 115.885 55.0924 115.155 54.768ZM117.453 49.6083C116.784 49.3109 116.004 49.6083 115.707 50.2803C115.41 50.9523 115.707 51.7285 116.379 52.0259C117.051 52.3233 117.827 52.0259 118.124 51.3539C118.422 50.6819 118.124 49.9057 117.453 49.6083ZM119.75 44.4486C119.14 44.1782 118.43 44.4486 118.159 45.0588C117.889 45.669 118.159 46.3796 118.769 46.6499C119.38 46.9203 120.09 46.6499 120.36 46.0397C120.631 45.4295 120.36 44.7189 119.75 44.4486ZM122.048 39.2888C121.5 39.0455 120.855 39.2888 120.611 39.8411C120.368 40.3934 120.611 41.0345 121.164 41.2778C121.716 41.5211 122.357 41.2778 122.6 40.7255C122.843 40.1732 122.6 39.5321 122.048 39.2888ZM124.346 34.1291C123.855 33.9128 123.284 34.1291 123.064 34.6196C122.843 35.1101 123.064 35.6817 123.554 35.9018C124.044 36.1219 124.616 35.9018 124.836 35.4113C125.056 34.9208 124.836 34.3492 124.346 34.1291ZM126.643 28.9694C126.215 28.7763 125.709 28.9694 125.516 29.4019C125.323 29.8345 125.516 30.3366 125.948 30.5297C126.381 30.7228 126.883 30.5297 127.076 30.0971C127.269 29.6645 127.076 29.1625 126.643 28.9694ZM128.941 23.8097C128.57 23.6436 128.134 23.8097 127.972 24.1804C127.81 24.5512 127.972 24.9876 128.342 25.1498C128.713 25.312 129.15 25.1498 129.312 24.779C129.474 24.4083 129.312 23.9719 128.941 23.8097ZM131.239 18.6499C130.926 18.5109 130.563 18.6499 130.424 18.9628C130.285 19.2756 130.424 19.6386 130.737 19.7777C131.049 19.9167 131.412 19.7777 131.551 19.4648C131.691 19.152 131.551 18.789 131.239 18.6499ZM133.536 13.4902C133.285 13.3782 132.988 13.4902 132.876 13.7451C132.764 14 132.876 14.2935 133.131 14.4055C133.386 14.5175 133.679 14.4055 133.791 14.1506C133.903 13.8957 133.791 13.6022 133.536 13.4902ZM135.834 8.33049C135.641 8.24552 135.417 8.33049 135.328 8.52359C135.239 8.71669 135.328 8.94069 135.521 9.02952C135.714 9.11835 135.938 9.02952 136.027 8.83642C136.116 8.64331 136.027 8.41931 135.834 8.33049ZM110.169 77.8052C109.316 77.1834 108.119 77.3727 107.501 78.2301C106.883 79.0874 107.069 80.2808 107.926 80.8988C108.783 81.5167 109.976 81.3313 110.594 80.4739C111.212 79.6165 111.027 78.4232 110.169 77.8052ZM113.487 73.2364C112.683 72.6532 111.564 72.8309 110.98 73.6342C110.397 74.4375 110.575 75.5575 111.378 76.1407C112.181 76.7239 113.301 76.5462 113.884 75.7429C114.467 74.9396 114.29 73.8196 113.487 73.2364ZM116.804 68.6676C116.055 68.123 115.008 68.2891 114.464 69.0383C113.919 69.7876 114.085 70.8342 114.834 71.3788C115.584 71.9233 116.63 71.7572 117.175 71.008C117.719 70.2588 117.553 69.2121 116.804 68.6676ZM120.121 64.0988C119.426 63.5928 118.449 63.7473 117.943 64.4425C117.437 65.1377 117.592 66.1148 118.287 66.6207C118.982 67.1266 119.959 66.9721 120.465 66.277C120.971 65.5818 120.816 64.6047 120.121 64.0988ZM123.438 59.5299C122.793 59.0626 121.893 59.2055 121.426 59.8505C120.959 60.4954 121.102 61.3953 121.747 61.8626C122.392 62.3299 123.291 62.187 123.759 61.5421C124.226 60.8971 124.083 59.9972 123.438 59.5299ZM126.755 54.9611C126.164 54.5324 125.338 54.6637 124.906 55.2546C124.473 55.8455 124.608 56.672 125.199 57.1046C125.79 57.5371 126.616 57.4019 127.049 56.811C127.481 56.2201 127.346 55.3937 126.755 54.9611ZM130.072 50.3923C129.536 50.0022 128.779 50.1219 128.389 50.6588C127.999 51.1956 128.118 51.9526 128.655 52.3426C129.192 52.7327 129.949 52.613 130.339 52.0761C130.729 51.5393 130.609 50.7823 130.072 50.3923ZM133.39 45.8234C132.903 45.472 132.223 45.5763 131.868 46.0629C131.513 46.5495 131.621 47.2292 132.108 47.5845C132.594 47.9399 133.274 47.8317 133.629 47.3451C133.984 46.8585 133.876 46.1788 133.39 45.8234ZM136.707 41.2546C136.274 40.9379 135.668 41.0345 135.351 41.4709C135.035 41.9073 135.131 42.5098 135.568 42.8265C136.004 43.1432 136.606 43.0466 136.923 42.6102C137.24 42.1738 137.143 41.5713 136.707 41.2546ZM140.024 36.6858C139.642 36.4077 139.109 36.4927 138.835 36.875C138.56 37.2574 138.642 37.7903 139.024 38.0646C139.406 38.3388 139.939 38.2577 140.213 37.8753C140.487 37.493 140.406 36.96 140.024 36.6858ZM143.341 32.117C143.013 31.8775 142.553 31.9509 142.314 32.2792C142.075 32.6075 142.148 33.067 142.476 33.3065C142.804 33.5459 143.264 33.4726 143.503 33.1443C143.743 32.816 143.669 32.3564 143.341 32.117ZM146.658 27.5481C146.384 27.3473 145.998 27.4091 145.797 27.6833C145.596 27.9575 145.658 28.3437 145.932 28.5446C146.207 28.7454 146.593 28.6836 146.794 28.4094C146.994 28.1352 146.933 27.749 146.658 27.5481ZM149.976 22.9793C149.752 22.8171 149.439 22.8673 149.277 23.0913C149.114 23.3153 149.165 23.6281 149.389 23.7903C149.613 23.9526 149.925 23.9023 150.087 23.6783C150.25 23.4543 150.199 23.1415 149.976 22.9793ZM153.293 18.4105C153.123 18.2869 152.883 18.3255 152.76 18.4955C152.636 18.6654 152.675 18.9048 152.845 19.0284C153.015 19.152 153.254 19.1134 153.378 18.9435C153.501 18.7735 153.463 18.5341 153.293 18.4105ZM113.745 81.0301C113.039 80.2461 111.83 80.1804 111.046 80.8872C110.262 81.5939 110.196 82.8028 110.903 83.5868C111.61 84.3708 112.819 84.4364 113.602 83.7297C114.386 83.0229 114.452 81.8141 113.745 81.0301ZM117.943 77.253C117.279 76.5153 116.147 76.4574 115.41 77.1217C114.672 77.7859 114.614 78.9175 115.278 79.6552C115.943 80.3928 117.074 80.4508 117.812 79.7865C118.549 79.1222 118.607 77.9906 117.943 77.253ZM122.141 73.4759C121.523 72.7884 120.461 72.7305 119.773 73.3523C119.086 73.9741 119.028 75.0323 119.65 75.7197C120.272 76.4072 121.33 76.4651 122.017 75.8433C122.704 75.2215 122.762 74.1633 122.141 73.4759ZM126.338 69.6988C125.763 69.0577 124.778 69.0075 124.137 69.5829C123.496 70.1583 123.446 71.1432 124.021 71.7843C124.597 72.4254 125.581 72.4756 126.222 71.9001C126.863 71.3247 126.914 70.3399 126.338 69.6988ZM130.536 65.9217C130.003 65.3308 129.092 65.2806 128.501 65.8135C127.91 66.3465 127.86 67.2579 128.393 67.8488C128.926 68.4397 129.837 68.4899 130.428 67.957C131.019 67.424 131.069 66.5126 130.536 65.9217ZM134.734 62.1446C134.243 61.6 133.409 61.5575 132.864 62.048C132.32 62.5385 132.277 63.3727 132.768 63.9172C133.258 64.4618 134.092 64.5043 134.637 64.0138C135.181 63.5233 135.224 62.6891 134.734 62.1446ZM138.931 58.3675C138.487 57.8731 137.722 57.8345 137.228 58.2786C136.734 58.7228 136.695 59.4874 137.139 59.9818C137.583 60.4761 138.348 60.5148 138.842 60.0706C139.337 59.6265 139.375 58.8618 138.931 58.3675ZM143.129 54.5903C142.727 54.1423 142.04 54.1076 141.592 54.5092C141.144 54.9109 141.109 55.5983 141.511 56.0463C141.912 56.4943 142.6 56.5291 143.048 56.1275C143.496 55.7258 143.53 55.0383 143.129 54.5903ZM147.326 50.8132C146.967 50.4155 146.353 50.3846 145.956 50.7399C145.558 51.0952 145.527 51.7131 145.882 52.1109C146.237 52.5087 146.855 52.5396 147.253 52.1843C147.651 51.829 147.682 51.211 147.326 50.8132ZM151.524 47.0361C151.207 46.6847 150.671 46.6577 150.319 46.9743C149.968 47.291 149.941 47.8279 150.257 48.1793C150.574 48.5308 151.111 48.5578 151.462 48.2411C151.814 47.9244 151.841 47.3876 151.524 47.0361ZM155.722 43.259C155.451 42.9578 154.984 42.9346 154.683 43.205C154.382 43.4753 154.359 43.9426 154.629 44.2439C154.899 44.5451 155.366 44.5683 155.668 44.2979C155.969 44.0276 155.992 43.5603 155.722 43.259ZM159.919 39.4819C159.691 39.227 159.301 39.2077 159.047 39.4356C158.792 39.6635 158.772 40.0535 159 40.3084C159.228 40.5633 159.618 40.5826 159.873 40.3548C160.128 40.1269 160.147 39.7368 159.919 39.4819ZM164.117 35.7048C163.932 35.5001 163.615 35.4847 163.41 35.6662C163.206 35.8477 163.19 36.1683 163.372 36.373C163.553 36.5777 163.874 36.5931 164.078 36.4116C164.283 36.2301 164.298 35.9095 164.117 35.7048ZM168.315 31.9277C168.172 31.7694 167.932 31.7578 167.774 31.9007C167.616 32.0436 167.604 32.283 167.747 32.4414C167.89 32.5997 168.129 32.6113 168.288 32.4684C168.446 32.3255 168.457 32.0861 168.315 31.9277ZM116.611 84.9578C116.082 84.0425 114.915 83.7297 114 84.2588C113.085 84.7879 112.772 85.9542 113.301 86.8695C113.83 87.7848 114.997 88.0976 115.912 87.5686C116.827 87.0394 117.14 85.8731 116.611 84.9578ZM121.5 82.1346C121.005 81.2772 119.909 80.9837 119.047 81.4781C118.186 81.9724 117.897 83.0692 118.391 83.9305C118.885 84.7917 119.982 85.0814 120.843 84.587C121.704 84.0927 121.994 82.9959 121.5 82.1346ZM126.388 79.3115C125.925 78.5081 124.902 78.2339 124.098 78.6974C123.295 79.1608 123.021 80.1843 123.484 80.9876C123.948 81.7909 124.971 82.0651 125.774 81.6017C126.578 81.1382 126.852 80.1148 126.388 79.3115ZM131.277 76.4883C130.849 75.7429 129.895 75.488 129.15 75.9167C128.404 76.3454 128.149 77.2993 128.578 78.0447C129.007 78.7901 129.96 79.045 130.706 78.6163C131.451 78.1876 131.706 77.2337 131.277 76.4883ZM136.166 73.6651C135.768 72.9777 134.888 72.7382 134.197 73.136C133.506 73.5338 133.27 74.4143 133.668 75.1057C134.065 75.797 134.946 76.0325 135.637 75.6348C136.328 75.237 136.564 74.3564 136.166 73.6651ZM141.055 70.8419C140.688 70.2085 139.881 69.9923 139.248 70.3592C138.614 70.7261 138.398 71.5332 138.765 72.1666C139.132 72.8 139.939 73.0163 140.572 72.6494C141.206 72.2825 141.422 71.4753 141.055 70.8419ZM145.944 68.0188C145.612 67.4433 144.874 67.2463 144.299 67.5785C143.723 67.9106 143.527 68.6483 143.859 69.2237C144.191 69.7992 144.928 69.9961 145.504 69.664C146.079 69.3319 146.276 68.5942 145.944 68.0188ZM150.833 65.1956C150.532 64.6742 149.867 64.4966 149.346 64.7978C148.825 65.099 148.647 65.7633 148.948 66.2847C149.25 66.8061 149.914 66.9837 150.435 66.6825C150.956 66.3812 151.134 65.717 150.833 65.1956ZM155.722 62.3724C155.455 61.909 154.861 61.7506 154.397 62.0171C153.934 62.2836 153.775 62.8783 154.042 63.3418C154.308 63.8052 154.903 63.9636 155.366 63.6971C155.83 63.4306 155.988 62.8359 155.722 62.3724ZM160.611 59.5492C160.375 59.1399 159.854 59.0008 159.444 59.2364C159.035 59.472 158.896 59.9934 159.132 60.4028C159.367 60.8121 159.888 60.9512 160.298 60.7156C160.707 60.48 160.846 59.9586 160.611 59.5492ZM165.499 56.7261C165.295 56.3746 164.847 56.2549 164.495 56.4557C164.144 56.6565 164.024 57.1084 164.225 57.4599C164.426 57.8113 164.878 57.931 165.229 57.7302C165.581 57.5294 165.7 57.0775 165.499 56.7261ZM170.388 53.9029C170.218 53.6094 169.84 53.5051 169.546 53.675C169.253 53.845 169.149 54.2234 169.319 54.517C169.489 54.8105 169.867 54.9148 170.16 54.7448C170.454 54.5749 170.558 54.1964 170.388 53.9029ZM175.277 51.0797C175.138 50.8403 174.833 50.7592 174.594 50.8982C174.354 51.0372 174.273 51.3423 174.412 51.5818C174.551 51.8212 174.856 51.9023 175.096 51.7633C175.335 51.6243 175.416 51.3192 175.277 51.0797ZM180.166 48.2566C180.062 48.075 179.826 48.0094 179.645 48.1175C179.463 48.2257 179.398 48.4574 179.506 48.6389C179.614 48.8204 179.846 48.8861 180.027 48.7779C180.208 48.6698 180.274 48.4381 180.166 48.2566ZM118.569 89.376C118.244 88.3719 117.163 87.8234 116.159 88.1479C115.155 88.4723 114.607 89.5537 114.931 90.5578C115.255 91.5619 116.337 92.1103 117.341 91.7859C118.345 91.4615 118.893 90.3801 118.569 89.376ZM123.936 87.6303C123.631 86.688 122.619 86.1705 121.677 86.4795C120.735 86.7884 120.218 87.7964 120.526 88.7388C120.835 89.6811 121.843 90.1986 122.786 89.8897C123.728 89.5807 124.245 88.5727 123.936 87.6303ZM129.304 85.8847C129.018 85.0041 128.072 84.5214 127.192 84.8072C126.311 85.093 125.829 86.0392 126.114 86.9197C126.4 87.8003 127.346 88.283 128.227 87.9972C129.107 87.7114 129.59 86.7652 129.304 85.8847ZM134.672 84.139C134.405 83.3203 133.525 82.8723 132.706 83.1388C131.887 83.4052 131.44 84.2858 131.706 85.1046C131.972 85.9233 132.853 86.3713 133.672 86.1048C134.49 85.8383 134.938 84.9578 134.672 84.139ZM140.039 82.3934C139.792 81.6364 138.981 81.2232 138.224 81.4665C137.468 81.7098 137.054 82.5247 137.298 83.2817C137.541 84.0386 138.356 84.4519 139.113 84.2086C139.87 83.9652 140.283 83.1503 140.039 82.3934ZM145.407 80.6477C145.183 79.9526 144.434 79.5741 143.739 79.7981C143.044 80.0221 142.665 80.7713 142.889 81.4665C143.113 82.1617 143.862 82.5401 144.558 82.3161C145.253 82.0921 145.631 81.3429 145.407 80.6477ZM150.775 78.9021C150.57 78.2687 149.891 77.9211 149.257 78.1297C148.624 78.3382 148.276 79.0141 148.485 79.6475C148.693 80.2808 149.369 80.6284 150.003 80.4199C150.636 80.2113 150.983 79.5355 150.775 78.9021ZM156.143 77.1564C155.957 76.5848 155.343 76.272 154.772 76.4574C154.2 76.6428 153.887 77.2568 154.073 77.8284C154.258 78.4 154.872 78.7128 155.444 78.5275C156.015 78.3421 156.328 77.728 156.143 77.1564ZM161.51 75.4108C161.344 74.901 160.796 74.6229 160.286 74.789C159.776 74.955 159.498 75.5034 159.664 76.0132C159.83 76.523 160.379 76.8011 160.889 76.635C161.398 76.469 161.676 75.9206 161.51 75.4108ZM166.878 73.6651C166.731 73.2171 166.252 72.9738 165.804 73.1167C165.357 73.2596 165.113 73.7423 165.256 74.1903C165.399 74.6383 165.882 74.8817 166.33 74.7388C166.778 74.5959 167.021 74.1131 166.878 73.6651ZM172.246 71.9194C172.122 71.5332 171.705 71.3208 171.319 71.4483C170.933 71.5757 170.72 71.989 170.848 72.3752C170.975 72.7614 171.388 72.9738 171.775 72.8463C172.161 72.7189 172.373 72.3057 172.246 71.9194ZM177.613 70.1738C177.509 69.8494 177.158 69.6717 176.837 69.776C176.517 69.8803 176.335 70.2317 176.439 70.5523C176.544 70.8728 176.895 71.0543 177.216 70.9501C177.536 70.8458 177.718 70.4943 177.613 70.1738ZM182.981 68.4281C182.896 68.1655 182.614 68.0226 182.352 68.1076C182.089 68.1926 181.946 68.4745 182.031 68.7371C182.116 68.9997 182.398 69.1426 182.661 69.0577C182.923 68.9727 183.066 68.6908 182.981 68.4281ZM188.349 66.6825C188.283 66.4817 188.067 66.3735 187.866 66.4353C187.665 66.4971 187.557 66.7172 187.619 66.9181C187.681 67.1189 187.901 67.227 188.102 67.1652C188.303 67.1034 188.411 66.8833 188.349 66.6825ZM119.549 94.0955C119.437 93.045 118.499 92.2841 117.449 92.3923C116.398 92.5004 115.638 93.4428 115.746 94.4932C115.854 95.5437 116.796 96.3046 117.846 96.1964C118.897 96.0883 119.658 95.1459 119.549 94.0955ZM125.164 93.5046C125.06 92.5197 124.18 91.8052 123.191 91.9095C122.202 92.0138 121.492 92.8943 121.596 93.883C121.7 94.8717 122.581 95.5823 123.569 95.4781C124.558 95.3738 125.269 94.4932 125.164 93.5046ZM130.779 92.9137C130.683 91.9945 129.856 91.3263 128.937 91.4229C128.018 91.5194 127.35 92.3459 127.447 93.2651C127.543 94.1843 128.369 94.8524 129.289 94.7559C130.208 94.6593 130.876 93.8328 130.779 92.9137ZM136.394 92.3228C136.305 91.4654 135.537 90.8474 134.679 90.9363C133.822 91.0251 133.204 91.7937 133.293 92.651C133.382 93.5084 134.15 94.1263 135.008 94.0375C135.865 93.9487 136.483 93.1801 136.394 92.3228ZM142.009 91.7319C141.924 90.9401 141.217 90.3647 140.426 90.4497C139.634 90.5346 139.059 91.2414 139.144 92.0331C139.229 92.8248 139.935 93.4003 140.727 93.3153C141.518 93.2303 142.094 92.5236 142.009 91.7319ZM147.624 91.141C147.547 90.4149 146.898 89.8858 146.168 89.963C145.438 90.0403 144.913 90.6891 144.99 91.419C145.067 92.149 145.716 92.6742 146.446 92.597C147.176 92.5197 147.701 91.8709 147.624 91.141ZM153.239 90.5501C153.169 89.8896 152.574 89.4069 151.914 89.4764C151.254 89.5459 150.771 90.1407 150.841 90.8011C150.91 91.4615 151.505 91.9443 152.165 91.8748C152.825 91.8052 153.308 91.2105 153.239 90.5501ZM158.853 89.9592C158.792 89.3605 158.255 88.928 157.656 88.9898C157.058 89.0516 156.625 89.5884 156.687 90.187C156.749 90.7857 157.286 91.2182 157.884 91.1564C158.483 91.0946 158.915 90.5578 158.853 89.9592ZM164.468 89.3683C164.41 88.8353 163.935 88.4491 163.403 88.5032C162.87 88.5572 162.483 89.0361 162.538 89.5691C162.592 90.1021 163.07 90.4883 163.603 90.4342C164.136 90.3801 164.522 89.9012 164.468 89.3683ZM170.083 88.7774C170.033 88.3101 169.616 87.9702 169.145 88.0165C168.674 88.0629 168.338 88.4839 168.384 88.955C168.43 89.4262 168.851 89.7622 169.322 89.7159C169.794 89.6695 170.13 89.2486 170.083 88.7774ZM175.698 88.1865C175.656 87.781 175.293 87.4913 174.891 87.5338C174.489 87.5763 174.196 87.9393 174.238 88.341C174.281 88.7426 174.644 89.0361 175.045 88.9937C175.447 88.9512 175.741 88.5881 175.698 88.1865ZM181.313 87.5956C181.278 87.2557 180.973 87.0086 180.633 87.0472C180.293 87.0858 180.046 87.387 180.085 87.7269C180.124 88.0668 180.425 88.3139 180.765 88.2753C181.104 88.2367 181.352 87.9354 181.313 87.5956ZM186.928 87.0047C186.901 86.7305 186.654 86.5297 186.379 86.5606C186.105 86.5915 185.904 86.8348 185.935 87.109C185.966 87.3832 186.21 87.584 186.484 87.5531C186.758 87.5222 186.959 87.2789 186.928 87.0047ZM192.543 86.4138C192.519 86.2052 192.334 86.0508 192.122 86.0739C191.909 86.0971 191.759 86.2825 191.782 86.4949C191.805 86.7073 191.99 86.8579 192.203 86.8348C192.415 86.8116 192.566 86.6262 192.543 86.4138ZM119.549 98.923C119.661 97.8726 118.897 96.9341 117.846 96.8221C116.796 96.7101 115.858 97.4748 115.746 98.5252C115.634 99.5757 116.398 100.514 117.449 100.626C118.499 100.738 119.437 99.9735 119.549 98.923ZM125.164 99.5139C125.269 98.5291 124.554 97.6447 123.569 97.5404C122.585 97.4361 121.7 98.1506 121.596 99.1355C121.492 100.12 122.206 101.005 123.191 101.109C124.176 101.213 125.06 100.499 125.164 99.5139ZM130.779 100.105C130.876 99.1857 130.208 98.3592 129.289 98.2626C128.369 98.1661 127.543 98.8342 127.447 99.7534C127.35 100.673 128.018 101.499 128.937 101.596C129.856 101.692 130.683 101.024 130.779 100.105ZM136.394 100.696C136.483 99.8383 135.861 99.0737 135.008 98.981C134.154 98.8883 133.386 99.5139 133.293 100.367C133.2 101.221 133.826 101.99 134.679 102.082C135.533 102.175 136.301 101.549 136.394 100.696ZM142.009 101.287C142.094 100.495 141.518 99.7843 140.727 99.7032C139.935 99.6221 139.225 100.194 139.144 100.985C139.062 101.777 139.634 102.488 140.426 102.569C141.217 102.65 141.928 102.078 142.009 101.287ZM147.624 101.878C147.701 101.151 147.172 100.499 146.446 100.422C145.72 100.344 145.067 100.873 144.99 101.599C144.913 102.326 145.442 102.978 146.168 103.055C146.894 103.133 147.547 102.604 147.624 101.878ZM153.239 102.468C153.308 101.808 152.829 101.213 152.165 101.144C151.501 101.074 150.91 101.553 150.841 102.217C150.771 102.882 151.25 103.473 151.914 103.542C152.578 103.612 153.169 103.133 153.239 102.468ZM158.853 103.059C158.915 102.461 158.483 101.928 157.884 101.862C157.286 101.796 156.753 102.233 156.687 102.831C156.621 103.43 157.058 103.963 157.656 104.029C158.255 104.094 158.788 103.658 158.853 103.059ZM164.468 103.65C164.526 103.117 164.136 102.638 163.603 102.584C163.07 102.53 162.592 102.916 162.538 103.449C162.483 103.982 162.87 104.461 163.403 104.515C163.935 104.569 164.414 104.183 164.468 103.65ZM170.083 104.241C170.133 103.774 169.794 103.353 169.322 103.303C168.851 103.252 168.434 103.592 168.384 104.063C168.334 104.535 168.674 104.952 169.145 105.002C169.616 105.052 170.033 104.712 170.083 104.241ZM175.698 104.832C175.741 104.426 175.447 104.067 175.045 104.025C174.644 103.982 174.281 104.276 174.238 104.678C174.196 105.079 174.489 105.442 174.891 105.485C175.293 105.527 175.656 105.234 175.698 104.832ZM181.313 105.423C181.348 105.083 181.104 104.778 180.765 104.743C180.425 104.708 180.12 104.952 180.085 105.292C180.05 105.631 180.293 105.937 180.633 105.971C180.973 106.006 181.278 105.763 181.313 105.423ZM186.928 106.014C186.955 105.74 186.758 105.492 186.484 105.465C186.21 105.438 185.962 105.635 185.935 105.91C185.908 106.184 186.105 106.431 186.379 106.458C186.654 106.485 186.901 106.288 186.928 106.014ZM192.543 106.605C192.566 106.396 192.411 106.207 192.203 106.184C191.994 106.161 191.805 106.315 191.782 106.524C191.759 106.732 191.913 106.921 192.122 106.945C192.33 106.968 192.519 106.813 192.543 106.605ZM118.542 103.662C118.866 102.658 118.318 101.58 117.314 101.252C116.31 100.924 115.232 101.476 114.904 102.48C114.576 103.484 115.128 104.562 116.132 104.89C117.136 105.218 118.213 104.666 118.542 103.662ZM123.909 105.407C124.214 104.465 123.701 103.453 122.758 103.148C121.816 102.843 120.804 103.357 120.499 104.299C120.194 105.241 120.708 106.253 121.65 106.558C122.592 106.863 123.604 106.35 123.909 105.407ZM129.277 107.153C129.563 106.273 129.08 105.326 128.2 105.041C127.319 104.755 126.373 105.238 126.087 106.118C125.801 106.999 126.284 107.945 127.165 108.231C128.045 108.516 128.991 108.034 129.277 107.153ZM134.645 108.899C134.911 108.08 134.463 107.199 133.645 106.933C132.826 106.666 131.945 107.114 131.679 107.933C131.412 108.752 131.86 109.633 132.679 109.899C133.498 110.166 134.378 109.718 134.645 108.899ZM140.012 110.644C140.26 109.887 139.842 109.076 139.086 108.829C138.329 108.582 137.518 108.999 137.271 109.756C137.023 110.513 137.441 111.324 138.197 111.571C138.954 111.818 139.765 111.401 140.012 110.644ZM145.38 112.39C145.604 111.695 145.226 110.95 144.531 110.722C143.835 110.494 143.09 110.876 142.862 111.571C142.634 112.266 143.017 113.012 143.712 113.24C144.407 113.468 145.152 113.085 145.38 112.39ZM150.748 114.136C150.953 113.502 150.609 112.823 149.976 112.618C149.342 112.413 148.663 112.757 148.458 113.39C148.253 114.024 148.597 114.703 149.23 114.908C149.864 115.113 150.543 114.769 150.748 114.136ZM156.116 115.881C156.301 115.31 155.988 114.696 155.417 114.51C154.845 114.325 154.231 114.638 154.046 115.209C153.86 115.781 154.173 116.395 154.745 116.58C155.316 116.766 155.93 116.453 156.116 115.881ZM161.483 117.627C161.649 117.117 161.371 116.569 160.862 116.403C160.352 116.237 159.803 116.515 159.637 117.025C159.471 117.534 159.749 118.083 160.259 118.249C160.769 118.415 161.317 118.137 161.483 117.627ZM166.851 119.373C166.998 118.925 166.751 118.442 166.303 118.299C165.855 118.156 165.372 118.399 165.229 118.847C165.086 119.295 165.329 119.778 165.777 119.921C166.225 120.064 166.708 119.821 166.851 119.373ZM172.219 121.118C172.342 120.732 172.134 120.319 171.748 120.191C171.361 120.064 170.948 120.276 170.821 120.663C170.693 121.049 170.906 121.462 171.292 121.59C171.678 121.717 172.091 121.505 172.219 121.118ZM177.586 122.864C177.691 122.54 177.513 122.192 177.189 122.088C176.864 121.983 176.517 122.161 176.412 122.486C176.308 122.81 176.486 123.158 176.81 123.262C177.135 123.366 177.482 123.188 177.586 122.864ZM182.954 124.61C183.039 124.347 182.896 124.065 182.634 123.98C182.371 123.895 182.089 124.038 182.004 124.301C181.919 124.563 182.062 124.845 182.325 124.93C182.587 125.015 182.869 124.872 182.954 124.61ZM188.322 126.355C188.388 126.154 188.276 125.938 188.075 125.873C187.874 125.807 187.658 125.919 187.592 126.12C187.526 126.321 187.638 126.537 187.839 126.602C188.04 126.668 188.256 126.556 188.322 126.355ZM116.549 108.088C117.078 107.172 116.765 106.006 115.85 105.477C114.935 104.948 113.769 105.261 113.239 106.176C112.71 107.091 113.023 108.258 113.938 108.787C114.854 109.316 116.02 109.003 116.549 108.088ZM121.438 110.911C121.932 110.054 121.639 108.957 120.781 108.458C119.924 107.96 118.827 108.258 118.329 109.115C117.831 109.972 118.128 111.069 118.986 111.567C119.843 112.066 120.94 111.768 121.438 110.911ZM126.327 113.734C126.79 112.931 126.516 111.907 125.713 111.444C124.909 110.98 123.886 111.255 123.423 112.058C122.959 112.861 123.233 113.885 124.037 114.348C124.84 114.812 125.863 114.537 126.327 113.734ZM131.216 116.557C131.644 115.812 131.389 114.858 130.644 114.429C129.899 114.001 128.945 114.255 128.516 115.001C128.088 115.746 128.342 116.7 129.088 117.129C129.833 117.558 130.787 117.303 131.216 116.557ZM136.104 119.38C136.502 118.693 136.267 117.809 135.575 117.411C134.884 117.013 134.004 117.249 133.606 117.94C133.208 118.631 133.444 119.512 134.135 119.91C134.826 120.307 135.707 120.072 136.104 119.38ZM140.993 122.204C141.36 121.57 141.14 120.763 140.511 120.396C139.881 120.029 139.07 120.249 138.703 120.879C138.336 121.508 138.557 122.319 139.186 122.686C139.815 123.053 140.626 122.833 140.993 122.204ZM145.882 125.027C146.214 124.451 146.017 123.714 145.442 123.382C144.867 123.049 144.129 123.246 143.797 123.822C143.465 124.397 143.662 125.135 144.237 125.467C144.812 125.799 145.55 125.602 145.882 125.027ZM150.771 127.85C151.072 127.329 150.895 126.664 150.373 126.363C149.852 126.062 149.188 126.239 148.887 126.761C148.585 127.282 148.763 127.946 149.284 128.248C149.806 128.549 150.47 128.371 150.771 127.85ZM155.66 130.673C155.926 130.21 155.768 129.615 155.305 129.348C154.841 129.082 154.247 129.24 153.98 129.704C153.714 130.167 153.872 130.762 154.335 131.028C154.799 131.295 155.393 131.137 155.66 130.673ZM160.549 133.496C160.784 133.087 160.645 132.566 160.236 132.33C159.827 132.094 159.305 132.233 159.07 132.643C158.834 133.052 158.973 133.574 159.383 133.809C159.792 134.045 160.313 133.906 160.549 133.496ZM165.438 136.319C165.642 135.968 165.519 135.52 165.167 135.315C164.816 135.111 164.368 135.234 164.163 135.586C163.959 135.937 164.082 136.385 164.434 136.59C164.785 136.794 165.233 136.671 165.438 136.319ZM170.326 139.143C170.496 138.849 170.396 138.471 170.099 138.301C169.801 138.131 169.427 138.231 169.257 138.529C169.087 138.826 169.187 139.201 169.485 139.37C169.782 139.54 170.157 139.44 170.326 139.143ZM175.215 141.966C175.354 141.726 175.273 141.421 175.034 141.282C174.794 141.143 174.489 141.224 174.35 141.464C174.211 141.703 174.292 142.008 174.532 142.147C174.771 142.286 175.076 142.205 175.215 141.966ZM180.104 144.789C180.208 144.607 180.147 144.372 179.965 144.268C179.784 144.163 179.548 144.225 179.444 144.407C179.34 144.588 179.401 144.824 179.583 144.928C179.764 145.032 180 144.97 180.104 144.789ZM113.699 112C114.406 111.216 114.344 110.007 113.556 109.3C112.768 108.594 111.564 108.655 110.857 109.443C110.15 110.231 110.212 111.436 111 112.143C111.787 112.85 112.992 112.788 113.699 112ZM117.897 115.777C118.561 115.039 118.499 113.908 117.765 113.244C117.032 112.579 115.896 112.641 115.232 113.375C114.568 114.109 114.63 115.244 115.363 115.908C116.097 116.573 117.232 116.511 117.897 115.777ZM122.094 119.554C122.712 118.867 122.658 117.805 121.971 117.187C121.283 116.569 120.221 116.623 119.604 117.31C118.986 117.998 119.04 119.06 119.727 119.678C120.414 120.296 121.476 120.242 122.094 119.554ZM126.292 123.331C126.867 122.69 126.817 121.705 126.176 121.13C125.535 120.554 124.55 120.605 123.975 121.246C123.4 121.887 123.45 122.872 124.091 123.447C124.732 124.023 125.717 123.972 126.292 123.331ZM130.49 127.108C131.022 126.518 130.976 125.606 130.381 125.073C129.787 124.54 128.879 124.586 128.346 125.181C127.813 125.776 127.86 126.684 128.454 127.217C129.049 127.75 129.957 127.703 130.49 127.108ZM134.687 130.886C135.178 130.341 135.131 129.507 134.591 129.016C134.05 128.526 133.212 128.572 132.722 129.113C132.231 129.654 132.277 130.492 132.818 130.982C133.359 131.473 134.197 131.426 134.687 130.886ZM138.885 134.663C139.329 134.168 139.29 133.404 138.796 132.959C138.302 132.515 137.537 132.554 137.093 133.048C136.649 133.543 136.688 134.307 137.182 134.751C137.676 135.196 138.441 135.157 138.885 134.663ZM143.082 138.44C143.484 137.992 143.449 137.304 143.001 136.903C142.553 136.501 141.866 136.536 141.464 136.984C141.063 137.432 141.098 138.119 141.546 138.521C141.993 138.922 142.681 138.888 143.082 138.44ZM147.28 142.217C147.639 141.819 147.608 141.205 147.207 140.846C146.805 140.487 146.195 140.518 145.836 140.919C145.477 141.321 145.508 141.931 145.909 142.29C146.311 142.649 146.921 142.618 147.28 142.217ZM151.478 145.994C151.794 145.642 151.763 145.106 151.416 144.789C151.068 144.472 150.528 144.503 150.211 144.851C149.894 145.198 149.925 145.739 150.273 146.056C150.62 146.372 151.161 146.342 151.478 145.994ZM155.675 149.771C155.946 149.47 155.922 149.002 155.621 148.732C155.32 148.462 154.853 148.485 154.582 148.786C154.312 149.087 154.335 149.555 154.637 149.825C154.938 150.095 155.405 150.072 155.675 149.771ZM159.873 153.548C160.101 153.293 160.081 152.903 159.827 152.675C159.572 152.447 159.182 152.467 158.954 152.722C158.726 152.977 158.745 153.367 159 153.594C159.255 153.822 159.645 153.803 159.873 153.548ZM164.071 157.325C164.256 157.121 164.24 156.804 164.032 156.618C163.823 156.433 163.511 156.449 163.325 156.657C163.14 156.866 163.155 157.178 163.364 157.364C163.572 157.549 163.885 157.534 164.071 157.325ZM168.268 161.102C168.411 160.944 168.396 160.705 168.241 160.562C168.087 160.419 167.843 160.434 167.701 160.589C167.558 160.743 167.573 160.986 167.728 161.129C167.882 161.272 168.125 161.257 168.268 161.102ZM110.131 115.221C110.984 114.599 111.173 113.406 110.556 112.552C109.938 111.699 108.741 111.51 107.887 112.127C107.034 112.745 106.845 113.943 107.462 114.796C108.08 115.65 109.277 115.839 110.131 115.221ZM113.448 119.79C114.251 119.207 114.429 118.087 113.846 117.283C113.263 116.48 112.143 116.302 111.34 116.886C110.536 117.469 110.359 118.589 110.942 119.392C111.525 120.195 112.645 120.373 113.448 119.79ZM116.765 124.359C117.514 123.814 117.68 122.767 117.136 122.018C116.591 121.269 115.545 121.103 114.796 121.647C114.047 122.192 113.881 123.239 114.425 123.988C114.97 124.737 116.016 124.903 116.765 124.359ZM120.082 128.927C120.777 128.422 120.932 127.448 120.426 126.749C119.92 126.05 118.947 125.9 118.248 126.406C117.549 126.911 117.398 127.885 117.904 128.584C118.41 129.283 119.383 129.433 120.082 128.927ZM123.4 133.496C124.044 133.029 124.187 132.129 123.72 131.484C123.253 130.839 122.353 130.696 121.708 131.164C121.063 131.631 120.92 132.531 121.388 133.176C121.855 133.821 122.755 133.964 123.4 133.496ZM126.717 138.065C127.308 137.636 127.439 136.806 127.01 136.215C126.582 135.624 125.751 135.493 125.16 135.922C124.57 136.35 124.438 137.181 124.867 137.772C125.296 138.362 126.126 138.494 126.717 138.065ZM130.034 142.634C130.571 142.244 130.69 141.487 130.3 140.95C129.91 140.413 129.153 140.294 128.617 140.684C128.08 141.074 127.96 141.831 128.35 142.367C128.74 142.904 129.497 143.024 130.034 142.634ZM133.351 147.203C133.838 146.851 133.946 146.168 133.59 145.681C133.235 145.194 132.556 145.086 132.069 145.442C131.582 145.797 131.474 146.477 131.83 146.963C132.185 147.45 132.864 147.558 133.351 147.203ZM136.668 151.772C137.101 151.455 137.197 150.849 136.884 150.416C136.572 149.983 135.962 149.887 135.529 150.2C135.097 150.513 135 151.123 135.313 151.555C135.626 151.988 136.236 152.084 136.668 151.772ZM139.985 156.34C140.368 156.062 140.453 155.529 140.175 155.151C139.897 154.772 139.364 154.684 138.985 154.962C138.607 155.24 138.518 155.773 138.796 156.151C139.074 156.53 139.607 156.618 139.985 156.34ZM143.303 160.909C143.631 160.67 143.704 160.21 143.465 159.882C143.225 159.554 142.766 159.48 142.438 159.72C142.109 159.959 142.036 160.419 142.275 160.747C142.515 161.075 142.974 161.149 143.303 160.909ZM146.62 165.478C146.894 165.277 146.956 164.891 146.755 164.617C146.554 164.343 146.168 164.281 145.894 164.482C145.62 164.682 145.558 165.069 145.759 165.343C145.959 165.617 146.346 165.679 146.62 165.478ZM149.937 170.047C150.161 169.885 150.211 169.572 150.049 169.348C149.887 169.124 149.574 169.074 149.35 169.236C149.126 169.398 149.076 169.711 149.238 169.935C149.4 170.159 149.713 170.209 149.937 170.047ZM153.254 174.616C153.424 174.492 153.463 174.253 153.339 174.083C153.215 173.913 152.976 173.874 152.806 173.998C152.636 174.121 152.598 174.361 152.721 174.531C152.845 174.701 153.084 174.739 153.254 174.616ZM105.925 117.646C106.891 117.218 107.323 116.086 106.895 115.124C106.466 114.163 105.335 113.726 104.373 114.155C103.412 114.584 102.975 115.715 103.404 116.677C103.832 117.639 104.964 118.075 105.925 117.646ZM108.223 122.806C109.127 122.404 109.536 121.342 109.131 120.439C108.725 119.535 107.667 119.126 106.763 119.531C105.86 119.937 105.451 120.995 105.856 121.898C106.261 122.802 107.32 123.212 108.223 122.806ZM110.521 127.966C111.367 127.587 111.745 126.599 111.37 125.753C110.996 124.907 110.003 124.529 109.158 124.903C108.312 125.278 107.934 126.27 108.308 127.116C108.683 127.962 109.675 128.34 110.521 127.966ZM112.819 133.126C113.606 132.774 113.958 131.855 113.61 131.067C113.263 130.279 112.34 129.928 111.552 130.275C110.764 130.623 110.413 131.546 110.76 132.334C111.108 133.122 112.031 133.473 112.819 133.126ZM115.116 138.285C115.842 137.961 116.17 137.111 115.846 136.381C115.522 135.651 114.672 135.327 113.942 135.651C113.212 135.976 112.888 136.825 113.212 137.555C113.537 138.285 114.386 138.61 115.116 138.285ZM117.414 143.445C118.082 143.148 118.383 142.364 118.086 141.699C117.789 141.035 117.005 140.73 116.34 141.027C115.676 141.325 115.371 142.109 115.668 142.773C115.966 143.437 116.75 143.742 117.414 143.445ZM119.712 148.605C120.322 148.334 120.592 147.62 120.322 147.014C120.051 146.407 119.337 146.133 118.731 146.403C118.124 146.674 117.85 147.388 118.121 147.994C118.391 148.601 119.105 148.875 119.712 148.605ZM122.009 153.764C122.558 153.521 122.805 152.876 122.562 152.328C122.318 151.779 121.673 151.532 121.125 151.775C120.577 152.019 120.33 152.664 120.573 153.212C120.816 153.761 121.461 154.008 122.009 153.764ZM124.307 158.924C124.797 158.708 125.018 158.132 124.797 157.642C124.577 157.151 124.006 156.931 123.515 157.151C123.025 157.372 122.805 157.943 123.025 158.434C123.245 158.924 123.817 159.144 124.307 158.924ZM126.605 164.084C127.033 163.891 127.23 163.389 127.037 162.956C126.844 162.524 126.342 162.33 125.91 162.524C125.477 162.717 125.284 163.219 125.477 163.651C125.67 164.084 126.172 164.277 126.605 164.084ZM128.902 169.244C129.273 169.078 129.439 168.645 129.273 168.274C129.107 167.903 128.675 167.737 128.304 167.903C127.933 168.07 127.767 168.502 127.933 168.873C128.099 169.244 128.532 169.41 128.902 169.244ZM131.2 174.403C131.513 174.264 131.652 173.901 131.513 173.588C131.374 173.276 131.011 173.137 130.698 173.276C130.385 173.415 130.246 173.778 130.385 174.09C130.524 174.403 130.887 174.542 131.2 174.403ZM133.498 179.563C133.749 179.451 133.865 179.154 133.753 178.903C133.641 178.652 133.343 178.536 133.092 178.648C132.841 178.76 132.725 179.057 132.837 179.308C132.949 179.559 133.247 179.675 133.498 179.563ZM135.795 184.723C135.989 184.638 136.074 184.41 135.989 184.217C135.904 184.024 135.676 183.939 135.483 184.024C135.29 184.109 135.205 184.337 135.29 184.53C135.375 184.723 135.602 184.808 135.795 184.723ZM101.346 119.16C102.377 118.94 103.037 117.924 102.817 116.893C102.597 115.862 101.581 115.202 100.55 115.422C99.519 115.642 98.8586 116.658 99.0788 117.689C99.2989 118.72 100.314 119.38 101.346 119.16ZM102.52 124.683C103.489 124.478 104.107 123.524 103.902 122.555C103.697 121.586 102.743 120.968 101.774 121.172C100.805 121.377 100.187 122.331 100.392 123.3C100.596 124.27 101.55 124.888 102.52 124.683ZM103.693 130.206C104.597 130.013 105.176 129.124 104.983 128.217C104.79 127.309 103.902 126.734 102.994 126.927C102.087 127.12 101.512 128.008 101.705 128.916C101.898 129.823 102.786 130.399 103.693 130.206ZM104.867 135.729C105.709 135.551 106.246 134.721 106.068 133.879C105.891 133.037 105.06 132.5 104.219 132.678C103.377 132.855 102.84 133.686 103.018 134.527C103.195 135.369 104.026 135.906 104.867 135.729ZM106.041 141.251C106.821 141.085 107.316 140.321 107.15 139.54C106.984 138.76 106.219 138.266 105.439 138.432C104.659 138.598 104.165 139.363 104.331 140.143C104.497 140.923 105.261 141.417 106.041 141.251ZM107.215 146.774C107.93 146.623 108.385 145.921 108.235 145.206C108.084 144.492 107.381 144.036 106.667 144.186C105.953 144.337 105.497 145.04 105.647 145.754C105.798 146.469 106.501 146.925 107.215 146.774ZM108.389 152.297C109.042 152.158 109.455 151.517 109.316 150.868C109.177 150.219 108.536 149.802 107.887 149.941C107.238 150.08 106.821 150.721 106.96 151.37C107.099 152.019 107.74 152.436 108.389 152.297ZM109.563 157.82C110.15 157.696 110.525 157.117 110.401 156.53C110.278 155.943 109.698 155.568 109.111 155.692C108.524 155.815 108.15 156.394 108.273 156.982C108.397 157.569 108.976 157.943 109.563 157.82ZM110.737 163.342C111.262 163.23 111.594 162.717 111.486 162.191C111.378 161.666 110.861 161.334 110.336 161.442C109.81 161.55 109.478 162.068 109.586 162.593C109.694 163.118 110.212 163.451 110.737 163.342ZM111.911 168.865C112.371 168.769 112.664 168.313 112.568 167.853C112.471 167.394 112.015 167.1 111.556 167.197C111.096 167.293 110.803 167.749 110.899 168.209C110.996 168.668 111.452 168.962 111.911 168.865ZM113.085 174.388C113.483 174.303 113.734 173.913 113.653 173.515C113.572 173.117 113.178 172.866 112.78 172.947C112.382 173.028 112.131 173.422 112.212 173.82C112.293 174.218 112.687 174.469 113.085 174.388ZM114.259 179.911C114.591 179.841 114.807 179.513 114.734 179.177C114.661 178.841 114.336 178.628 114 178.702C113.664 178.775 113.452 179.1 113.525 179.436C113.599 179.772 113.923 179.984 114.259 179.911ZM115.433 185.433C115.703 185.375 115.877 185.109 115.819 184.839C115.761 184.568 115.495 184.394 115.224 184.452C114.954 184.51 114.78 184.777 114.838 185.047C114.896 185.318 115.163 185.491 115.433 185.433ZM116.607 190.956C116.812 190.914 116.947 190.709 116.9 190.504C116.854 190.3 116.653 190.164 116.449 190.211C116.244 190.257 116.109 190.458 116.155 190.663C116.201 190.867 116.402 191.002 116.607 190.956Z" fill="url(#paint0_radial_14392_365241)"/>
</g>
<defs>
<radialGradient id="paint0_radial_14392_365241" cx="0" cy="0" r="1" gradientUnits="userSpaceOnUse" gradientTransform="translate(96.5494 96.5301) scale(95.9956 96.5347)">
<stop stop-color="white"/>
<stop offset="0.08" stop-color="white" stop-opacity="0.96"/>
<stop offset="0.22" stop-color="white" stop-opacity="0.87"/>
<stop offset="0.4" stop-color="white" stop-opacity="0.71"/>
<stop offset="0.6" stop-color="white" stop-opacity="0.5"/>
<stop offset="0.83" stop-color="white" stop-opacity="0.22"/>
<stop offset="1" stop-color="white" stop-opacity="0"/>
</radialGradient>
<clipPath id="clip0_14392_365241">
<rect width="193" height="193" fill="white"/>
</clipPath>
</defs>
</svg>
