<svg width="103" height="88" viewBox="0 0 103 88" fill="none" xmlns="http://www.w3.org/2000/svg">
<path d="M26.3932 48.0268C23.4865 47.8401 20.4998 48.9068 18.2865 51.1201C14.1265 55.2801 14.1265 62.0268 18.2865 66.2134C19.6998 67.6268 21.4332 68.5601 23.2732 69.0134C24.2865 69.2801 25.3532 69.3601 26.4198 69.3068C28.9532 69.2001 31.4332 68.1868 33.3798 66.2401C36.1265 63.4934 37.0598 59.6268 36.1798 56.1334C35.7532 54.2934 34.7932 52.5601 33.3798 51.1468C31.4598 49.2001 28.9532 48.1601 26.3932 48.0268ZM31.8065 58.6134C31.8065 59.1734 31.5932 59.6534 31.2198 60.0268C30.8465 60.4001 30.3665 60.6134 29.8065 60.6134H27.8332V62.6934C27.8332 63.2534 27.6198 63.7334 27.2465 64.1068C26.8732 64.4801 26.3932 64.6934 25.8332 64.6934C24.7398 64.6934 23.8332 63.7868 23.8332 62.6934V60.6134H21.8332C20.7398 60.6134 19.8332 59.7068 19.8332 58.6134C19.8332 57.5201 20.7398 56.6134 21.8332 56.6134H23.8332V54.7201C23.8332 53.6268 24.7398 52.7201 25.8332 52.7201C26.9265 52.7201 27.8332 53.6268 27.8332 54.7201V56.6134H29.8065C30.9265 56.6134 31.8065 57.5201 31.8065 58.6134Z" fill="#13625C"/>
<path d="M58.5 18.4805H33.1667C25.5667 18.4805 20.5 23.5471 20.5 31.1471V43.0405C20.5 43.9738 21.46 44.6405 22.3667 44.4005C23.4867 44.1338 24.6333 44.0005 25.8333 44.0005C33.46 44.0005 39.7533 50.1871 40.4467 57.6805C40.5 58.4271 41.1133 59.0138 41.8333 59.0138H43.3L54.58 66.5338C56.2333 67.6538 58.5 66.4271 58.5 64.4005V59.0138C62.2867 59.0138 65.46 57.7338 67.6733 55.5471C69.8867 53.3071 71.1667 50.1338 71.1667 46.3471V31.1471C71.1667 23.5471 66.1 18.4805 58.5 18.4805ZM54.7133 40.8271H36.9533C35.9133 40.8271 35.06 39.9738 35.06 38.9338C35.06 37.8671 35.9133 37.0138 36.9533 37.0138H54.7133C55.7533 37.0138 56.6067 37.8671 56.6067 38.9338C56.6067 39.9738 55.7533 40.8271 54.7133 40.8271Z" fill="#13625C"/>
<path d="M72.4835 46H61.8168C61.3835 46 60.9668 46.0167 60.5668 46.0667C56.0835 46.45 53.8335 49.1 53.8335 53.9833V60.65C53.8335 67.3167 56.5002 68.6333 61.8168 68.6333H62.4835C62.8502 68.6333 63.3335 68.8833 63.5502 69.1667L65.5502 71.8333C66.4335 73.0167 67.8668 73.0167 68.7502 71.8333L70.7502 69.1667C71.0002 68.8333 71.4002 68.6333 71.8168 68.6333H72.4835C77.3668 68.6333 80.0168 66.4 80.4002 61.9C80.4502 61.5 80.4668 61.0833 80.4668 60.65V53.9833C80.4668 48.6667 77.8002 46 72.4835 46ZM61.3335 59.3333C60.4002 59.3333 59.6668 58.5833 59.6668 57.6667C59.6668 56.75 60.4168 56 61.3335 56C62.2502 56 63.0002 56.75 63.0002 57.6667C63.0002 58.5833 62.2502 59.3333 61.3335 59.3333ZM67.1502 59.3333C66.2168 59.3333 65.4835 58.5833 65.4835 57.6667C65.4835 56.75 66.2335 56 67.1502 56C68.0668 56 68.8168 56.75 68.8168 57.6667C68.8168 58.5833 68.0835 59.3333 67.1502 59.3333ZM72.9835 59.3333C72.0502 59.3333 71.3168 58.5833 71.3168 57.6667C71.3168 56.75 72.0668 56 72.9835 56C73.9002 56 74.6502 56.75 74.6502 57.6667C74.6502 58.5833 73.9002 59.3333 72.9835 59.3333Z" fill="#F5A800"/>
<path d="M87.1334 47.3173V53.984C87.1334 57.3173 86.1001 59.584 84.0334 60.834C83.5334 61.134 82.9501 60.734 82.9501 60.1507L82.9667 53.984C82.9667 47.3173 79.1501 43.5007 72.4834 43.5007L62.3334 43.5173C61.7501 43.5173 61.3501 42.934 61.6501 42.434C62.9001 40.3673 65.1668 39.334 68.4834 39.334H79.1501C84.4667 39.334 87.1334 42.0007 87.1334 47.3173Z" fill="#F5A800"/>
</svg>
