<svg width="552" height="402" viewBox="0 0 552 402" fill="none" xmlns="http://www.w3.org/2000/svg">
<mask id="mask0_14198_91477" style="mask-type:luminance" maskUnits="userSpaceOnUse" x="0" y="0" width="554" height="371">
<path d="M553.294 0H0V370.032H553.294V0Z" fill="white"/>
</mask>
<g mask="url(#mask0_14198_91477)">
<mask id="mask1_14198_91477" style="mask-type:luminance" maskUnits="userSpaceOnUse" x="0" y="0" width="554" height="371">
<path d="M553.294 0H0V370.032H553.294V0Z" fill="white"/>
</mask>
<g mask="url(#mask1_14198_91477)">
<path opacity="0.08" d="M280.34 260.192C331.089 260.192 372.228 219.432 372.228 169.151C372.228 118.87 331.089 78.1094 280.34 78.1094C229.592 78.1094 188.452 118.87 188.452 169.151C188.452 219.432 229.592 260.192 280.34 260.192Z" fill="#13625C"/>
</g>
<mask id="mask2_14198_91477" style="mask-type:luminance" maskUnits="userSpaceOnUse" x="0" y="0" width="554" height="371">
<path d="M553.294 0H0V370.032H553.294V0Z" fill="white"/>
</mask>
<g mask="url(#mask2_14198_91477)">
<path d="M276.647 257.028C327.395 257.028 368.535 216.268 368.535 165.987C368.535 115.706 327.395 74.9453 276.647 74.9453C225.899 74.9453 184.759 115.706 184.759 165.987C184.759 216.268 225.899 257.028 276.647 257.028Z" fill="#72E3DA"/>
</g>
<mask id="mask3_14198_91477" style="mask-type:luminance" maskUnits="userSpaceOnUse" x="0" y="0" width="554" height="371">
<path d="M553.294 0H0V370.032H553.294V0Z" fill="white"/>
</mask>
<g mask="url(#mask3_14198_91477)">
<path opacity="0.31" d="M207.406 211.234L225.537 203.597L216.206 181.851L198.075 189.489L197.618 188.422C196.842 186.615 194.734 185.773 192.91 186.541L189.425 188.009L189.167 187.409C188.865 186.705 188.044 186.377 187.334 186.676L183.155 188.437C182.444 188.736 182.113 189.549 182.415 190.253L182.673 190.854L180.698 191.685L180.44 191.085C180.138 190.381 179.317 190.053 178.607 190.352L174.427 192.113C173.717 192.412 173.386 193.225 173.688 193.929L173.946 194.53L149.383 204.877C147.559 205.645 146.708 207.733 147.484 209.541L149.784 214.901L141.63 218.336L143.063 221.674C122.689 230.363 99.7733 239.911 77.5469 240.54C68.0323 240.81 49.5679 237.32 32.8206 210.919C28.2456 203.708 24.5343 195.992 21.5072 189.395C20.9818 188.251 20.4726 187.026 19.9333 185.73C17.3402 179.493 14.4007 172.425 7.53749 168.995C-2.26671 164.096 -11.0209 169.603 -18.0551 174.029C-18.9105 174.567 -19.7543 175.098 -20.5863 175.602C-22.8299 176.96 -25.1406 178.435 -27.3748 179.861C-39.1406 187.369 -51.3068 195.133 -64.5092 193.839C-76.4185 192.672 -87.0487 184.87 -92.9446 172.965C-104.741 149.148 -102.783 125.058 -86.9582 99.3179C-73.0102 76.6308 -50.9014 56.539 -31.3952 38.8126C-28.4445 36.1308 -25.6574 33.5981 -22.926 31.0819C-17.3753 25.9685 -11.1183 19.8753 -7.11981 12.2612C-2.56786 3.59314 -1.83788 -5.71304 -5.11707 -13.2716C-7.92079 -19.7394 -13.8049 -25.2544 -22.6026 -29.6679C-36.8288 -36.8045 -51.9835 -39.8129 -67.6465 -38.6088C-81.2279 -37.5649 -95.5919 -33.3054 -110.339 -25.9486C-136.705 -12.7959 -160.258 7.75066 -181.784 27.9948L-197.101 42.3998L-192.335 47.3746L-177.018 32.9697C-155.877 13.0872 -132.79 -7.06964 -107.226 -19.8221C-93.2867 -26.7758 -79.79 -30.7958 -67.1107 -31.7704C-52.7308 -32.8758 -38.8083 -30.1094 -25.7301 -23.5484C-18.4192 -19.881 -13.6231 -15.5119 -11.4774 -10.5631C-9.0582 -4.98704 -9.7251 2.36171 -13.2612 9.09502C-16.7503 15.7395 -22.5126 21.3353 -27.6398 26.0584C-30.3539 28.5589 -33.1329 31.0839 -36.0748 33.7575C-55.9196 51.792 -78.4122 72.2322 -92.8705 95.7497C-100.897 108.806 -105.51 121.229 -106.971 133.728C-108.633 147.947 -106.005 162.165 -99.1592 175.986C-97.8311 178.668 -96.2954 181.172 -94.5774 183.481C-87.2955 193.272 -76.77 199.53 -65.1903 200.665C-49.5868 202.193 -35.7947 193.392 -23.6263 185.627C-21.3242 184.158 -19.1497 182.77 -16.9755 181.454C-16.1103 180.93 -15.2333 180.378 -14.3444 179.819C-6.81183 175.08 -1.43602 172.193 4.42023 175.12C8.98306 177.399 11.2962 182.962 13.533 188.342C14.0715 189.638 14.6285 190.977 15.2054 192.234C18.3278 199.039 22.1666 207.014 26.9601 214.569C34.935 227.141 52.1378 248.121 77.745 247.396C101.266 246.731 124.835 236.915 145.772 227.986L147.217 231.355L155.371 227.92L157.731 233.419C158.506 235.227 160.614 236.069 162.438 235.3L187.001 224.953L187.259 225.554C187.561 226.258 188.382 226.586 189.092 226.287L193.272 224.526C193.982 224.227 194.313 223.414 194.011 222.71L193.753 222.109L195.728 221.277L195.986 221.878C196.288 222.582 197.109 222.91 197.82 222.611L201.999 220.85C202.709 220.551 203.041 219.737 202.738 219.033L202.481 218.433L205.966 216.965C207.79 216.197 208.64 214.108 207.865 212.301L207.406 211.234Z" fill="#13625C"/>
<path d="M197.004 215.168C197.306 215.872 198.127 216.2 198.837 215.901L203.016 214.14C203.727 213.841 204.058 213.027 203.756 212.323L203.498 211.723L206.983 210.255C208.808 209.487 209.658 207.398 208.882 205.591L198.636 181.713C197.86 179.905 195.752 179.063 193.928 179.831L190.443 181.299L190.185 180.699C189.883 179.995 189.062 179.667 188.352 179.966L184.172 181.727C183.462 182.026 183.131 182.839 183.433 183.543L183.691 184.144L181.716 184.976L181.458 184.375C181.156 183.671 180.335 183.343 179.625 183.643L175.445 185.403C174.735 185.702 174.404 186.516 174.706 187.22L174.963 187.82L150.401 198.167C148.576 198.935 147.726 201.024 148.502 202.831L158.749 226.71C159.524 228.517 161.632 229.359 163.456 228.591L188.019 218.244L188.276 218.845C188.579 219.549 189.399 219.877 190.11 219.577L194.289 217.817C195 217.518 195.331 216.704 195.029 216L194.771 215.4L196.746 214.568L197.004 215.168Z" fill="#AAEEE9"/>
<mask id="mask4_14198_91477" style="mask-type:luminance" maskUnits="userSpaceOnUse" x="148" y="179" width="62" height="50">
<path d="M197.004 215.168C197.306 215.872 198.127 216.2 198.837 215.901L203.016 214.14C203.727 213.841 204.058 213.027 203.756 212.323L203.498 211.723L206.983 210.255C208.808 209.487 209.658 207.398 208.882 205.591L198.636 181.713C197.86 179.905 195.752 179.063 193.928 179.831L190.443 181.299L190.185 180.699C189.883 179.995 189.062 179.667 188.352 179.966L184.172 181.727C183.462 182.026 183.131 182.839 183.433 183.543L183.691 184.144L181.716 184.976L181.458 184.375C181.156 183.671 180.335 183.343 179.625 183.643L175.445 185.403C174.735 185.702 174.404 186.516 174.706 187.22L174.963 187.82L150.401 198.167C148.576 198.935 147.726 201.024 148.502 202.831L158.749 226.71C159.524 228.517 161.632 229.359 163.456 228.591L188.019 218.244L188.276 218.845C188.579 219.549 189.399 219.877 190.11 219.577L194.289 217.817C195 217.518 195.331 216.704 195.029 216L194.771 215.4L196.746 214.568L197.004 215.168Z" fill="white"/>
</mask>
<g mask="url(#mask4_14198_91477)">
<path opacity="0.14" d="M153.264 214.632L207.231 192.09L196.993 173.117L142.577 196.787L147.484 209.525L153.264 214.632Z" fill="#23AFA3"/>
</g>
<path d="M226.559 196.902L217.227 175.156L199.095 182.794L208.427 204.54L226.559 196.902Z" fill="#23AFA3"/>
<path d="M217.715 180.131L216.321 176.883L211.82 178.779L213.214 182.027L217.715 180.131Z" fill="#F2FCFC"/>
<path d="M220.041 185.56L218.647 182.312L214.146 184.209L215.54 187.457L220.041 185.56Z" fill="#F2FCFC"/>
<path d="M222.37 190.974L220.977 187.727L216.475 189.623L217.869 192.871L222.37 190.974Z" fill="#F2FCFC"/>
<path d="M224.692 196.388L223.298 193.141L218.797 195.037L220.19 198.285L224.692 196.388Z" fill="#F2FCFC"/>
<path d="M196.749 214.581L183.692 184.156L181.718 184.988L194.774 215.413L196.749 214.581Z" fill="#23AFA3"/>
<path d="M156.16 221.402L150.573 208.383L141.797 212.08L147.384 225.099L156.16 221.402Z" fill="#23AFA3"/>
<path d="M-94.4116 177.208C-96.1293 174.899 -97.6653 172.395 -98.9934 169.713C-105.839 155.892 -108.467 141.674 -106.805 127.454C-105.344 114.955 -100.732 102.533 -92.7046 89.4763C-78.2463 65.9589 -55.7538 45.5185 -35.909 27.4841C-32.9669 24.8105 -30.1881 22.2854 -27.474 19.785C-22.347 15.062 -16.5845 9.46616 -13.0954 2.82165C-9.55928 -3.91166 -8.89238 -11.2604 -11.3116 -16.8365C-13.4572 -21.7852 -18.2534 -26.1544 -25.5642 -29.8218C-38.6424 -36.3828 -52.565 -39.1492 -66.9449 -38.0438C-79.6244 -37.0691 -93.1209 -33.0492 -107.06 -26.0955C-132.624 -13.343 -155.711 6.8138 -176.852 26.6963L-192.169 41.1013L-196.935 36.1264L-181.618 21.7215C-160.092 1.47729 -136.539 -19.0695 -110.173 -32.222C-95.4259 -39.5788 -81.0619 -43.8383 -67.4805 -44.8822C-51.8177 -46.0864 -36.6629 -43.0779 -22.4366 -35.9413C-13.6387 -31.5278 -7.75479 -26.0126 -4.95107 -19.5449C-1.67206 -11.9862 -2.40205 -2.68023 -6.95363 5.98749C-10.9523 13.6016 -17.2091 19.6948 -22.7598 24.8082C-25.4914 27.3244 -28.2783 29.857 -31.229 32.5388C-50.7352 50.2655 -72.844 70.3571 -86.7921 93.0442C-102.617 118.784 -104.575 142.874 -92.7786 166.691C-86.8827 178.596 -76.2524 186.399 -64.3432 187.565C-51.141 188.859 -38.9746 181.095 -27.2088 173.587C-24.9744 172.161 -22.6639 170.687 -20.4201 169.328C-19.5881 168.824 -18.7443 168.293 -17.8889 167.755C-10.8547 163.33 -2.10049 157.823 7.70369 162.722C14.5669 166.151 17.5066 173.22 20.0995 179.456C20.6388 180.752 21.148 181.977 21.6734 183.122C24.7005 189.718 28.4118 197.434 32.9868 204.646C49.7341 231.046 68.1985 234.535 77.7131 234.266C100.536 233.621 124.086 223.57 144.864 214.703L147.872 213.42L150.606 219.722L147.602 221.003C126.254 230.113 102.057 240.44 77.9108 241.123C52.3034 241.847 35.1008 220.868 27.126 208.296C22.3324 200.74 18.4939 192.765 15.3712 185.961C14.7943 184.703 14.2374 183.364 13.6988 182.069C11.462 176.689 9.14888 171.125 4.58604 168.846C-1.2702 165.92 -6.64581 168.807 -14.1785 173.546C-15.0673 174.105 -15.9445 174.656 -16.8094 175.18C-18.9837 176.497 -21.1582 177.885 -23.4602 179.353C-35.6287 187.119 -49.4206 195.92 -65.0241 194.391C-76.6043 193.257 -87.1298 186.998 -94.4116 177.208Z" fill="#23AFA3"/>
</g>
<mask id="mask5_14198_91477" style="mask-type:luminance" maskUnits="userSpaceOnUse" x="0" y="0" width="554" height="371">
<path d="M553.294 0H0V370.032H553.294V0Z" fill="white"/>
</mask>
<g mask="url(#mask5_14198_91477)">
<path opacity="0.31" d="M714.465 259.485C703.356 259.546 688.866 252.15 681.534 235.486C672.487 214.926 677.192 192.794 681.737 171.391C682.084 169.757 682.43 168.128 682.769 166.507L683.028 165.264C688.2 140.497 693.549 114.882 693.635 89.0964C693.687 73.3642 690.523 57.3066 684.725 43.8815C677.791 27.8265 667.259 15.9878 654.267 9.64518C642.081 3.69652 628.398 3.11781 617.663 8.09708C608.101 12.5329 601.62 20.72 598.922 31.7737C594.464 50.0412 598.104 69.1272 601.624 87.5866C602.075 89.9559 602.524 92.3064 602.949 94.6322C603.18 95.8925 603.415 97.1638 603.652 98.4453C608.576 125.051 614.157 155.207 596.241 177.408C590.758 184.202 584.618 187.741 577.471 188.227C558.786 189.498 537.454 169.442 520.313 153.326C513.631 147.044 507.861 141.619 502.961 138.097C472.036 115.869 444.361 108.671 418.488 116.153L416.375 111.617L406.691 116.046L404.728 111.832C403.981 110.229 402.064 109.529 400.446 110.269L375.685 121.594L375.203 120.559C374.817 119.729 373.825 119.367 372.987 119.75L348.552 130.926C347.715 131.309 347.349 132.292 347.736 133.121L348.218 134.156L337.485 139.064C335.868 139.804 335.162 141.703 335.908 143.306L339.13 150.22L314.59 161.513C312.617 162.415 311.756 164.731 312.667 166.686C313.577 168.64 315.915 169.493 317.887 168.591L342.44 157.325L345.702 164.327C346.449 165.93 348.366 166.63 349.983 165.89L360.716 160.981L361.198 162.016C361.584 162.846 362.576 163.208 363.414 162.825L387.849 151.649C388.686 151.266 389.052 150.283 388.665 149.454L388.183 148.419L412.944 137.095C414.562 136.355 415.268 134.456 414.521 132.853L413.055 129.705L412.558 128.639L422.242 124.21L419.879 119.138C444.59 112.188 471.184 119.275 501.034 140.73C505.759 144.126 511.456 149.483 518.053 155.685C535.66 172.239 557.573 192.84 577.696 191.471C585.698 190.927 592.8 186.879 598.805 179.439C617.655 156.081 611.932 125.148 606.881 97.8586C606.645 96.5796 606.41 95.31 606.179 94.0521C605.752 91.7182 605.303 89.3602 604.849 86.9829C601.394 68.8615 597.819 50.1256 602.114 32.5382C604.569 22.4777 610.427 15.0446 619.056 11.0422C628.896 6.47752 641.517 7.046 652.817 12.5623C665.097 18.557 675.087 29.8296 681.708 45.161C687.334 58.1872 690.404 73.7867 690.353 89.0856C690.269 114.543 684.954 139.995 679.815 164.605L679.555 165.848C679.218 167.466 678.872 169.09 678.526 170.72C673.871 192.626 669.06 215.273 678.526 236.786C681.677 243.948 686.768 250.444 692.86 255.077C699.504 260.13 706.982 262.778 714.483 262.736L714.465 259.485Z" fill="#13625C"/>
<path d="M405.147 105.404L414.941 126.426C415.688 128.028 414.982 129.927 413.364 130.667L350.403 159.462C348.785 160.202 346.869 159.503 346.122 157.9L336.328 136.879C335.581 135.276 336.287 133.377 337.905 132.637L400.866 103.842C402.484 103.102 404.401 103.802 405.147 105.404Z" fill="#AAEEE9"/>
<mask id="mask6_14198_91477" style="mask-type:luminance" maskUnits="userSpaceOnUse" x="336" y="103" width="80" height="57">
<path d="M405.148 105.404L414.942 126.426C415.689 128.028 414.983 129.927 413.365 130.667L350.404 159.462C348.786 160.202 346.869 159.503 346.123 157.9L336.329 136.879C335.582 135.276 336.288 133.377 337.906 132.637L400.867 103.842C402.485 103.102 404.402 103.802 405.148 105.404Z" fill="white"/>
</mask>
<g mask="url(#mask6_14198_91477)">
<path opacity="0.14" d="M411.209 115.911L336.745 149.117L330.698 130.699L357.126 111.172L407.742 97.4141L411.209 115.911Z" fill="#23AFA3"/>
</g>
<path d="M375.622 114.133L389.084 143.028C389.47 143.858 389.105 144.841 388.267 145.224L363.832 156.399C362.995 156.782 362.003 156.42 361.616 155.59L348.154 126.696C347.768 125.866 348.133 124.883 348.97 124.5L373.406 113.325C374.243 112.942 375.235 113.304 375.622 114.133Z" fill="#23AFA3"/>
<path d="M386.071 141.801C386.349 142.397 386.086 143.104 385.484 143.379L364.249 153.091C363.647 153.366 362.934 153.106 362.656 152.51C362.378 151.913 362.641 151.207 363.243 150.931L384.478 141.219C385.08 140.944 385.793 141.204 386.071 141.801Z" fill="#AAEEE9"/>
<path d="M383.78 136.871C384.058 137.467 383.795 138.174 383.193 138.449L361.958 148.161C361.356 148.437 360.643 148.176 360.365 147.58C360.087 146.983 360.35 146.277 360.952 146.001L382.187 136.289C382.789 136.014 383.503 136.274 383.78 136.871Z" fill="#AAEEE9"/>
<path d="M381.489 131.957C381.767 132.553 381.505 133.26 380.902 133.535L359.667 143.247C359.065 143.523 358.352 143.262 358.074 142.666C357.796 142.069 358.059 141.363 358.661 141.087L379.896 131.375C380.498 131.1 381.212 131.36 381.489 131.957Z" fill="#AAEEE9"/>
<path d="M379.199 127.051C379.477 127.647 379.214 128.354 378.612 128.629L357.377 138.341C356.775 138.616 356.062 138.356 355.784 137.76C355.506 137.163 355.769 136.457 356.371 136.181L377.606 126.469C378.208 126.194 378.921 126.454 379.199 127.051Z" fill="#AAEEE9"/>
<path d="M376.907 122.121C377.185 122.717 376.922 123.424 376.32 123.699L355.085 133.411C354.483 133.687 353.769 133.426 353.492 132.83C353.214 132.233 353.477 131.527 354.079 131.251L375.314 121.539C375.916 121.264 376.629 121.524 376.907 122.121Z" fill="#AAEEE9"/>
<path d="M374.616 117.207C374.894 117.803 374.631 118.51 374.029 118.785L352.794 128.497C352.192 128.773 351.479 128.512 351.201 127.916C350.923 127.319 351.186 126.613 351.788 126.337L373.023 116.625C373.625 116.35 374.338 116.61 374.616 117.207Z" fill="#AAEEE9"/>
<path d="M339.575 143.852L342.873 150.929L318.306 162.165C316.334 163.067 313.996 162.214 313.086 160.259C312.175 158.305 313.036 155.989 315.009 155.087L339.575 143.852Z" fill="#23AFA3"/>
<path d="M407.108 109.626L412.975 122.219L422.658 117.79L416.791 105.197L407.108 109.626Z" fill="#23AFA3"/>
<path d="M415.62 110.753C442.435 101.654 471.142 108.495 503.381 131.668C508.281 135.19 514.051 140.615 520.732 146.896C537.873 163.012 559.206 183.068 577.891 181.797C585.038 181.311 591.178 177.772 596.661 170.979C614.576 148.777 608.996 118.622 604.072 92.0156C603.835 90.7343 603.6 89.4628 603.369 88.2025C602.943 85.8767 602.495 83.5262 602.043 81.1569C598.524 62.6973 594.884 43.6115 599.342 25.344C602.04 14.2905 608.52 6.10321 618.083 1.66739C628.817 -3.31188 642.501 -2.73316 654.687 3.2155C667.679 9.55813 678.211 21.3968 685.145 37.4518C690.943 50.877 694.107 66.9345 694.055 82.6667C693.969 108.452 688.62 134.068 683.448 158.835L683.188 160.077C682.85 161.698 682.504 163.327 682.157 164.961C677.612 186.364 672.907 208.497 681.953 229.056C689.285 245.72 703.776 253.117 714.884 253.055L714.902 256.307C707.401 256.349 699.924 253.7 693.279 248.648C687.187 244.015 682.096 237.519 678.944 230.356C669.479 208.843 674.29 186.197 678.945 164.291C679.291 162.661 679.636 161.036 679.974 159.419L680.233 158.176C685.373 133.566 690.688 108.114 690.772 82.6561C690.823 67.3572 687.753 51.7577 682.127 38.7315C675.506 23.4001 665.515 12.1275 653.236 6.13281C641.936 0.616499 629.315 0.0480192 619.475 4.61267C610.846 8.61505 604.988 16.0482 602.532 26.1087C598.237 43.6961 601.813 62.432 605.268 80.5534C605.721 82.9307 606.171 85.2887 606.598 87.6225C606.829 88.8807 607.064 90.1501 607.3 91.4292C612.351 118.719 618.074 149.651 599.224 173.01C593.219 180.45 586.117 184.498 578.115 185.042C557.991 186.411 536.079 165.809 518.472 149.256C511.875 143.053 506.177 137.697 501.453 134.3C470.142 111.795 442.413 105.099 416.683 113.83L415.62 110.753Z" fill="#23AFA3"/>
</g>
<mask id="mask7_14198_91477" style="mask-type:luminance" maskUnits="userSpaceOnUse" x="0" y="0" width="554" height="371">
<path d="M553.294 0H0V370.032H553.294V0Z" fill="white"/>
</mask>
<g mask="url(#mask7_14198_91477)">
<path d="M271.156 204.832C271.466 204.115 271.891 203.49 272.43 202.956C272.969 202.421 273.601 202 274.324 201.693C275.047 201.386 275.822 201.233 276.648 201.233C277.474 201.233 278.249 201.386 278.972 201.693C279.695 202 280.326 202.422 280.865 202.956C281.404 203.49 281.829 204.115 282.139 204.832C282.449 205.548 282.604 206.315 282.604 207.134C282.604 207.953 282.449 208.72 282.139 209.437C281.829 210.153 281.404 210.779 280.865 211.313C280.326 211.847 279.695 212.268 278.972 212.575C278.249 212.882 277.474 213.035 276.648 213.035C275.822 213.035 275.047 212.882 274.324 212.575C273.601 212.268 272.969 211.847 272.43 211.313C271.891 210.779 271.466 210.153 271.156 209.437C270.846 208.72 270.692 207.953 270.692 207.134C270.692 206.315 270.846 205.548 271.156 204.832ZM285.326 112.104C285.326 108.745 284.677 106.224 283.381 104.544C282.084 102.864 279.84 102.023 276.648 102.023C273.455 102.023 271.211 102.864 269.915 104.544C268.618 106.224 267.97 108.745 267.97 112.104V142.407L272.458 187.534V187.416C272.657 188.919 273.177 189.946 274.014 190.5C274.852 191.054 275.73 191.33 276.648 191.33C277.565 191.33 278.433 191.063 279.252 190.529C280.069 189.995 280.577 188.997 280.778 187.534L285.326 142.407L285.326 112.104Z" fill="#23AFA3"/>
</g>
</g>
<mask id="mask8_14198_91477" style="mask-type:luminance" maskUnits="userSpaceOnUse" x="0" y="0" width="554" height="371">
<path d="M553.294 0H0V370.032H553.294V0Z" fill="white"/>
</mask>
<g mask="url(#mask8_14198_91477)">
<g opacity="0.31">
<path d="M-26.8136 133.237L-29.8613 125.392C-13.1164 119.006 2.845 110.452 17.5796 99.9693C32.3142 89.4865 45.5955 77.2352 57.0551 63.5559C59.757 60.3307 62.46 56.915 65.074 53.612C75.8029 40.0549 86.897 26.0362 102.927 18.1912C117.54 11.0394 135.904 9.38679 157.509 13.2792C167.144 15.0149 176.652 17.6229 185.846 20.1451C193.448 22.2305 201.309 24.3867 209.089 25.999C223.902 29.0687 239.365 30.3208 255.049 29.7214C270.182 29.1427 285.593 26.8401 300.853 22.8772C330.454 15.1907 359.407 1.23127 384.582 -17.4922L389.675 -10.7698C363.629 8.60159 333.658 23.0482 303.004 31.0082C287.148 35.1257 271.124 37.5186 255.376 38.1207C239.001 38.7475 222.843 37.4365 207.351 34.2265C199.306 32.5592 191.312 30.3664 183.582 28.2458C174.569 25.7735 165.249 23.2169 155.991 21.5491C136.217 17.9869 119.628 19.3927 106.684 25.7274C92.3828 32.7264 81.8936 45.9805 71.7497 58.7983C69.0998 62.1467 66.3599 65.6089 63.5825 68.9242C51.6616 83.1543 37.8486 95.8967 22.5272 106.797C7.20644 117.698 -9.39442 126.593 -26.8136 133.237Z" fill="#13625C"/>
</g>
</g>
<mask id="mask9_14198_91477" style="mask-type:luminance" maskUnits="userSpaceOnUse" x="0" y="0" width="554" height="371">
<path d="M553.294 0H0V370.032H553.294V0Z" fill="white"/>
</mask>
<g mask="url(#mask9_14198_91477)">
<path d="M-26.8136 129.596L-29.8613 121.751C-13.1164 115.365 2.845 106.811 17.5796 96.3287C32.3142 85.8459 45.5955 73.5946 57.0551 59.9153C59.757 56.69 62.46 53.2744 65.074 49.9714C75.8029 36.4143 86.897 22.3956 102.927 14.5506C117.54 7.39879 135.904 5.74616 157.509 9.63854C167.144 11.3743 176.652 13.9823 185.846 16.5045C193.448 18.5899 201.309 20.7461 209.089 22.3583C223.902 25.4281 239.365 26.6801 255.049 26.0808C270.182 25.5021 285.593 23.1993 300.853 19.2365C330.454 11.5501 359.407 -2.40935 384.582 -21.1328L389.675 -14.4105C363.629 4.96097 333.658 19.4076 303.004 27.3676C287.148 31.4851 271.124 33.878 255.376 34.4801C239.001 35.1068 222.843 33.7959 207.351 30.5858C199.306 28.9186 191.312 26.7258 183.582 24.6052C174.569 22.1328 165.249 19.5762 155.991 17.9084C136.217 14.3463 119.628 15.752 106.684 22.0868C92.3828 29.0858 81.8936 42.3399 71.7497 55.1577C69.0998 58.506 66.3599 61.9683 63.5825 65.2836C51.6616 79.5136 37.8486 92.2559 22.5272 103.156C7.20644 114.057 -9.39442 122.952 -26.8136 129.596Z" fill="#23AFA3"/>
</g>
<g opacity="0.31">
<path d="M377.894 402L378.197 387.535L380.523 387.583C387.799 375.222 399.355 366.973 415.703 362.433C431.318 358.096 448.707 357.708 465.524 357.333C473.834 357.148 481.683 356.973 488.842 356.314C500.151 355.273 508.263 353.252 515.141 349.762C519.988 347.302 523.905 344.084 526.781 340.197C529.46 336.578 531.185 332.462 531.908 327.964C533.653 317.113 529.391 305.339 520.508 296.469C515.715 291.683 509.988 287.442 503.926 282.952C492.446 274.451 480.575 265.66 474.973 252.615C471.352 244.182 471.344 234.594 474.952 226.309C478.273 218.684 484.355 212.928 492.08 210.1C503.786 205.815 517.726 204.627 533.511 206.568C546.677 208.187 560.92 212.098 573.617 217.58L571.996 221.265C550.102 211.812 517.98 204.906 493.486 213.871C486.813 216.314 481.554 221.296 478.678 227.902C475.508 235.182 475.518 243.615 478.707 251.041C483.881 263.089 495.306 271.55 506.355 279.732C512.269 284.112 518.384 288.641 523.388 293.637C533.18 303.415 537.863 316.484 535.915 328.597C534.206 339.227 527.485 348.014 516.991 353.34C509.631 357.075 501.065 359.227 489.217 360.317C481.917 360.989 473.999 361.166 465.616 361.353C449.05 361.722 431.921 362.104 416.798 366.304C408.707 368.551 402.061 371.648 396.481 375.771C390.193 380.418 385.441 386.222 381.952 393.515L377.894 402Z" fill="#13625C"/>
</g>
<path d="M374.966 402L375.269 387.535L377.595 387.583C384.872 375.222 396.427 366.973 412.775 362.433C428.39 358.096 445.78 357.708 462.597 357.333C470.907 357.148 478.756 356.973 485.914 356.314C497.224 355.273 505.335 353.252 512.213 349.762C517.06 347.302 520.977 344.084 523.853 340.197C526.532 336.578 528.257 332.462 528.98 327.964C530.725 317.113 526.463 305.339 517.58 296.469C512.787 291.683 507.06 287.442 500.998 282.952C489.518 274.451 477.647 265.66 472.045 252.615C468.424 244.182 468.416 234.594 472.024 226.309C475.344 218.684 481.427 212.928 489.152 210.1C500.858 205.815 514.797 204.627 530.583 206.568C543.748 208.187 557.992 212.098 570.689 217.58L569.068 221.265C547.174 211.812 515.052 204.906 490.558 213.871C483.885 216.314 478.626 221.296 475.749 227.902C472.579 235.182 472.59 243.615 475.779 251.041C480.952 263.089 492.378 271.55 503.427 279.732C509.341 284.112 515.456 288.641 520.46 293.637C530.252 303.415 534.935 316.484 532.987 328.597C531.278 339.227 524.557 348.014 514.063 353.34C506.703 357.075 498.137 359.227 486.289 360.317C478.989 360.989 471.071 361.166 462.688 361.353C446.122 361.722 428.992 362.104 413.87 366.304C405.779 368.551 399.133 371.648 393.553 375.771C387.265 380.418 382.512 386.222 379.024 393.515L374.966 402Z" fill="#23AFA3"/>
</svg>
