<svg width="152" height="48" viewBox="0 0 152 48" fill="none" xmlns="http://www.w3.org/2000/svg">
<g id="Partners" clip-path="url(#clip0_12050_12508)">
<path id="Vector" d="M63.3807 12.1458V31.0218H60.0217V16.2094H59.977L53.9755 31.0218H51.7362L45.6004 16.2094H45.5556V31.0218H42.4653V12.1458H47.3023L52.8559 26.128H52.9454L58.8125 12.1458H63.3807ZM66.1575 13.5877C66.1575 13.0634 66.3367 12.6264 66.7397 12.2769C67.1428 11.9273 67.5907 11.7525 68.1281 11.7525C68.7104 11.7525 69.203 11.9273 69.5613 12.2769C69.9196 12.6264 70.1435 13.0634 70.1435 13.5877C70.1435 14.112 69.9644 14.549 69.5613 14.8985C69.1582 15.2481 68.7104 15.4229 68.1281 15.4229C67.5459 15.4229 67.098 15.2481 66.7397 14.8985C66.3815 14.5053 66.1575 14.0683 66.1575 13.5877ZM69.7852 17.4765V31.0218H66.5158V17.4765H69.7852ZM79.6831 28.7059C80.1758 28.7059 80.7132 28.6186 81.2954 28.3564C81.8777 28.1379 82.4151 27.8321 82.9078 27.4825V30.4537C82.3703 30.7596 81.7881 30.9781 81.1163 31.1091C80.4445 31.2402 79.7279 31.3276 78.9217 31.3276C76.8616 31.3276 75.2044 30.7159 73.9504 29.4488C72.6516 28.1816 72.0246 26.5649 72.0246 24.6424C72.0246 22.4577 72.6964 20.6662 73.9952 19.268C75.294 17.8697 77.1303 17.1706 79.5488 17.1706C80.1758 17.1706 80.8028 17.258 81.385 17.3891C82.012 17.5202 82.5047 17.7387 82.863 17.9134V20.972C82.3703 20.6225 81.8329 20.3166 81.3402 20.1419C80.8028 19.9671 80.2653 19.836 79.7279 19.836C78.4291 19.836 77.399 20.2292 76.5928 21.0594C75.7867 21.8896 75.4284 22.982 75.4284 24.3802C75.4284 25.7347 75.8315 26.8271 76.5928 27.5699C77.3542 28.3127 78.3843 28.7059 79.6831 28.7059ZM92.1786 17.258C92.4473 17.258 92.6713 17.258 92.8952 17.3017C93.1191 17.3454 93.2983 17.3891 93.4327 17.4328V20.6662C93.2535 20.5351 93.0296 20.404 92.6713 20.3166C92.313 20.2292 91.9547 20.1419 91.462 20.1419C90.6559 20.1419 89.9841 20.4914 89.4466 21.1468C88.9092 21.8022 88.5957 22.8072 88.5957 24.2054V31.0218H85.3262V17.4765H88.5957V19.6175H88.6405C88.954 18.8747 89.4018 18.3067 89.9841 17.8697C90.6111 17.4765 91.3277 17.258 92.1786 17.258ZM93.6118 24.4676C93.6118 22.2392 94.2836 20.4477 95.5376 19.1369C96.8364 17.826 98.6279 17.1706 100.912 17.1706C103.062 17.1706 104.764 17.7824 105.973 19.0495C107.182 20.3166 107.809 22.0207 107.809 24.1617C107.809 26.3465 107.137 28.0942 105.883 29.4051C104.585 30.7159 102.838 31.3713 100.599 31.3713C98.4488 31.3713 96.7469 30.7596 95.4928 29.5361C94.2388 28.269 93.6118 26.5649 93.6118 24.4676ZM97.0156 24.3365C97.0156 25.7347 97.3291 26.8271 98.0009 27.5699C98.6727 28.3127 99.6132 28.7059 100.822 28.7059C101.987 28.7059 102.927 28.3564 103.554 27.5699C104.181 26.8271 104.495 25.7347 104.495 24.2491C104.495 22.8072 104.181 21.7148 103.554 20.9284C102.927 20.1855 101.987 19.7923 100.867 19.7923C99.658 19.7923 98.7623 20.1855 98.0905 20.972C97.3291 21.8022 97.0156 22.8946 97.0156 24.3365ZM112.691 21.0594C112.691 21.4964 112.825 21.8896 113.139 22.1518C113.452 22.414 114.079 22.7198 115.109 23.1131C116.408 23.6374 117.349 24.2054 117.841 24.8172C118.379 25.4726 118.648 26.2154 118.648 27.133C118.648 28.4001 118.155 29.4051 117.125 30.1916C116.14 30.9781 114.751 31.3276 113.049 31.3276C112.467 31.3276 111.84 31.2402 111.123 31.1091C110.407 30.9781 109.825 30.8033 109.332 30.5848V27.4388C109.914 27.8321 110.586 28.1816 111.258 28.4001C111.93 28.6186 112.557 28.7496 113.139 28.7496C113.855 28.7496 114.438 28.6623 114.751 28.4438C115.109 28.2253 115.289 27.9195 115.289 27.4388C115.289 27.0019 115.109 26.6523 114.751 26.3028C114.393 25.9969 113.676 25.6473 112.691 25.2541C111.482 24.7735 110.631 24.2054 110.138 23.5937C109.645 22.982 109.377 22.1955 109.377 21.2342C109.377 20.0108 109.869 19.0058 110.855 18.2193C111.84 17.4328 113.139 17.0396 114.706 17.0396C115.199 17.0396 115.736 17.0832 116.319 17.2143C116.901 17.3454 117.438 17.4765 117.841 17.6076V20.7099C117.394 20.4477 116.901 20.1855 116.319 19.9671C115.736 19.7486 115.154 19.6612 114.617 19.6612C113.99 19.6612 113.497 19.7923 113.184 20.0108C112.87 20.3166 112.691 20.6225 112.691 21.0594ZM120.036 24.4676C120.036 22.2392 120.708 20.4477 121.962 19.1369C123.261 17.826 125.052 17.1706 127.336 17.1706C129.486 17.1706 131.188 17.7824 132.397 19.0495C133.606 20.3166 134.233 22.0207 134.233 24.1617C134.233 26.3465 133.562 28.0942 132.308 29.4051C131.009 30.7159 129.262 31.3713 127.023 31.3713C124.873 31.3713 123.171 30.7596 121.917 29.5361C120.708 28.269 120.036 26.5649 120.036 24.4676ZM123.44 24.3365C123.44 25.7347 123.753 26.8271 124.425 27.5699C125.097 28.3127 126.037 28.7059 127.247 28.7059C128.411 28.7059 129.352 28.3564 129.979 27.5699C130.606 26.8271 130.919 25.7347 130.919 24.2491C130.919 22.8072 130.606 21.7148 129.979 20.9284C129.352 20.1855 128.411 19.7923 127.291 19.7923C126.082 19.7923 125.186 20.1855 124.515 20.972C123.798 21.8022 123.44 22.8946 123.44 24.3365ZM145.117 20.0982H140.235V31.0218H136.921V20.0982H134.592V17.4765H136.921V15.5976C136.921 14.1994 137.413 13.0197 138.354 12.1021C139.294 11.1845 140.504 10.7476 141.981 10.7476C142.385 10.7476 142.743 10.7913 143.056 10.7913C143.37 10.7913 143.639 10.8786 143.863 10.966V13.7188C143.773 13.6751 143.549 13.5877 143.28 13.5003C143.012 13.4129 142.698 13.3692 142.34 13.3692C141.668 13.3692 141.131 13.5877 140.772 13.9809C140.414 14.3742 140.235 15.0296 140.235 15.8161V17.4328H145.117V14.3742L148.386 13.4129V17.4328H151.7V20.0545H148.386V26.3901C148.386 27.2203 148.565 27.7884 148.834 28.1379C149.147 28.4875 149.64 28.6623 150.312 28.6623C150.491 28.6623 150.715 28.6186 150.984 28.5312C151.252 28.4438 151.476 28.3564 151.655 28.2253V30.847C151.431 30.9781 151.118 31.0654 150.625 31.1528C150.133 31.2402 149.685 31.2839 149.192 31.2839C147.804 31.2839 146.774 30.9344 146.102 30.2353C145.43 29.5361 145.072 28.4438 145.072 27.0019L145.117 20.0982Z" fill="#343A40"/>
<path id="Vector_2" d="M15.8171 5.85376H0.5V20.7972H15.8171V5.85376Z" fill="#F25022"/>
<path id="Vector_3" d="M32.7468 5.85376H17.4297V20.7972H32.7468V5.85376Z" fill="#7FBA00"/>
<path id="Vector_4" d="M15.8171 22.3701H0.5V37.3136H15.8171V22.3701Z" fill="#00A4EF"/>
<path id="Vector_5" d="M32.7468 22.3701H17.4297V37.3136H32.7468V22.3701Z" fill="#FFB900"/>
</g>
<defs>
<clipPath id="clip0_12050_12508">
<rect width="151.2" height="48" fill="white" transform="translate(0.5)"/>
</clipPath>
</defs>
</svg>
